<svg width="17" height="14" viewBox="0 0 17 14" fill="none" xmlns="http://www.w3.org/2000/svg">
<path d="M12.25 13.5H4.74999C2.5 13.5 1 12.375 1 9.74997V4.49999C1 1.875 2.5 0.75 4.74999 0.75H12.25C14.5 0.75 16 1.875 16 4.49999V9.74997C16 12.375 14.5 13.5 12.25 13.5Z" fill="#6F91EE"/>
<path d="M12.25 13.5H4.74999C2.5 13.5 1 12.375 1 9.74997V4.49999C1 1.875 2.5 0.75 4.74999 0.75H12.25C14.5 0.75 16 1.875 16 4.49999V9.74997C16 12.375 14.5 13.5 12.25 13.5Z" fill="#545454"/>
<path d="M12.25 13.5H4.74999C2.5 13.5 1 12.375 1 9.74997V4.49999C1 1.875 2.5 0.75 4.74999 0.75H12.25C14.5 0.75 16 1.875 16 4.49999V9.74997C16 12.375 14.5 13.5 12.25 13.5Z" stroke="white" stroke-miterlimit="10" stroke-linecap="round" stroke-linejoin="round"/>
<path d="M12.25 4.87491L9.90248 6.7499C9.12998 7.3649 7.86249 7.3649 7.08999 6.7499L4.75 4.87491" fill="#6F91EE"/>
<path d="M12.25 4.87491L9.90248 6.7499C9.12998 7.3649 7.86249 7.3649 7.08999 6.7499L4.75 4.87491" fill="#545454"/>
<path d="M12.25 4.87491L9.90248 6.7499C9.12998 7.3649 7.86249 7.3649 7.08999 6.7499L4.75 4.87491" stroke="white" stroke-miterlimit="10" stroke-linecap="round" stroke-linejoin="round"/>
</svg>
