<svg width="390" height="352" viewBox="0 0 390 352" fill="none" xmlns="http://www.w3.org/2000/svg">
<g clip-path="url(#clip0_4147_12850)">
<path d="M70.7374 76.1469C89.3517 76.1469 104.442 61.0644 104.442 42.4593C104.442 23.8541 89.3517 8.77161 70.7374 8.77161C52.1231 8.77161 37.0332 23.8541 37.0332 42.4593C37.0332 61.0644 52.1231 76.1469 70.7374 76.1469Z" stroke="#D3D3D3" stroke-miterlimit="10" stroke-dasharray="12.17 12.17"/>
<path d="M99.9775 22.1182C89.5372 26.6174 79.1347 32.0997 71.834 40.7579C64.5333 49.4161 60.864 61.7796 65.252 72.177C71.1153 86.0529 89.6885 94.1061 89.7641 109.154C89.8398 119.93 79.7399 128.134 69.5643 132.028C59.3888 135.923 48.1541 137.359 38.8864 143.069C24.9281 151.689 18.3839 168.4 15.6982 184.431C12.899 201.067 14.0338 220.009 25.9872 232.07C40.8155 247.081 65.3655 245.379 86.3975 242.165C114.428 237.893 142.344 232.864 170.261 227.874C231.465 216.871 292.632 205.869 353.837 194.904C360.381 193.732 367.228 192.447 372.561 188.477C383.153 180.651 384.061 164.431 377.895 152.899C371.729 141.367 360.343 133.465 349.033 126.66C337.722 119.854 325.769 113.426 317.333 103.407C308.86 93.3878 304.661 78.5289 311.054 67.0728C316.501 57.3938 328.152 52.214 333.221 42.3459C339.916 29.3396 332.2 12.7794 320.057 4.46145C307.914 -3.78087 155.205 -1.66357 99.9775 22.1182Z" fill="#F0FAFF"/>
<path d="M367.19 204.583C380.77 211.956 390 226.324 390 242.884C390 266.93 370.518 286.402 346.46 286.402C327.925 286.402 312.075 274.794 305.796 258.461L367.19 204.583Z" fill="#CCEEFF"/>
<path d="M299.857 258.688C337.921 258.688 368.778 227.846 368.778 189.8C368.778 151.755 337.921 120.913 299.857 120.913C261.793 120.913 230.936 151.755 230.936 189.8C230.936 227.846 261.793 258.688 299.857 258.688Z" fill="#B0E1FF"/>
<path d="M299.856 325.95C298.986 325.95 298.268 325.231 298.268 324.362V189.8C298.268 188.931 298.986 188.212 299.856 188.212C300.726 188.212 301.445 188.931 301.445 189.8V324.4C301.445 325.231 300.726 325.95 299.856 325.95Z" fill="#CCEEFF"/>
<path d="M299.857 227.042C299.44 227.042 299.062 226.891 298.76 226.588L279.468 207.306C278.862 206.701 278.862 205.68 279.468 205.075C280.073 204.47 281.094 204.47 281.699 205.075L300.991 224.358C301.597 224.962 301.597 225.983 300.991 226.588C300.689 226.891 300.273 227.042 299.857 227.042Z" fill="#CCEEFF"/>
<path d="M299.857 244.963C299.44 244.963 299.062 244.812 298.76 244.51L279.468 225.227C278.862 224.622 278.862 223.601 279.468 222.996C280.073 222.391 281.094 222.391 281.699 222.996L300.991 242.279C301.597 242.884 301.597 243.905 300.991 244.51C300.689 244.812 300.273 244.963 299.857 244.963Z" fill="#CCEEFF"/>
<path d="M346.195 325.912C345.439 325.761 344.909 325.042 344.909 324.286V253.773C344.909 252.903 345.552 252.147 346.384 252.109C347.292 252.071 348.049 252.79 348.049 253.697V324.4C348.049 325.345 347.179 326.101 346.195 325.912Z" fill="#CCEEFF"/>
<path d="M346.46 264.019C346.044 264.019 345.666 263.868 345.363 263.565C344.758 262.96 344.758 261.939 345.363 261.335L359.284 247.421C359.889 246.816 360.91 246.816 361.515 247.421C362.121 248.026 362.121 249.047 361.515 249.652L347.595 263.527C347.292 263.83 346.876 264.019 346.46 264.019Z" fill="#CCEEFF"/>
<path d="M346.46 276.912C346.044 276.912 345.666 276.761 345.363 276.458C344.758 275.853 344.758 274.832 345.363 274.227L359.284 260.314C359.889 259.709 360.91 259.709 361.515 260.314C362.121 260.919 362.121 261.939 361.515 262.544L347.595 276.458C347.292 276.761 346.876 276.912 346.46 276.912Z" fill="#CCEEFF"/>
<path d="M378.311 351.887H4.50126C2.0803 351.887 0.113281 349.921 0.113281 347.501V325.912C0.113281 323.492 2.0803 321.526 4.50126 321.526H378.349C380.77 321.526 382.737 323.492 382.737 325.912V347.501C382.699 349.921 380.732 351.887 378.311 351.887Z" fill="#F2F2F2"/>
<path d="M61.0918 312.036C61.3188 317.556 68.9599 329.126 67.6738 331.319C66.3876 333.512 53.2237 336.99 50.4245 331.319C47.6631 325.647 52.9589 316.082 52.9589 312.036C53.0346 308.028 61.0918 312.036 61.0918 312.036Z" fill="#1371B7"/>
<path d="M83.1452 313.208C86.474 318.993 103.837 327.197 105.047 330.184C106.258 333.171 76.5633 330.071 70.2461 322.471C72.5157 315.628 74.2936 310.183 74.2936 310.183L83.1452 313.208Z" fill="#1371B7"/>
<path d="M70.3974 166.737C66.4633 169.573 56.0608 193.43 59.5031 251.013C49.9706 285.268 52.5807 314.834 52.5807 314.834H61.6593C61.6593 314.834 70.8891 258.196 72.894 253.924C74.8988 249.652 95.1365 188.931 87.6088 166.85C80.0812 144.77 70.3974 166.737 70.3974 166.737Z" fill="#0B577C"/>
<path d="M81.8961 159.856C77.9621 162.691 75.8816 190.859 79.3239 248.48C69.7914 282.734 72.7797 314.872 72.7797 314.872H82.9553C82.9553 314.872 90.7099 255.663 92.7148 251.391C94.7196 247.118 114.957 188.969 107.43 166.888C99.9019 144.77 81.8961 159.856 81.8961 159.856Z" fill="#0B577C"/>
<path d="M96.1953 104.125C96.1953 104.125 109.397 111.309 110.532 121.48C111.667 131.688 111.099 159.099 109.397 160.99C107.695 162.88 104.139 165.565 102.739 162.313C101.34 159.062 96.1953 104.125 96.1953 104.125Z" fill="#FFA42C"/>
<path d="M59.4648 100.382C61.9993 96.7527 72.6666 96.6393 72.6666 96.6393C77.2437 95.3538 81.4425 94.7111 81.4425 94.7111C81.4425 94.7111 98.4648 104.277 99.6375 107.453C100.772 110.629 103.647 125.941 105.955 129.76C107.203 131.839 104.177 136.717 101.151 140.687C98.3135 144.43 98.1622 149.534 100.81 153.428L105.955 161.028C105.955 161.028 83.5609 171.236 70.3969 166.775C68.6569 152.105 65.2902 128.474 60.1079 125.941C44.5987 155.81 65.0633 174.941 65.0633 174.941C65.0633 174.941 64.0798 177.096 61.1671 179.819C18.0817 151.689 56.9682 103.974 59.4648 100.382Z" fill="#FFA42C"/>
<path d="M90.748 132.407L100.016 136.263L105.728 119.211L96.46 115.393L90.748 132.407Z" fill="#1371B7"/>
<path d="M105.955 130.403C109.965 140.611 116.282 164.809 104.215 164.809C101.34 164.809 100.772 134.864 100.772 132.293C102.513 130.403 105.955 130.403 105.955 130.403Z" fill="#FFBB69"/>
<path d="M105.954 130.403C105.954 130.403 102.512 122.765 100.205 123.408C97.8973 124.051 91.0127 125.336 91.0127 127.227C91.0127 129.117 100.772 132.331 100.772 132.331H104.214L105.954 130.403Z" fill="#FFD4B0"/>
<path d="M63.7019 184.167C60.0327 182.428 57.4226 177.89 65.8959 174.677C69.9435 173.164 70.5865 183.902 70.5865 183.902L63.7019 184.167Z" fill="#FFD4B0"/>
<path d="M74.3686 67.1863C72.969 73.3113 79.1349 72.5552 85.2629 73.9163C91.391 75.2774 97.4433 71.4965 98.8429 65.3715C100.243 59.2464 96.422 53.197 90.294 51.7981C84.1659 50.3992 75.7304 61.0613 74.3686 67.1863Z" fill="#1371B7"/>
<path d="M97.5566 96.7906C97.5566 93.35 98.9563 90.7412 100.772 90.7412C102.588 90.7412 103.987 93.35 103.987 96.7906C103.987 100.231 102.588 102.84 100.772 102.84C98.9563 102.84 97.5566 100.231 97.5566 96.7906ZM98.6915 96.7906C98.6915 99.7019 99.7885 101.706 100.772 101.706C101.755 101.706 102.852 99.7019 102.852 96.7906C102.852 93.8793 101.755 91.8755 100.772 91.8755C99.7885 91.8755 98.6915 93.8793 98.6915 96.7906Z" fill="#FFA42C"/>
<path d="M106.636 91.1192C113.823 85.0698 124.793 70.3244 98.3135 65.4093C71.8344 60.4941 85.4522 89.6069 85.4522 89.6069L106.636 91.1192Z" fill="#1371B7"/>
<path d="M86.7381 86.0907C84.9981 89.2666 74.8604 98.681 74.8604 98.681L89.2347 127.832L88.4404 101.706L91.3153 92.4804L86.7381 86.0907Z" fill="#FFC99C"/>
<path d="M88.4778 78.2642C85.0355 84.5783 86.1703 95.7697 91.3148 99.2481C96.4594 102.727 104.252 97.5089 107.694 91.1948C111.136 84.8808 109.775 76.9409 104.63 73.4625C99.4855 69.9841 91.9201 71.9502 88.4778 78.2642Z" fill="#FFE3CA"/>
<path d="M111.704 80.6841C104.82 87.6787 87.6084 81.9696 87.6084 77.5081C87.6084 73.0467 92.1855 66.657 92.1855 66.657H100.205L111.704 80.6841Z" fill="#1371B7"/>
<path d="M88.4404 85.1454C89.5476 85.1454 90.4452 83.4358 90.4452 81.3267C90.4452 79.2177 89.5476 77.5081 88.4404 77.5081C87.3331 77.5081 86.4355 79.2177 86.4355 81.3267C86.4355 83.4358 87.3331 85.1454 88.4404 85.1454Z" fill="#FFE3CA"/>
<path d="M83.5605 88.8508C83.5605 85.4102 84.9602 82.8014 86.7759 82.8014C88.5916 82.8014 89.9912 85.4102 89.9912 88.8508C89.9912 92.2914 88.5916 94.9002 86.7759 94.9002C84.9602 94.9002 83.5605 92.2914 83.5605 88.8508ZM84.6954 88.8508C84.6954 91.7621 85.7924 93.7659 86.7759 93.7659C87.7594 93.7659 88.8564 91.7621 88.8564 88.8508C88.8564 85.9395 87.7594 83.9357 86.7759 83.9357C85.7924 83.9357 84.6954 85.9395 84.6954 88.8508Z" fill="#FFA42C"/>
<path d="M311.546 75.3151H162.544C160.048 75.3151 158.005 73.2735 158.005 70.7781V36.5611C158.005 34.0657 160.048 32.024 162.544 32.024H311.546C314.043 32.024 316.085 34.0657 316.085 36.5611V70.7781C316.085 73.2735 314.043 75.3151 311.546 75.3151Z" fill="#73B7EE"/>
<path d="M309.012 70.589C309.541 72.6307 309.125 77.1299 314.762 80.4571C308.634 80.4571 302.884 76.8275 302.884 70.6268C303.943 66.9972 309.012 70.589 309.012 70.589Z" fill="#B0E1FF"/>
<path d="M134.362 115.733H183.273C184.9 115.733 186.262 114.409 186.262 112.746V90.2874C186.262 88.6617 184.938 87.3005 183.273 87.3005H134.362C132.736 87.3005 131.374 88.6238 131.374 90.2874V112.746C131.374 114.409 132.736 115.733 134.362 115.733Z" fill="#1371B7"/>
<path d="M138.448 111.007C137.918 113.048 138.335 117.548 132.698 120.875C138.826 120.875 144.576 117.245 144.576 111.044C143.555 107.453 138.448 111.007 138.448 111.007Z" fill="#1371B7"/>
<path d="M177.372 65.8252C183.828 65.8252 189.061 60.5946 189.061 54.1423C189.061 47.69 183.828 42.4594 177.372 42.4594C170.917 42.4594 165.684 47.69 165.684 54.1423C165.684 60.5946 170.917 65.8252 177.372 65.8252Z" fill="white"/>
<path d="M300.993 46.278H199.956C198.897 46.278 198.064 45.4083 198.064 44.3875C198.064 43.3289 198.934 42.4971 199.956 42.4971H300.993C302.052 42.4971 302.884 43.3667 302.884 44.3875C302.884 45.4083 302.052 46.278 300.993 46.278Z" fill="white"/>
<path d="M300.993 55.579H199.956C198.897 55.579 198.064 54.7094 198.064 53.6885C198.064 52.6299 198.934 51.7981 199.956 51.7981H300.993C302.052 51.7981 302.884 52.6677 302.884 53.6885C302.884 54.7094 302.052 55.579 300.993 55.579Z" fill="white"/>
<path d="M253.595 64.8799H199.464C198.708 64.8799 198.064 64.2371 198.064 63.4809V62.4979C198.064 61.7417 198.708 61.099 199.464 61.099H253.595C254.352 61.099 254.995 61.7417 254.995 62.4979V63.4809C254.995 64.2749 254.352 64.8799 253.595 64.8799Z" fill="white"/>
<path d="M146.279 105.638C148.535 105.638 150.364 103.81 150.364 101.554C150.364 99.2993 148.535 97.4711 146.279 97.4711C144.022 97.4711 142.193 99.2993 142.193 101.554C142.193 103.81 144.022 105.638 146.279 105.638Z" fill="white"/>
<path d="M158.799 105.638C161.055 105.638 162.885 103.81 162.885 101.554C162.885 99.2993 161.055 97.4711 158.799 97.4711C156.543 97.4711 154.714 99.2993 154.714 101.554C154.714 103.81 156.543 105.638 158.799 105.638Z" fill="white"/>
<path d="M171.358 105.638C173.614 105.638 175.443 103.81 175.443 101.554C175.443 99.2993 173.614 97.4711 171.358 97.4711C169.102 97.4711 167.272 99.2993 167.272 101.554C167.272 103.81 169.102 105.638 171.358 105.638Z" fill="white"/>
</g>
<defs>
<clipPath id="clip0_4147_12850">
<rect width="390" height="352" fill="white"/>
</clipPath>
</defs>
</svg>
