<svg width="279" height="225" viewBox="0 0 279 225" fill="none" xmlns="http://www.w3.org/2000/svg">
<path d="M261.437 159.473H73.719V3.73584H261.437V159.473Z" fill="white"/>
<path d="M261.437 159.473C261.437 158.371 261.378 97.5948 261.289 3.7358L261.437 3.85492C207.659 3.88469 143.096 3.88469 73.7191 3.88469L73.8676 3.7358C73.8676 60.1048 73.8379 113.317 73.8379 159.473L73.7191 159.324C185.465 159.413 260.219 159.473 261.437 159.473C260.219 159.473 185.465 159.532 73.7191 159.622H73.5705V159.473C73.5705 113.317 73.5705 60.1048 73.5408 3.7358V3.58691H73.7191C143.096 3.58691 207.659 3.58692 261.437 3.61669H261.556V3.7358C261.467 97.5948 261.437 158.371 261.437 159.473Z" fill="#263238"/>
<path d="M239.837 45.7818C239.837 45.8712 206.203 45.9307 164.696 45.9307C123.189 45.9307 89.5256 45.8712 89.5256 45.7818C89.5256 45.6925 123.189 45.6329 164.696 45.6329C206.203 45.6329 239.837 45.6925 239.837 45.7818Z" fill="#E0E0E0"/>
<path d="M239.837 62.4274C239.837 62.5168 206.203 62.5763 164.696 62.5763C123.189 62.5763 89.5256 62.5168 89.5256 62.4274C89.5256 62.3381 123.189 62.2488 164.696 62.2488C206.203 62.2488 239.837 62.3381 239.837 62.4274Z" fill="#E0E0E0"/>
<path d="M239.837 79.0434C239.837 79.1328 206.203 79.1923 164.696 79.1923C123.189 79.1923 89.5256 79.1328 89.5256 79.0434C89.5256 78.9541 123.189 78.8945 164.696 78.8945C206.203 78.8945 239.837 78.9541 239.837 79.0434Z" fill="#E0E0E0"/>
<path d="M239.837 95.689C239.837 95.7784 206.203 95.8379 164.696 95.8379C123.189 95.8379 89.5256 95.7784 89.5256 95.689C89.5256 95.5997 123.189 95.5402 164.696 95.5402C206.203 95.5402 239.837 95.5997 239.837 95.689Z" fill="#E0E0E0"/>
<path d="M239.837 112.335C239.837 112.394 206.203 112.484 164.696 112.484C123.189 112.484 89.5256 112.394 89.5256 112.335C89.5256 112.245 123.189 112.156 164.696 112.156C206.203 112.156 239.837 112.245 239.837 112.335Z" fill="#E0E0E0"/>
<path d="M239.837 128.951C239.837 129.04 206.203 129.1 164.696 129.1C123.189 129.1 89.5256 129.04 89.5256 128.951C89.5256 128.861 123.189 128.802 164.696 128.802C206.203 128.802 239.837 128.861 239.837 128.951Z" fill="#E0E0E0"/>
<path d="M196.815 145.447H181.84V97.1184H196.815V145.447Z" fill="#455A64"/>
<path d="M225.07 145.447H210.096V81.1576H225.07V145.447Z" fill="#455A64"/>
<path d="M117.96 145.448H102.985V122.817H117.96V145.448Z" fill="#455A64"/>
<path d="M142.739 145.447H127.765V116.057H142.739V145.447Z" fill="#455A64"/>
<path d="M168.41 145.447H153.436V107.511H168.41V145.447Z" fill="#455A64"/>
<path d="M262.061 12.3714H73.1249C70.2726 12.3714 67.9551 10.0487 67.9551 7.19005V6.08828C67.9551 3.19985 70.2726 0.877197 73.1249 0.877197H262.061C264.914 0.877197 267.231 3.19985 267.231 6.08828V7.19005C267.231 10.0487 264.914 12.3714 262.061 12.3714Z" fill="#263238"/>
<path d="M241.204 145.448C241.204 145.448 240.966 145.448 240.52 145.448C240.065 145.448 239.391 145.457 238.5 145.477C236.717 145.477 234.103 145.477 230.715 145.507C223.971 145.507 214.196 145.537 202.133 145.537C178.007 145.567 144.641 145.567 107.828 145.596C101.44 145.596 95.1709 145.596 89.1989 145.596H89.0503V145.448C89.0503 112.901 89.08 84.1354 89.08 63.5293C89.1097 53.2263 89.1097 44.9481 89.1394 39.2308C89.1394 36.4019 89.1691 34.1984 89.1691 32.7095C89.1691 31.9551 89.1691 31.3894 89.1691 31.0122C89.189 30.6151 89.1989 30.4166 89.1989 30.4166C89.1989 30.4166 89.1989 30.6151 89.1989 31.0122C89.1989 31.3894 89.2088 31.9551 89.2286 32.7095C89.2286 34.1984 89.2286 36.4019 89.2583 39.2308C89.2583 44.9481 89.2583 53.2263 89.288 63.5293C89.3177 84.1354 89.3177 112.901 89.3474 145.448L89.1989 145.269C95.1709 145.269 101.44 145.269 107.828 145.269C144.641 145.299 178.007 145.328 202.133 145.328C214.196 145.358 223.971 145.358 230.715 145.388C234.103 145.388 236.717 145.388 238.5 145.418C239.391 145.418 240.065 145.418 240.52 145.418C240.966 145.418 241.204 145.448 241.204 145.448Z" fill="#263238"/>
<path d="M188.822 93.3069C188.842 93.3069 188.763 93.3863 188.584 93.5451C188.426 93.7039 188.188 93.9322 187.871 94.23C187.218 94.7958 186.267 95.6593 185.078 96.7611C182.612 98.9944 179.077 102.181 174.709 106.141C165.885 114.062 153.733 124.99 140.244 137.14L140.125 137.229L140.006 137.14C139.62 136.693 139.174 136.246 138.728 135.8C132.727 129.636 126.992 123.769 121.763 118.409H121.971C112.374 126.568 104.203 133.566 98.4096 138.509C95.5276 140.951 93.2101 142.887 91.6353 144.256C90.843 144.911 90.2389 145.418 89.8229 145.775C89.6249 145.934 89.4664 146.063 89.3475 146.162C89.2485 146.242 89.199 146.281 89.199 146.281C89.199 146.281 89.2485 146.232 89.3475 146.132C89.4466 146.033 89.5951 145.894 89.7932 145.715C90.2092 145.358 90.8034 144.842 91.5759 144.167C93.1506 142.827 95.4087 140.832 98.2907 138.36C104.055 133.388 112.226 126.39 121.793 118.201L121.882 118.112L121.971 118.201C127.2 123.561 132.935 129.427 138.936 135.591C139.382 136.038 139.828 136.484 140.244 136.901H140.036C153.554 124.782 165.736 113.883 174.561 105.992C178.958 102.062 182.523 98.8753 184.989 96.6718C186.207 95.5998 187.188 94.766 187.842 94.1704C188.159 93.8925 188.406 93.6741 188.584 93.5153C188.743 93.3764 188.822 93.3069 188.822 93.3069Z" fill="#FF725E"/>
<path d="M207.778 92.5625C205.015 96.7909 199.994 99.6793 194.972 99.2326C192.952 99.054 190.842 98.3691 188.941 99.0242C186.891 99.7389 185.584 101.794 183.682 102.806C180.8 104.384 176.7 102.895 175.482 99.8282C174.263 96.7909 176.195 92.8602 179.344 91.9967C177.621 89.8527 177.413 86.6069 178.898 84.2843C180.384 81.9616 183.444 80.7705 186.089 81.4852C184.96 77.5248 186.742 71.3013 192.536 70.7653L210.571 78.0012C211.314 83.0039 210.571 88.3638 207.778 92.5625Z" fill="#EBEBEB"/>
<path d="M207.451 77.1972C204.153 82.17 198.954 85.8327 193.219 87.3811C191.734 87.7682 190.605 86.1007 191.466 84.85C192.833 82.9145 194.319 81.0385 195.953 79.2816L195.923 79.3114C194.675 79.6092 193.754 78.1798 194.556 77.1972C195.775 75.6785 197.32 74.4279 199.013 73.5048L207.451 77.1972Z" fill="#FF725E"/>
<g opacity="0.3">
<path d="M202.549 78.8052C201.598 80.6812 199.667 82.0211 197.587 82.2594C197.141 82.2891 196.577 82.2296 196.428 81.7829C196.309 81.3958 196.636 81.0385 196.963 80.7705C197.379 80.3933 197.795 80.0261 198.211 79.6687C198.597 79.3114 199.043 78.8052 198.805 78.3287C198.597 77.8821 197.914 77.8225 197.676 77.4056C197.498 77.1078 197.617 76.7207 197.825 76.4825C198.033 76.2145 198.33 76.0359 198.627 75.887L202.549 78.8052Z" fill="black"/>
</g>
<path d="M227.269 68.6212C227.289 68.6411 227.299 68.6808 227.299 68.7403C228.665 76.0656 226.615 83.5696 221.772 89.1975L218.742 92.7411L215.919 81.8127L227.269 68.6212Z" fill="#FF725E"/>
<path d="M227.239 68.6808C227.2 68.7205 227.14 68.79 227.061 68.8892C226.922 69.048 226.714 69.2862 226.437 69.6039C225.902 70.259 225.1 71.1821 224.09 72.3434C222.099 74.6958 219.276 78.0012 215.978 81.8722V81.8127C216.781 84.8798 217.642 88.2447 218.534 91.7584C218.623 92.086 218.712 92.4135 218.801 92.7113H218.682C219.276 91.9966 219.871 91.3018 220.465 90.6269C221.059 89.942 221.653 89.2571 222.188 88.5722C223.288 87.2322 224.179 85.8029 224.922 84.4033C225.664 82.974 226.199 81.5745 226.615 80.2047C226.853 79.5198 226.972 78.8647 227.12 78.2096C227.239 77.5843 227.388 76.9589 227.447 76.3634C227.774 73.9812 227.685 72.0159 227.536 70.6759C227.507 70.0208 227.388 69.5145 227.358 69.1572C227.299 68.8297 227.299 68.6808 227.269 68.6212C227.269 68.6212 227.279 68.6609 227.299 68.7403C227.318 68.8396 227.348 68.9785 227.388 69.1572C227.447 69.4848 227.536 69.991 227.596 70.6759C227.744 72.0159 227.863 73.9812 227.536 76.3634C227.477 76.9887 227.358 77.5843 227.239 78.2394C227.091 78.8945 226.942 79.5496 226.734 80.2345C226.318 81.6043 225.783 83.0336 225.041 84.4629C224.298 85.8922 223.377 87.3215 222.277 88.6615C221.743 89.3464 221.148 90.0015 220.584 90.7162C219.99 91.3912 219.385 92.086 218.771 92.8006L218.682 92.89L218.653 92.7709C218.593 92.4433 218.504 92.1157 218.415 91.7882C217.494 88.2744 216.632 84.9096 215.86 81.8425V81.8127V81.7829C219.217 77.9118 222.069 74.6065 224.09 72.2839C225.1 71.1225 225.902 70.1994 226.437 69.5741C226.714 69.2565 226.922 69.0182 227.061 68.8594C227.14 68.78 227.2 68.7205 227.239 68.6808Z" fill="#263238"/>
<path d="M196.101 64.363L185.049 63.2017L188.049 59.7177C192.833 54.179 199.845 51.0822 207.154 51.3502C207.233 51.3502 207.283 51.3502 207.303 51.3502L196.101 64.363Z" fill="#FF725E"/>
<path d="M207.243 51.4097C207.204 51.4494 207.154 51.509 207.095 51.5884C206.956 51.7472 206.758 51.9854 206.5 52.303C205.966 52.9284 205.163 53.8515 204.183 54.983C202.222 57.3057 199.429 60.5812 196.131 64.4225L196.101 64.4523L196.072 64.4225C192.982 64.1247 189.595 63.7674 186.029 63.3803C185.673 63.3505 185.346 63.3207 185.049 63.291L184.9 63.2612L184.989 63.1718C185.584 62.477 186.178 61.7922 186.772 61.1172C187.336 60.4323 187.901 59.7772 188.495 59.1221C189.654 57.8714 190.932 56.7697 192.209 55.8466C193.487 54.8937 194.794 54.179 196.072 53.5835C196.696 53.2559 197.32 53.0177 197.914 52.7795C198.538 52.571 199.132 52.3626 199.697 52.2137C201.984 51.5586 203.916 51.3799 205.253 51.3204C205.906 51.2906 206.411 51.3204 206.768 51.3204C206.926 51.3204 207.055 51.3204 207.154 51.3204C207.253 51.3402 207.303 51.3501 207.303 51.3501C207.214 51.3501 207.065 51.3501 206.768 51.3501C206.411 51.3501 205.906 51.3204 205.253 51.3799C203.916 51.4395 202.014 51.6479 199.726 52.303C199.162 52.4519 198.568 52.6901 197.973 52.8986C197.379 53.1368 196.725 53.375 196.101 53.6728C194.854 54.2683 193.546 55.0128 192.269 55.9359C190.991 56.859 189.743 57.9608 188.584 59.2412C188.02 59.8665 187.455 60.5216 186.861 61.2065C186.287 61.8815 185.702 62.5664 185.108 63.2612L185.049 63.1421C185.376 63.1719 185.702 63.2016 186.029 63.2612C189.595 63.6185 193.011 63.9758 196.101 64.3034L196.042 64.3332C199.34 60.5216 202.133 57.3057 204.124 55.0128C205.104 53.8515 205.906 52.9284 206.441 52.303C206.718 52.0052 206.926 51.767 207.065 51.5884C207.144 51.509 207.204 51.4494 207.243 51.4097Z" fill="#263238"/>
<path d="M244.799 42.5658C243.491 46.0795 241.828 49.3551 240.372 51.9159C238.648 54.9235 236.658 57.7226 234.4 60.343L211.403 87.0833L203.648 80.3833L199.162 76.5122L191.407 69.8123L216.751 40.3325C216.751 40.3325 221.98 34.5854 230.418 30.1187C239.005 25.6223 245.452 24.0441 247.027 25.4139C248.632 26.7539 248.186 33.4836 244.799 42.5658Z" fill="#F5F5F5"/>
<path d="M195.418 65.1376L215.325 82.1108L195.418 65.1376Z" fill="#F5F5F5"/>
<path d="M215.325 82.1104C215.295 82.1401 210.809 78.3584 205.312 73.6833C199.845 69.0082 195.388 65.1669 195.418 65.1371C195.448 65.1074 199.934 68.8891 205.401 73.5642C210.898 78.2691 215.325 82.0806 215.325 82.1104Z" fill="#263238"/>
<path d="M194.556 65.9714L214.463 82.9447L194.556 65.9714Z" fill="#F5F5F5"/>
<path d="M214.463 82.9442C214.433 82.974 209.947 79.1923 204.48 74.4874C198.983 69.8123 194.556 66.0008 194.556 65.971C194.586 65.9412 199.073 69.6932 204.569 74.3981C210.036 79.0731 214.493 82.9145 214.463 82.9442Z" fill="#263238"/>
<path d="M193.784 66.9243L213.661 83.8976L193.784 66.9243Z" fill="#F5F5F5"/>
<path d="M213.661 83.8971C213.631 83.9269 209.174 80.1451 203.678 75.4701C198.181 70.7652 193.754 66.9537 193.784 66.9239C193.784 66.8941 198.27 70.6759 203.767 75.3509C209.264 80.026 213.691 83.8673 213.661 83.8971Z" fill="#263238"/>
<path d="M192.982 67.8772L212.859 84.8504L192.982 67.8772Z" fill="#F5F5F5"/>
<path d="M212.859 84.85C212.829 84.8798 208.372 81.098 202.876 76.4229C197.379 71.7181 192.952 67.9065 192.982 67.8768C193.011 67.847 197.468 71.6287 202.965 76.3038C208.461 81.0087 212.888 84.8202 212.859 84.85Z" fill="#263238"/>
<path d="M192.18 68.8301L212.057 85.8033L192.18 68.8301Z" fill="#F5F5F5"/>
<path d="M212.057 85.8029C212.057 85.8327 207.57 82.0509 202.074 77.3758C196.577 72.671 192.15 68.8594 192.18 68.8296C192.209 68.7999 196.666 72.5816 202.163 77.2567C207.659 81.9616 212.086 85.7731 212.057 85.8029Z" fill="#263238"/>
<path d="M217.316 60.0452C217.316 60.0452 217.286 60.0948 217.226 60.1941C217.137 60.2834 217.018 60.4323 216.9 60.6109C216.602 60.9683 216.187 61.4745 215.652 62.0998C214.612 63.3505 213.126 65.0478 211.462 66.9238C209.828 68.7998 208.313 70.4971 207.243 71.718C206.679 72.3135 206.263 72.8198 205.936 73.1473C205.778 73.3061 205.659 73.4352 205.579 73.5344C205.5 73.6337 205.451 73.6833 205.431 73.6833C205.431 73.6635 205.471 73.6138 205.55 73.5344C205.649 73.4153 205.768 73.2764 205.906 73.1175C206.203 72.7602 206.619 72.254 207.154 71.6584C208.254 70.4078 209.739 68.7105 211.373 66.8345C213.007 64.9883 214.493 63.2909 215.592 62.0403C216.097 61.4447 216.543 60.9385 216.84 60.5812C216.989 60.4025 217.108 60.2834 217.197 60.1643C217.256 60.0849 217.296 60.0452 217.316 60.0452Z" fill="#263238"/>
<path d="M227.269 68.6212C227.269 68.651 222.783 64.8394 217.316 60.1048C211.849 55.3999 207.422 51.5289 207.451 51.4991C207.481 51.4693 211.938 55.2808 217.405 60.0155C222.901 64.7203 227.299 68.5914 227.269 68.6212Z" fill="#263238"/>
<path d="M210.541 71.1522C210.541 71.1224 210.63 71.1224 210.749 71.1522C210.868 71.182 211.046 71.3011 211.195 71.4798C211.314 71.6584 211.403 71.986 211.254 72.2838C211.135 72.5815 210.809 72.8198 210.452 72.8198C210.066 72.79 209.769 72.4922 209.68 72.1944C209.561 71.8967 209.68 71.5989 209.828 71.4202C209.977 71.2415 210.155 71.1522 210.304 71.1224C210.422 71.1224 210.482 71.1224 210.482 71.1224C210.482 71.1522 210.422 71.1522 210.304 71.182C210.185 71.2118 210.036 71.3011 209.888 71.4798C209.769 71.6287 209.68 71.8967 209.798 72.1647C209.888 72.4029 210.125 72.6411 210.452 72.6709C210.749 72.6709 211.046 72.4624 211.135 72.2242C211.284 71.986 211.225 71.718 211.106 71.5393C210.987 71.3607 210.838 71.2415 210.72 71.2118C210.63 71.1522 210.541 71.1522 210.541 71.1522Z" fill="#263238"/>
<path d="M215.563 65.5243C215.563 65.5243 215.622 65.5243 215.741 65.5541C215.86 65.5839 216.038 65.6732 216.187 65.8817C216.335 66.0603 216.424 66.3879 216.276 66.6857C216.127 66.9537 215.83 67.2217 215.444 67.1919C215.058 67.1919 214.76 66.8941 214.671 66.5963C214.552 66.2986 214.671 65.971 214.82 65.8221C214.998 65.6435 215.176 65.5541 215.295 65.5243C215.414 65.4946 215.503 65.5243 215.503 65.5243C215.503 65.5541 215.414 65.5541 215.295 65.5839C215.206 65.6137 215.028 65.703 214.909 65.8817C214.79 66.0306 214.701 66.2986 214.79 66.5666C214.879 66.8048 215.147 67.043 215.444 67.0728C215.771 67.0728 216.038 66.8643 216.157 66.6261C216.276 66.3879 216.216 66.1199 216.097 65.9412C215.979 65.7626 215.83 65.6434 215.741 65.6137C215.622 65.5541 215.563 65.5541 215.563 65.5243Z" fill="#263238"/>
<g opacity="0.3">
<path d="M199.815 56.1146C201.866 54.1195 204.748 52.6307 207.303 51.3502C203.945 55.6382 196.369 64.0355 196.369 64.0355C196.458 61.1471 197.765 58.1395 199.815 56.1146Z" fill="black"/>
</g>
<path d="M191.704 90.9842C192.417 91.133 192.952 91.937 192.803 92.6517C192.655 93.3664 191.882 93.9024 191.169 93.7535C190.426 93.6344 189.892 92.8601 190.01 92.1455C190.129 91.4308 190.902 90.865 191.615 90.9544" fill="#FF725E"/>
<path d="M236.925 46.3476C236.42 50.2484 232.855 53.0177 228.962 52.5413C225.07 52.0351 222.277 48.4618 222.782 44.5609C223.258 40.66 226.823 37.8907 230.745 38.3672C234.637 38.8734 237.401 42.4169 236.925 46.3476Z" fill="white"/>
<path d="M236.925 46.3476C236.866 46.3476 236.985 45.7222 236.866 44.5907C236.717 43.4889 236.212 41.8512 234.756 40.4516C234.043 39.737 233.122 39.1116 231.993 38.7841C230.864 38.4565 229.586 38.3076 228.309 38.6352C227.655 38.7841 227.031 39.0223 226.437 39.3498C225.843 39.7072 225.278 40.1241 224.803 40.6601C223.793 41.6725 223.139 43.072 222.931 44.5907C222.753 46.0796 223.05 47.5982 223.763 48.8489C224.09 49.4742 224.535 50.04 225.04 50.5164C225.546 50.9929 226.08 51.38 226.675 51.6778C227.833 52.3031 229.111 52.5115 230.27 52.452C231.458 52.3924 232.498 52.0053 233.36 51.5289C235.113 50.5164 236.004 49.0573 236.42 48.0151C236.836 46.9729 236.866 46.3476 236.925 46.3476C236.925 46.3476 236.905 46.4965 236.866 46.7942C236.866 46.9431 236.836 47.1218 236.747 47.3302C236.717 47.5685 236.658 47.8067 236.539 48.0747C236.153 49.1169 235.261 50.6653 233.479 51.7075C232.587 52.2435 231.518 52.6307 230.299 52.6902C229.081 52.7795 227.744 52.5711 226.556 51.9458C225.932 51.6182 225.367 51.2311 224.832 50.7249C224.327 50.2484 223.852 49.6529 223.495 48.9978C222.753 47.7174 222.456 46.1094 222.634 44.5311C222.842 42.9827 223.525 41.5236 224.565 40.4516C225.07 39.8858 225.664 39.4392 226.288 39.1116C226.912 38.7543 227.566 38.4863 228.249 38.3672C229.586 38.0396 230.923 38.1885 232.052 38.5458C233.211 38.9032 234.192 39.5583 234.905 40.2729C236.39 41.7618 236.866 43.4591 236.985 44.5907C237.014 44.8587 237.014 45.1267 237.014 45.3351C237.014 45.5436 237.014 45.752 236.985 45.9009C236.945 46.1987 236.925 46.3476 236.925 46.3476Z" fill="#263238"/>
<path d="M244.799 42.5658L230.418 30.1187C239.005 25.6223 245.453 24.0441 247.027 25.4139C248.632 26.7539 248.186 33.4836 244.799 42.5658Z" fill="#FF725E"/>
<path d="M247.027 25.4139C247.027 25.3941 247.116 25.4834 247.295 25.6819C247.443 25.8606 247.592 26.2179 247.711 26.6646C247.978 27.5877 248.037 29.0468 247.859 30.8632C247.503 34.4961 246.225 39.7072 243.61 45.7818C242.244 48.7893 240.58 52.0351 238.411 55.3106C237.311 56.9484 236.064 58.5564 234.727 60.1644C233.36 61.7525 231.953 63.3903 230.507 65.0777C224.714 71.8074 218.326 79.2518 211.522 87.1727L211.403 87.2918L211.284 87.2024C208.075 84.4331 204.718 81.5149 201.301 78.5669C197.884 75.6189 194.527 72.7007 191.318 69.9314L191.199 69.8421L191.288 69.723C198.122 61.8021 204.54 54.328 210.333 47.628C211.779 45.9406 213.186 44.3028 214.552 42.7147C215.226 41.9206 215.899 41.1464 216.573 40.392C217.256 39.6178 217.969 38.9329 218.682 38.2778C221.594 35.6276 224.535 33.4836 227.358 31.7565C230.21 30.0592 232.884 28.749 235.261 27.7068C237.668 26.6646 239.778 25.9201 241.531 25.4735C243.313 24.997 244.71 24.8184 245.69 24.9077C245.928 24.9673 246.136 24.9672 246.314 25.0268C246.463 25.0864 246.611 25.1161 246.73 25.1757C246.928 25.3147 247.027 25.3941 247.027 25.4139C247.027 25.4139 246.928 25.3444 246.73 25.2055C246.611 25.1459 246.463 25.1161 246.284 25.0566C246.106 25.0268 245.898 25.0268 245.69 24.9672C244.739 24.9077 243.313 25.0864 241.56 25.5628C239.807 26.0392 237.698 26.8135 235.321 27.8557C232.944 28.8979 230.27 30.2379 227.477 31.9352C224.654 33.6623 221.713 35.8063 218.861 38.4565C218.147 39.1116 217.405 39.7965 216.751 40.5409C216.097 41.3151 215.424 42.0993 214.731 42.8934C213.364 44.4815 211.958 46.1193 210.512 47.8067C204.747 54.5364 198.33 61.9808 191.526 69.9016L191.496 69.6932C194.705 72.4625 198.092 75.3807 201.509 78.3287C204.926 81.2767 208.283 84.1949 211.492 86.9642L211.284 86.994C218.088 79.0731 224.506 71.6287 230.299 64.899C231.745 63.2116 233.152 61.5738 234.519 59.9857C235.885 58.4075 237.103 56.7995 238.203 55.1617C240.372 51.9458 242.065 48.7 243.402 45.6925C246.047 39.6476 247.354 34.4663 247.74 30.8334C247.948 29.017 247.889 27.6175 247.681 26.6944C247.562 26.2179 247.384 25.8904 247.265 25.6819C247.106 25.5032 247.027 25.4139 247.027 25.4139Z" fill="#263238"/>
<path d="M230.418 50.7546C230.389 50.7546 230.3 50.2186 230.24 49.3253C230.151 48.4617 230.121 47.2111 230.092 45.8711C230.062 44.5906 230.032 43.3995 230.032 42.4169C230.003 41.5235 230.002 40.9578 230.062 40.9578C230.092 40.9578 230.181 41.5235 230.24 42.3871C230.3 43.2804 230.359 44.5013 230.389 45.8711C230.418 47.1515 230.448 48.3128 230.448 49.3253C230.478 50.2186 230.478 50.7546 230.418 50.7546Z" fill="#263238"/>
<path d="M228.844 49.3849C228.755 49.4147 228.606 48.0151 228.517 46.2582C228.398 44.5311 228.398 43.1018 228.487 43.1018C228.576 43.1018 228.725 44.5014 228.814 46.2582C228.903 47.9853 228.933 49.3849 228.844 49.3849Z" fill="#263238"/>
<path d="M200.35 111.68C200.231 114.181 198.3 116.444 195.864 116.95C194.646 117.189 193.338 117.01 192.298 116.355C191.258 115.67 190.516 114.509 190.486 113.288C190.456 112.037 191.199 110.786 192.358 110.31C191.674 109.327 191.793 107.868 192.595 106.975C193.398 106.082 194.972 105.546 196.369 106.022C198.746 106.766 200.469 109.208 200.35 111.68Z" fill="#EBEBEB"/>
<path d="M170.371 101.526C170.371 103.312 168.915 104.742 167.162 104.742C165.38 104.742 163.953 103.312 163.953 101.526C163.953 99.7687 165.38 98.3096 167.162 98.3096C168.915 98.3096 170.371 99.7687 170.371 101.526Z" fill="#EBEBEB"/>
<path d="M96.6269 39.1712C96.6269 39.2606 94.963 39.3201 92.9129 39.3201C90.8628 39.3201 89.199 39.2606 89.199 39.1712C89.199 39.0819 90.8628 39.0223 92.9129 39.0223C94.963 39.0223 96.6269 39.0819 96.6269 39.1712Z" fill="#263238"/>
<path d="M96.6269 54.9831C96.6269 55.0724 94.963 55.1618 92.9129 55.1618C90.8628 55.1618 89.199 55.0724 89.199 54.9831C89.199 54.8938 90.8628 54.8342 92.9129 54.8342C94.963 54.8342 96.6269 54.8938 96.6269 54.9831Z" fill="#263238"/>
<path d="M96.6269 70.8248C96.6269 70.9141 94.963 70.9737 92.9129 70.9737C90.8628 70.9737 89.199 70.9141 89.199 70.8248C89.199 70.7355 90.8628 70.6759 92.9129 70.6759C94.963 70.6759 96.6269 70.7355 96.6269 70.8248Z" fill="#263238"/>
<path d="M96.6269 86.6367C96.6269 86.726 94.963 86.7856 92.9129 86.7856C90.8628 86.7856 89.199 86.726 89.199 86.6367C89.199 86.5473 90.8628 86.4878 92.9129 86.4878C94.963 86.4878 96.6269 86.5473 96.6269 86.6367Z" fill="#263238"/>
<path d="M96.6269 102.478C96.6269 102.568 94.963 102.627 92.9129 102.627C90.8628 102.627 89.199 102.568 89.199 102.478C89.199 102.389 90.8628 102.329 92.9129 102.329C94.963 102.329 96.6269 102.389 96.6269 102.478Z" fill="#263238"/>
<path d="M96.6269 118.29C96.6269 118.38 94.963 118.439 92.9129 118.439C90.8628 118.439 89.199 118.38 89.199 118.29C89.199 118.201 90.8628 118.141 92.9129 118.141C94.963 118.141 96.6269 118.201 96.6269 118.29Z" fill="#263238"/>
<path d="M124.942 128.831L127.586 127.194C127.586 127.194 131.063 124.097 132.014 123.442C132.964 122.757 136.619 121.119 137.124 121.149C137.659 121.179 142.68 120.881 143.868 120.315C145.057 119.749 146.335 119.035 146.335 119.035C146.335 119.035 147.196 119.958 146.483 121.179C145.77 122.429 142.086 124.752 142.086 124.752L143.453 133.745C143.453 133.745 140.036 136.455 137.926 136.633C135.787 136.812 133.737 136.395 133.143 136.574C132.548 136.752 131.033 137.288 131.033 137.288L124.942 128.831Z" fill="#FFBF9D"/>
<path d="M134.45 129.427L157.744 113.943L159.081 115.878L135.995 131.303L134.45 129.427Z" fill="#263238"/>
<path d="M147.553 124.841C147.553 124.841 149.335 125.586 148.385 127.194C147.434 128.832 146.216 128.325 146.216 128.325C146.216 128.325 146.661 130.082 144.641 131.035C144.641 131.035 144.879 132.732 143.453 133.745L142.324 134.34L141.61 132.941C141.61 132.941 137.332 132.554 136.708 130.856L136.678 129.963C136.678 129.963 135.846 129.546 135.965 128.712C136.114 127.879 136.054 127.879 137.659 127.313C139.263 126.777 142.68 127.134 142.68 127.134C142.68 127.134 140.838 126.449 140.868 125.496C140.897 124.544 141.64 123.948 143.601 124.067C145.562 124.216 147.553 124.841 147.553 124.841Z" fill="#FFBF9D"/>
<path d="M147.553 124.841C147.523 124.871 147.285 124.812 146.84 124.692C146.364 124.573 145.711 124.424 144.849 124.305C144.403 124.246 143.928 124.186 143.393 124.156C142.888 124.156 142.294 124.156 141.759 124.395C141.492 124.484 141.254 124.692 141.135 124.96C141.016 125.199 140.957 125.556 141.076 125.824C141.224 126.092 141.492 126.33 141.759 126.509C142.056 126.717 142.383 126.866 142.71 127.015L143.542 127.343L142.65 127.283C141.373 127.164 139.947 127.075 138.461 127.283C138.104 127.343 137.748 127.432 137.391 127.581C137.035 127.7 136.649 127.819 136.381 128.028C136.262 128.117 136.203 128.266 136.173 128.444L136.114 128.742C136.114 128.841 136.114 128.931 136.114 129.01C136.173 129.338 136.441 129.665 136.738 129.814L136.827 129.874V129.963C136.827 130.231 136.857 130.529 136.857 130.856V130.797C136.876 130.856 136.906 130.926 136.946 131.005C137.154 131.333 137.54 131.601 137.926 131.809C138.283 132.018 138.699 132.167 139.115 132.286C139.947 132.554 140.808 132.703 141.61 132.792H141.7L141.729 132.881C141.987 133.358 142.234 133.824 142.472 134.281L142.264 134.221C142.66 134.023 143.037 133.824 143.393 133.626C144.255 133.03 144.582 131.958 144.522 131.065L144.492 130.975L144.582 130.916C145.116 130.678 145.592 130.291 145.859 129.814C146.127 129.367 146.186 128.802 146.127 128.355L146.067 128.176L146.245 128.236C146.632 128.355 147.048 128.296 147.374 128.117C147.701 127.968 147.939 127.7 148.147 127.432C148.325 127.164 148.474 126.896 148.533 126.628C148.622 126.33 148.593 126.092 148.503 125.884C148.355 125.437 148.058 125.199 147.85 125.05C147.642 124.901 147.523 124.871 147.553 124.841C147.553 124.841 147.672 124.871 147.88 125.02C148.088 125.139 148.444 125.348 148.622 125.824C148.711 126.062 148.741 126.36 148.682 126.658C148.622 126.956 148.474 127.253 148.266 127.521C148.058 127.819 147.82 128.117 147.464 128.296C147.077 128.504 146.632 128.593 146.186 128.415L146.335 128.296C146.424 128.832 146.364 129.427 146.067 129.933C145.77 130.469 145.265 130.886 144.7 131.154L144.76 131.035C144.819 131.541 144.76 132.047 144.552 132.554C144.374 133.06 144.017 133.536 143.542 133.864V133.894C143.165 134.072 142.789 134.261 142.413 134.459L142.264 134.549L142.205 134.4C141.967 133.943 141.729 133.477 141.492 133L141.61 133.09C140.749 133 139.887 132.851 139.025 132.583C138.61 132.464 138.164 132.315 137.778 132.077C137.362 131.869 136.946 131.571 136.678 131.154C136.639 131.075 136.599 130.995 136.559 130.916V130.886V130.856C136.53 130.559 136.53 130.261 136.53 129.963L136.589 130.112C136.203 129.874 135.876 129.516 135.817 129.04C135.797 128.921 135.797 128.812 135.817 128.712L135.876 128.385C135.906 128.206 135.995 127.938 136.173 127.789C136.559 127.521 136.916 127.432 137.302 127.283C137.659 127.164 138.045 127.045 138.431 126.985C139.947 126.777 141.373 126.896 142.68 127.015L142.621 127.253C142.264 127.114 141.927 126.936 141.61 126.717C141.313 126.509 141.016 126.271 140.868 125.913C140.541 125.169 141.046 124.395 141.67 124.186C142.264 123.948 142.888 123.948 143.393 123.978C143.928 124.008 144.433 124.067 144.849 124.156C145.74 124.305 146.394 124.484 146.84 124.603C147.077 124.682 147.256 124.742 147.374 124.782C147.493 124.821 147.553 124.841 147.553 124.841Z" fill="#FF9A6C"/>
<path d="M144.136 131.095C144.106 131.184 142.561 130.291 140.481 129.993C138.372 129.665 136.648 130.052 136.648 129.933C136.619 129.903 137.035 129.755 137.748 129.665C138.461 129.576 139.441 129.516 140.511 129.695C141.581 129.844 142.531 130.171 143.155 130.499C143.809 130.797 144.166 131.065 144.136 131.095Z" fill="#FF9A6C"/>
<path d="M146.156 128.444C146.097 128.504 145.324 127.998 144.195 127.7C143.096 127.372 142.145 127.313 142.145 127.224C142.145 127.134 143.126 127.045 144.285 127.402C145.443 127.7 146.216 128.385 146.156 128.444Z" fill="#FF9A6C"/>
<path d="M44.4533 37.9801C45.1961 36.4912 46.9491 35.5979 48.5832 35.8659C50.455 34.2877 53.4262 34.2877 55.3277 35.8361C56.7539 34.9725 58.6257 34.8832 60.1113 35.6574C61.5969 36.4316 62.6368 38.0099 62.7556 39.6774C64.4195 39.3796 66.2319 40.2432 67.0341 41.7321C67.866 43.2209 67.5986 45.2458 66.4399 46.4667C68.282 47.0325 69.5002 49.0871 69.1436 50.9631C68.7871 52.8689 66.8559 54.2982 64.9543 54.1195L45.2852 42.5361C44.0967 41.4045 43.7402 39.469 44.4533 37.9801Z" fill="#263238"/>
<path d="M67.1828 75.8572C67.2422 84.7905 58.3584 86.3687 58.3584 86.3687L58.299 94.7362L54.2879 112.752L38.3328 92.7411L36.9958 88.87L35.0051 57.9907C34.0246 48.7596 38.5705 40.4814 47.8108 39.737H48.6724C57.3185 39.5583 64.6573 46.0499 65.5189 54.6556C66.3509 62.6955 67.1234 71.5395 67.1828 75.8572Z" fill="#FFBF9D"/>
<path d="M58.3584 88.5722C49.5637 89.5251 46.7114 83.1527 46.7114 83.1527C52.7726 86.7856 58.3584 86.3687 58.3584 86.3687V88.5722Z" fill="#FF9A6C"/>
<path d="M63.1124 62.9934C63.1718 63.6485 62.6073 64.244 61.9239 64.3036C61.2108 64.3334 60.6166 63.8271 60.5869 63.172C60.5572 62.4871 61.092 61.9214 61.7753 61.8618C62.4884 61.8023 63.0827 62.3085 63.1124 62.9934Z" fill="#263238"/>
<path d="M63.8253 59.5093C63.6471 59.688 62.6963 59.0031 61.3296 59.0329C59.9628 59.0329 58.9526 59.7773 58.8041 59.5986C58.7446 59.5391 58.8932 59.2115 59.3092 58.884C59.7548 58.5564 60.4679 58.2587 61.3296 58.2289C62.1615 58.2289 62.9043 58.5267 63.3202 58.8244C63.7362 59.152 63.8848 59.4498 63.8253 59.5093Z" fill="#263238"/>
<path d="M51.4058 63.7973C51.4355 64.4822 50.9007 65.0778 50.2174 65.1075C49.5043 65.1671 48.91 64.6609 48.8803 64.0058C48.8506 63.3209 49.3854 62.7253 50.0688 62.6956C50.7819 62.636 51.3761 63.1422 51.4058 63.7973Z" fill="#263238"/>
<path d="M50.7225 59.5987C50.574 59.7773 49.5935 59.0627 48.2268 59.1222C46.86 59.1222 45.8795 59.8369 45.731 59.688C45.6419 59.5987 45.7904 59.3009 46.2361 58.9733C46.6521 58.6458 47.3948 58.3182 48.2268 58.3182C49.0884 58.2884 49.8015 58.5862 50.2174 58.9138C50.6631 59.2413 50.8117 59.5391 50.7225 59.5987Z" fill="#263238"/>
<path d="M55.4466 69.6633C55.4466 69.6037 56.2785 69.425 57.6453 69.2166C58.0018 69.1868 58.3287 69.0975 58.3881 68.8593C58.4475 68.5913 58.2989 68.2339 58.1207 67.8171C57.7839 66.9833 57.4274 66.1098 57.051 65.1966C55.5358 61.4149 54.4364 58.318 54.585 58.2584C54.7335 58.1989 56.0706 61.2064 57.5859 64.9584C57.9622 65.8914 58.3088 66.7848 58.6258 67.6384C58.7743 68.0255 59.012 68.4722 58.8337 69.0082C58.7446 69.2762 58.5069 69.4548 58.2692 69.5144C58.0612 69.6037 57.8533 69.6037 57.7047 69.6037C56.3083 69.7228 55.4466 69.7526 55.4466 69.6633Z" fill="#263238"/>
<path d="M51.4357 70.7058C51.6437 70.676 51.7031 72.1649 52.9807 73.2071C54.2583 74.2195 55.8628 74.0409 55.8628 74.2493C55.8925 74.3386 55.5359 74.5471 54.8526 74.5769C54.1989 74.6066 53.2481 74.428 52.4459 73.7729C51.6437 73.1475 51.3169 72.284 51.2574 71.6884C51.1683 71.0631 51.3466 70.7058 51.4357 70.7058Z" fill="#263238"/>
<path d="M50.6632 55.6978C50.5146 56.0551 49.3261 55.7573 47.9 55.7871C46.4738 55.8169 45.2854 56.1742 45.1071 55.8169C45.0477 55.668 45.2854 55.3404 45.7905 55.0129C46.2658 54.7151 47.0383 54.4471 47.9 54.4173C48.7616 54.3875 49.5044 54.6258 50.0095 54.8938C50.4849 55.1915 50.7226 55.5191 50.6632 55.6978Z" fill="#263238"/>
<path d="M63.4391 55.7574C63.2312 56.1147 62.2507 55.8765 61.1216 55.9658C59.9926 56.0552 59.0715 56.4125 58.8041 56.1147C58.6853 55.9658 58.8041 55.6383 59.1904 55.2809C59.5766 54.9534 60.2303 54.6556 61.0325 54.596C61.805 54.5365 62.4884 54.7449 62.934 55.0129C63.35 55.3107 63.5283 55.6085 63.4391 55.7574Z" fill="#263238"/>
<path d="M64.5979 50.6059C64.5979 50.6059 62.1318 45.0672 59.4281 43.8166C56.1301 42.2979 54.793 45.901 51.6733 45.097C48.5536 44.293 45.4339 42.8339 42.3141 45.3054C38.8973 48.0152 40.5612 49.8316 40.4126 53.792C39.8778 69.8422 37.0552 74.4577 36.0747 66.924C35.9559 66.0902 33.6383 65.4649 33.2521 61.9809C32.7173 57.4547 32.4202 51.9458 33.3709 48.7001C34.1434 45.9903 35.6587 44.0548 38.3922 41.9406C42.7004 38.6055 48.7021 38.397 52.7726 38.7246C56.8729 39.0521 64.8059 43.5783 64.5979 50.6059Z" fill="#263238"/>
<path d="M37.0255 73.3261C37.0255 73.5048 30.994 75.083 30.6672 68.9786C30.4889 65.5542 32.3013 64.5715 33.9652 64.3631C35.3319 64.2142 36.5501 65.2862 36.6392 66.656C36.7878 69.2168 37.0255 73.207 37.0255 73.3261Z" fill="#FFBF9D"/>
<path d="M35.3913 71.4203C35.213 71.5692 34.8862 71.7181 34.4405 71.6288C33.5492 71.4203 32.8658 70.2888 32.747 69.0679C32.7173 68.4426 32.8064 67.847 33.0441 67.3408C33.2224 66.8644 33.6086 66.4177 34.084 66.3582C34.3217 66.3284 34.5297 66.3582 34.6782 66.4773C34.8268 66.5964 34.9159 66.7155 34.9456 66.8346C35.0051 67.1026 34.8862 67.2217 34.8862 67.1919C34.8565 67.1919 34.8862 67.0728 34.7971 66.8941C34.7079 66.7453 34.4702 66.5666 34.1434 66.6559C33.8166 66.7155 33.5492 67.043 33.4006 67.4897C33.2224 67.9661 33.1332 68.4724 33.1926 69.0381C33.2521 70.1399 33.8463 71.1226 34.5297 71.331C34.8268 71.4203 35.1239 71.3608 35.3022 71.2715C35.4804 71.1821 35.5696 71.0928 35.5696 71.0928C35.5993 71.1226 35.5696 71.2417 35.3913 71.4203Z" fill="#FF9A6C"/>
<path d="M36.8175 54.6556C36.2233 55.5787 34.8862 55.936 33.9355 55.4C32.955 54.864 32.539 53.5538 33.0144 52.5711C31.7962 52.9285 30.5483 51.6778 30.5483 50.4271C30.5483 49.1467 31.4397 48.0449 32.539 47.3898C31.7665 46.0796 31.8557 44.2929 32.7767 43.0721C33.6681 41.8214 35.3616 41.2258 36.8472 41.5832C37.4712 39.9454 38.8973 38.665 40.5909 38.2481C42.2844 37.8312 44.1563 38.2779 45.4636 39.4094C46.4441 37.5632 48.5833 36.3721 50.6631 36.5508C52.7429 36.7294 54.6742 38.2481 55.2981 40.2432C56.9323 39.5583 59.0121 40.1836 59.9926 41.6427C60.2006 41.9703 60.3788 42.3872 60.2897 42.7445C60.1114 43.489 59.1607 43.6676 58.4179 43.5783C57.6751 43.4889 56.8729 43.2805 56.2489 43.6974C55.5953 44.1441 55.5061 45.0672 55.417 45.8712C55.2981 46.6454 54.9416 47.5983 54.1394 47.6876C53.6937 47.7471 53.248 47.4791 52.8024 47.4196C52.0001 47.3303 51.2574 47.896 50.7225 48.5214C50.2174 49.1467 49.8015 49.8614 49.1181 50.3378C48.4347 50.7845 47.3948 50.844 46.9195 50.1591C46.5035 51.8862 44.7208 53.1964 42.9381 53.0476C42.433 52.988 41.8091 52.8689 41.5119 53.2858C41.2148 53.6133 41.3337 54.1195 41.2742 54.5364C41.1257 55.4893 40.0561 56.0551 39.1053 55.9658C38.1545 55.9062 37.2929 55.3702 36.4907 54.8342" fill="#263238"/>
<path d="M33.1333 53.5836C33.371 53.8516 33.7573 54.0898 34.2327 54.1494C34.7081 54.1791 35.2726 54.0303 35.6885 53.6431L35.8371 53.4943L35.9559 53.6729C36.2531 54.1494 36.6393 54.6556 37.1444 55.0725C38.3626 56.2934 40.2344 55.7871 40.7989 54.9236C41.0961 54.4769 41.2446 54.0303 41.3338 53.7325C41.4229 53.4347 41.4823 53.2858 41.512 53.2858C41.512 53.2858 41.512 53.4645 41.4526 53.7623C41.3932 54.0898 41.304 54.5365 41.0069 55.0427C40.6801 55.5787 40.0264 55.9956 39.2539 56.0849C38.8974 56.1742 38.422 56.1742 38.0358 56.0254C37.6198 55.8765 37.2633 55.6383 36.9067 55.3405C36.3719 54.8938 35.9857 54.3578 35.6588 53.8516L35.9262 53.8814C35.4211 54.3578 34.7378 54.5067 34.203 54.4174C33.6384 54.328 33.2225 54.0303 32.9551 53.7325C32.45 53.0774 32.5391 52.5414 32.5688 52.5414C32.5985 52.5414 32.6282 53.0476 33.1333 53.5836Z" fill="#455A64"/>
<path d="M44.2454 38.4268C44.5425 38.5161 44.9585 38.7246 45.315 39.201H45.1665C45.7013 38.397 46.6223 37.325 48.0782 36.6104C48.821 36.253 49.6529 35.985 50.6037 35.9552C51.5248 35.9255 52.5052 36.1637 53.3669 36.6699C54.0503 37.0868 54.6148 37.593 55.0307 38.2183C55.4467 38.8139 55.7141 39.5286 55.7735 40.1837L55.5953 40.0646C56.6055 39.7668 57.5859 39.9752 58.3287 40.3921C59.1012 40.809 59.5469 41.4343 59.7846 42.0001C60.052 42.5659 60.1114 43.0423 60.1114 43.3699C60.1114 43.7272 60.052 43.8761 60.052 43.8761C59.9629 43.9059 60.1411 43.1614 59.636 42.0894C59.3686 41.5832 58.923 40.9877 58.2099 40.6303C57.5265 40.273 56.5757 40.0943 55.6844 40.3623L55.4764 40.4219V40.2432C55.3873 39.6179 55.1496 38.9628 54.7633 38.397C54.3474 37.861 53.8126 37.3548 53.1886 36.9677C52.3864 36.521 51.4653 36.2828 50.6037 36.2828C49.7421 36.3126 48.9101 36.5508 48.2268 36.8783C46.8006 37.5335 45.8795 38.5459 45.315 39.3201L45.2556 39.4392L45.1665 39.3201C44.8694 38.8735 44.4831 38.6352 44.2157 38.5459C43.9186 38.4268 43.77 38.397 43.77 38.397C43.77 38.3672 43.9483 38.3672 44.2454 38.4268Z" fill="#455A64"/>
<path d="M24.1604 224.656L24.3684 192.585L28.8845 180.883V177.726L79.7212 176.863V180.555L85.5744 195.087L85.8715 224.656H56.5164L54.0503 211.286L53.4858 224.656H24.1604Z" fill="#263238"/>
<path d="M36.8769 86.3984L47.484 94.7362L54.1988 103.282L56.6649 94.4086L58.4178 87.4407L61.2999 90.3291L68.6386 105.962L76.8688 181.538C76.8688 181.538 62.518 185.766 55.0604 186.273C47.6028 186.779 35.7479 184.754 35.7479 184.754V144.971L31.5288 105.605L36.6095 90.5078L36.8769 86.3984Z" fill="#F5F5F5"/>
<path d="M58.2989 185.766C58.2989 185.766 58.2989 185.697 58.2989 185.558C58.2791 185.399 58.2692 185.191 58.2692 184.933C58.2494 184.357 58.2197 183.563 58.18 182.55C58.0909 180.436 58.0018 177.429 57.8829 173.736C57.6155 166.292 57.1996 156.018 56.635 144.703C56.0408 133.358 55.3871 123.084 54.882 115.67C54.6146 111.977 54.4067 108.97 54.2581 106.885C54.1987 105.853 54.1492 105.049 54.1095 104.473C54.0897 104.215 54.0798 104.007 54.0798 103.848C54.0798 103.709 54.0798 103.64 54.0798 103.64C54.0798 103.64 54.0897 103.709 54.1095 103.848C54.1294 104.007 54.1492 104.215 54.169 104.473C54.2284 105.049 54.2977 105.843 54.377 106.856C54.5849 108.94 54.8226 111.948 55.09 115.64C55.6545 123.084 56.3379 133.328 56.9322 144.673C57.5264 156.018 57.8829 166.292 58.0909 173.736C58.2098 177.458 58.2692 180.466 58.2989 182.55C58.2989 183.563 58.3088 184.357 58.3286 184.933C58.3286 185.191 58.3286 185.399 58.3286 185.558C58.3286 185.697 58.3187 185.766 58.2989 185.766Z" fill="#263238"/>
<path d="M36.758 87.6193C36.758 87.6193 37.7088 108.166 37.8573 113.585C38.0059 119.035 39.6697 139.7 40.7097 152.237C41.2742 158.937 40.5017 168.823 39.6697 176.595C38.8378 184.277 36.9066 191.811 33.9057 198.958C32.4201 202.531 30.9642 205.836 30.4591 206.462C29.2707 207.98 15.5439 203.246 15.5439 203.246L26.864 157.686L23.8334 138.509L12.6619 104.325L32.7469 93.7237L35.213 90.329L36.758 87.6193Z" fill="#FF725E"/>
<path d="M59.844 88.3042L66.4994 92.2051L88.0403 99.2921L86.3171 114.568L85.3069 154.053L92.0811 201.459C92.0811 201.459 84.8612 204.05 82.0089 202.978C79.1268 201.936 75.2346 195.444 75.0564 191.513C74.9078 187.583 69.3517 149.527 69.3517 149.527L63.9145 98.3392L59.844 88.3042Z" fill="#FF725E"/>
<path d="M66.9154 92.1753C66.9154 92.1753 67.0046 92.2746 67.1828 92.4731C67.3611 92.7113 67.6087 93.019 67.9256 93.3962C68.5793 94.2299 69.5003 95.3913 70.6888 96.8802L70.7482 96.9397L70.6591 96.9993C69.9757 97.5353 69.1735 98.1308 68.3119 98.7859L68.2822 98.5775C69.1438 98.8455 70.0649 99.1433 71.0453 99.4708H71.1345V99.5899C71.075 104.473 71.0156 110.667 70.9265 117.367C70.8076 125.556 70.7185 132.971 70.6294 138.36C70.5699 141.011 70.5402 143.184 70.5105 144.703C70.4907 145.437 70.4709 146.013 70.4511 146.43C70.4511 146.609 70.4412 146.758 70.4214 146.877C70.4214 146.976 70.4214 147.026 70.4214 147.026C70.4016 147.026 70.3917 146.976 70.3917 146.877C70.3917 146.758 70.3917 146.609 70.3917 146.43C70.3917 146.013 70.3917 145.437 70.3917 144.703C70.3917 143.184 70.3917 141.011 70.4214 138.331C70.4511 132.941 70.5402 125.556 70.6294 117.367C70.7185 110.667 70.8076 104.473 70.8671 99.5601L70.9562 99.6792C70.0054 99.3815 69.0844 99.0837 68.2227 98.7859L68.0147 98.7264L68.193 98.6072C69.0546 97.9521 69.8569 97.3864 70.5402 96.8504V96.9695C69.3815 95.4806 68.4901 94.2895 67.8365 93.4557C67.5394 93.0587 67.3017 92.7411 67.1234 92.5028C66.9649 92.2845 66.8956 92.1753 66.9154 92.1753Z" fill="#263238"/>
<path d="M40.1153 145.745C40.0955 145.745 40.0757 145.696 40.0559 145.596C40.0163 145.477 39.9668 145.328 39.9074 145.15C39.7687 144.753 39.5805 144.197 39.3428 143.482C38.8674 141.993 38.1544 139.879 37.2333 137.288C36.7876 135.978 36.2825 134.549 35.718 133.03C35.1535 131.512 34.6484 129.844 34.173 128.057C33.2817 124.514 32.5983 120.553 32.0338 116.355C31.291 110.905 30.7859 105.784 30.4888 101.377V101.317L30.5482 101.257C31.3801 100.463 32.1724 99.6991 32.9251 98.9646V99.173C32.1328 98.5576 31.3801 97.9819 30.667 97.4459L30.5779 97.3864L30.667 97.297C32.3606 94.9744 33.7273 93.0984 34.7078 91.7882C35.1832 91.1529 35.5596 90.6566 35.8369 90.2993C35.9557 90.1405 36.0548 90.0115 36.134 89.9122C36.1934 89.8328 36.2231 89.7931 36.2231 89.7931C36.2231 89.7931 36.1934 89.8427 36.134 89.942C36.0746 90.0412 35.9854 90.1703 35.8666 90.3291C35.6091 90.7063 35.2525 91.2125 34.797 91.8477C33.8462 93.1877 32.5092 95.0935 30.8453 97.4162L30.8156 97.2673C31.5287 97.8033 32.2814 98.369 33.0737 98.9646L33.1925 99.0539L33.0737 99.1433C32.3408 99.8778 31.5584 100.652 30.7265 101.466L30.7562 101.347C31.083 105.754 31.5881 110.876 32.3309 116.325C32.9251 120.494 33.5788 124.454 34.4701 127.998C34.9059 129.765 35.4011 131.412 35.9557 132.941C36.4905 134.459 36.9956 135.889 37.4413 137.199C38.3326 139.819 39.016 141.963 39.4617 143.423C39.6994 144.167 39.8479 144.763 39.9668 145.15C40.0064 145.328 40.046 145.477 40.0856 145.596C40.1054 145.696 40.1153 145.745 40.1153 145.745Z" fill="#263238"/>
<path opacity="0.3" d="M23.7147 170.52L36.3421 166.411L39.9966 173.26L39.2836 179.573L35.3319 175.94L34.5297 178.56L22.853 173.945L23.7147 170.52Z" fill="black"/>
<path d="M63.1718 175.582C63.0232 175.94 62.7261 176.208 62.1615 176.089C60.8245 175.85 56.4569 174.153 56.4569 174.153C56.4569 174.153 56.2489 176.803 53.8423 177.131C53.8423 177.131 53.3075 179.364 51.2277 178.888C51.2277 178.888 49.1479 180.585 47.3354 179.632C45.4933 178.649 40.7692 176.714 39.7887 174.778C38.8082 172.813 37.5603 171.116 37.5603 171.116L33.2224 169.954L38.0951 159.502L38.2734 158.996C38.2734 158.996 48.1674 161.021 49.653 161.319C51.1682 161.646 57.0809 166.083 57.6454 166.411C58.2396 166.738 59.9629 167.81 59.9629 167.81C59.9629 167.81 58.8636 169.627 56.9026 168.972C54.9416 168.317 53.664 167.185 53.664 167.185L57.8237 170.967L62.5775 173.855C63.142 174.213 63.4392 174.957 63.1718 175.582Z" fill="#FFBF9D"/>
<path d="M56.457 174.153C56.3976 174.242 55.1497 173.736 53.6938 172.902C52.2082 172.098 51.1683 171.205 51.2278 171.145C51.2575 171.086 52.3568 171.86 53.8424 172.634C55.2983 173.438 56.4867 174.093 56.457 174.153Z" fill="#FF9A6C"/>
<path d="M48.7617 173.766C48.7914 173.706 50.0393 174.391 51.4952 175.404C52.9213 176.386 54.0801 177.19 54.0504 177.25C53.991 177.339 52.7431 176.654 51.3169 175.642C49.861 174.659 48.7023 173.855 48.7617 173.766Z" fill="#FF9A6C"/>
<path d="M46.8601 175.791C46.9195 175.731 47.8406 176.505 49.0587 177.339C50.2769 178.173 51.2574 178.888 51.2277 178.947C51.1683 179.007 50.1284 178.411 48.8805 177.577C47.6623 176.744 46.8006 175.85 46.8601 175.791Z" fill="#FF9A6C"/>
<path d="M48.0783 163.016C48.108 162.986 48.524 163.046 49.1479 163.254C49.7718 163.463 50.6038 163.91 51.4357 164.535C52.2379 165.16 52.8619 165.875 53.2481 166.381C53.6641 166.917 53.872 167.274 53.8423 167.304C53.7532 167.364 52.8024 166.024 51.2277 164.773C49.6827 163.522 48.0486 163.106 48.0783 163.016Z" fill="#FF9A6C"/>
<path d="M2.29252 161.617C1.04463 160.842 0.272125 159.473 0.212702 157.984C0.153279 156.644 0.212705 154.679 0.569245 151.79C1.40117 144.822 12.8104 104.325 12.8104 104.325L24.2494 135.889L20.3275 149.616L40.3531 159.234L34.7673 175.017C34.7673 175.017 8.14571 165.25 2.29252 161.617Z" fill="#FF725E"/>
<path d="M88.0403 99.2921L106.432 134.34L106.907 135.055L126.992 124.812L133.588 138.182L106.58 154.619C103.52 156.465 99.5387 155.572 97.548 152.594L85.6337 134.727L82.4248 120.077L88.0403 99.2921Z" fill="#FF725E"/>
<path d="M85.7228 109.297C85.7426 109.297 85.7625 109.446 85.7823 109.744C85.7823 110.062 85.7922 110.479 85.812 110.995C85.8417 112.126 85.8714 113.704 85.9011 115.67C85.9605 119.6 85.9605 125.02 85.9011 131.035C85.8417 137.05 85.7228 142.47 85.604 146.43C85.5446 148.366 85.4851 149.944 85.4257 151.075C85.4059 151.591 85.3861 152.008 85.3663 152.326C85.3465 152.624 85.3267 152.773 85.3069 152.773C85.3069 152.773 85.3069 152.624 85.3069 152.326C85.3069 152.008 85.3069 151.591 85.3069 151.075C85.3366 149.944 85.3663 148.366 85.396 146.4C85.4554 142.47 85.5446 137.05 85.604 131.035C85.6634 125.02 85.6634 119.6 85.6931 115.67C85.6931 113.704 85.6931 112.126 85.6931 110.995C85.6931 110.479 85.703 110.062 85.7228 109.744C85.7228 109.446 85.7228 109.297 85.7228 109.297Z" fill="#263238"/>
<path d="M17.2374 113.109C17.2572 113.089 17.2968 113.198 17.3563 113.437C17.4355 113.714 17.5444 114.062 17.6831 114.479C17.9208 115.402 18.307 116.712 18.7527 118.29C19.6441 121.506 20.8622 125.943 22.1101 130.886C23.358 135.829 24.3385 140.326 24.9624 143.631C25.2893 145.269 25.527 146.579 25.6458 147.502C25.725 147.939 25.7845 148.296 25.8241 148.574C25.8439 148.812 25.8538 148.941 25.8538 148.961C25.834 148.961 25.8043 148.832 25.7646 148.574C25.7052 148.316 25.626 147.969 25.527 147.532C25.3487 146.579 25.0813 145.269 24.7545 143.661C24.0711 140.385 23.0609 135.889 21.813 130.946C20.5651 126.032 19.3766 121.566 18.5447 118.35C18.1288 116.742 17.8019 115.461 17.5642 114.509C17.4454 114.092 17.3563 113.744 17.2968 113.466C17.2374 113.228 17.2176 113.109 17.2374 113.109Z" fill="#263238"/>
<path d="M8.948 164.862C8.948 164.862 8.98761 164.872 9.06684 164.892C9.16588 164.932 9.29463 164.982 9.45309 165.041C9.78982 165.16 10.2652 165.339 10.8793 165.577C12.1569 166.054 13.999 166.768 16.2868 167.632C20.8921 169.448 27.3395 171.979 34.8268 174.897L34.6486 174.987C35.8073 171.681 37.0552 168.108 38.3625 164.386C39.0162 162.629 39.6104 160.872 40.2046 159.205L40.2938 159.383C32.5985 155.661 25.7351 152.326 20.4761 149.795H20.5058C18.8123 149.259 17.2078 149.11 15.8114 149.259C14.4149 149.378 13.2562 149.765 12.3648 150.152C11.4438 150.539 10.7901 150.927 10.3444 151.195C10.1464 151.333 9.978 151.443 9.83935 151.522C9.74031 151.601 9.68088 151.641 9.66108 151.641C9.66108 151.641 9.7205 151.592 9.83935 151.492C9.95819 151.413 10.1166 151.304 10.3147 151.165C10.7604 150.867 11.3843 150.45 12.3054 150.033C13.2265 149.646 14.3852 149.229 15.8114 149.08C17.2078 148.931 18.842 149.051 20.5652 149.587C25.8242 152.118 32.7173 155.423 40.4126 159.115L40.5612 159.175L40.5018 159.294C39.9075 160.991 39.2836 162.718 38.6596 164.475C37.3523 168.198 36.0747 171.771 34.916 175.076L34.8565 175.225L34.7377 175.165C27.2504 172.188 20.8029 169.657 16.1976 167.81C13.9396 166.917 12.1271 166.173 10.8495 165.666C10.2553 165.408 9.77992 165.21 9.42338 165.071C9.28472 165.011 9.16588 164.962 9.06684 164.922C8.98761 164.882 8.948 164.862 8.948 164.862Z" fill="#263238"/>
<path d="M107.056 134.698C107.086 134.698 107.145 135.234 107.115 136.068C107.056 136.931 106.907 138.092 106.64 139.373C106.372 140.653 106.105 141.785 105.927 142.619C105.749 143.423 105.63 143.959 105.6 143.929C105.541 143.929 105.57 143.423 105.719 142.559C105.838 141.725 106.075 140.564 106.343 139.313C106.61 138.063 106.788 136.901 106.878 136.068C106.996 135.234 106.996 134.698 107.056 134.698Z" fill="#263238"/>
<path d="M107.056 135.561C107.145 135.561 106.729 137.02 106.075 138.747C105.422 140.445 104.917 141.844 104.827 141.815C104.738 141.785 105.154 140.355 105.808 138.628C106.462 136.901 106.967 135.531 107.056 135.561Z" fill="#263238"/>
<path d="M53.9611 102.955C53.9314 102.985 53.7532 102.776 53.3966 102.449C53.0005 102.071 52.4954 101.575 51.8813 100.96C50.6037 99.6197 48.8507 97.833 46.8601 95.7784H47.068C46.4441 96.5228 45.9687 97.5055 45.7607 98.5477C45.6419 99.1135 45.6122 99.6494 45.6419 100.185L45.6716 100.543L45.4042 100.305C42.849 98.2499 40.7692 96.1952 39.2242 94.8255C38.4517 94.1108 37.8277 93.545 37.4118 93.1877C36.9661 92.8006 36.7284 92.5922 36.7581 92.5624C36.7581 92.5624 37.0255 92.741 37.4712 93.0984C37.9169 93.4557 38.5705 93.9917 39.3727 94.6766C40.9474 96.0166 43.057 98.0117 45.5825 100.066L45.3448 100.215C45.2853 99.6495 45.3448 99.0837 45.4636 98.4881C45.7013 97.3863 46.147 96.3739 46.8304 95.5997L46.9492 95.4508L47.068 95.5699C49.029 97.6543 50.7523 99.4708 52.0299 100.811C52.6043 101.446 53.0797 101.962 53.456 102.359C53.7829 102.746 53.9611 102.955 53.9611 102.955Z" fill="#263238"/>
<path d="M60.7055 91.6691C60.7055 91.6691 60.7352 91.818 60.7352 92.1455C60.7352 92.4433 60.7055 92.8899 60.6758 93.4557C60.5867 94.5873 60.3787 96.1953 59.9033 98.0117L59.8142 98.3988L59.6359 98.0415C59.1605 97.1184 58.5069 96.1953 57.7047 95.3615C57.467 95.1233 57.2392 94.9049 57.0213 94.7064L57.259 94.617C56.7242 97.0588 56.0111 99.173 55.4466 100.662C55.1495 101.406 54.8821 102.002 54.7038 102.389C54.5255 102.806 54.4067 103.014 54.377 103.014C54.377 103.014 54.4364 102.776 54.6146 102.359C54.7731 101.883 54.9811 101.297 55.2386 100.602C55.7734 99.0837 56.4271 96.9993 56.9619 94.5575L57.0213 94.3193L57.1996 94.4682C57.4373 94.6667 57.6749 94.8851 57.9126 95.1233C58.7743 95.9868 59.4279 96.9695 59.9033 97.9224L59.6359 97.9521C60.1113 96.1357 60.349 94.5575 60.4976 93.4557C60.6164 92.3242 60.6758 91.6691 60.7055 91.6691Z" fill="#263238"/>
<path d="M87.8025 170.431L90.9519 175.761L80.7905 176.714L79.0078 171.116L87.8025 170.431Z" fill="#FF725E"/>
<path d="M79.0079 171.116C78.9782 171.116 79.2159 171.086 79.6021 171.056C80.0577 170.997 80.6519 170.937 81.3848 170.878C82.9298 170.729 85.1582 170.52 87.7728 170.282H87.862L87.9214 170.342C88.8722 171.979 89.9715 173.796 91.1005 175.702L91.2194 175.91L90.9817 175.94C90.8232 175.94 90.645 175.95 90.4469 175.969C86.7923 176.297 83.4349 176.595 80.8203 176.833H80.7015L80.6717 176.744C80.1369 175.017 79.721 173.587 79.4239 172.605C79.2852 172.148 79.1763 171.781 79.097 171.503C79.0178 171.245 78.9881 171.116 79.0079 171.116C79.0079 171.136 79.0574 171.275 79.1565 171.533C79.2555 171.83 79.3842 172.208 79.5427 172.664C79.8992 173.647 80.3449 175.017 80.9094 176.684L80.7906 176.595C83.4349 176.327 86.7626 176.029 90.4172 175.672C90.6153 175.652 90.7935 175.632 90.952 175.612L90.8331 175.85C89.7041 173.945 88.6345 172.128 87.6837 170.49L87.8025 170.58C85.2473 170.758 83.0487 170.907 81.5037 170.997C80.751 171.036 80.1468 171.066 79.6913 171.086C79.2456 171.116 79.0079 171.116 79.0079 171.116Z" fill="#263238"/>
<path d="M83.6133 130.291H72.6794V126.747H83.6133V130.291Z" fill="#FF725E"/>
<path d="M83.6132 130.291C83.5934 130.291 83.5835 130.201 83.5835 130.023C83.5835 129.844 83.5736 129.616 83.5538 129.338C83.534 128.683 83.5142 127.819 83.4943 126.747L83.6132 126.866C80.9986 126.896 77.0766 126.926 72.6793 126.926C72.7387 126.836 72.5308 127.075 72.8279 126.747V126.777V126.807V126.866V126.985V127.224V127.67C72.8279 127.968 72.8279 128.266 72.8279 128.564C72.8279 129.159 72.8279 129.735 72.8279 130.291L72.6793 130.142C75.799 130.142 78.5028 130.171 80.4341 130.201C81.3848 130.221 82.1573 130.241 82.7516 130.261C83.2864 130.261 83.5835 130.291 83.6132 130.291C83.6132 130.291 83.3458 130.32 82.811 130.32C82.2366 130.34 81.4839 130.36 80.5529 130.38C78.6216 130.41 75.8585 130.439 72.6793 130.439H72.5308V130.291C72.5308 129.735 72.5308 129.159 72.5308 128.564C72.5308 128.266 72.5308 127.968 72.5308 127.67V127.224V126.985V126.866V126.807V126.777V126.747C72.8279 126.449 72.6199 126.658 72.6793 126.598C77.0766 126.598 80.9986 126.628 83.6132 126.658H83.7023V126.747C83.6825 127.839 83.6627 128.722 83.6429 129.397C83.6429 129.993 83.6132 130.291 83.6132 130.291Z" fill="#263238"/>
<path opacity="0.3" d="M70.9859 99.59L72.6795 101.883C72.6795 101.883 72.2041 137.05 70.4214 145.775L70.9859 99.59Z" fill="black"/>
<path d="M186.772 216.229H157.566L149.87 191.603H178.007L186.772 216.229Z" fill="white"/>
<path d="M158.249 216.229H141.551C141.551 216.229 149.365 191.93 149.87 191.603L158.249 216.229Z" fill="#E0E0E0"/>
<path d="M186.772 216.229C186.772 216.229 186.762 216.189 186.742 216.11C186.703 216.03 186.653 215.921 186.594 215.782C186.475 215.465 186.307 215.018 186.089 214.442C185.643 213.221 185.019 211.524 184.247 209.35C182.672 204.973 180.444 198.839 177.859 191.633L178.007 191.722C173.669 191.752 168.945 191.752 163.983 191.752C158.992 191.752 154.208 191.752 149.87 191.722L149.989 191.543C152.426 198.749 154.505 204.913 155.961 209.291C156.674 211.464 157.269 213.192 157.655 214.412C157.853 214.988 158.001 215.435 158.1 215.752C158.14 215.911 158.18 216.03 158.219 216.11C158.239 216.189 158.249 216.229 158.249 216.229C158.229 216.229 158.209 216.189 158.19 216.11C158.15 216.03 158.1 215.921 158.041 215.782C157.942 215.465 157.784 215.018 157.566 214.442C157.15 213.221 156.555 211.524 155.813 209.35C154.297 204.973 152.188 198.839 149.722 191.633L149.662 191.454H149.87C154.208 191.454 158.992 191.424 163.983 191.424C168.945 191.424 173.669 191.454 178.007 191.454H178.096L178.126 191.543C180.681 198.749 182.85 204.913 184.395 209.291C185.168 211.464 185.762 213.191 186.178 214.383C186.376 214.978 186.534 215.435 186.653 215.752C186.693 215.911 186.723 216.03 186.742 216.11C186.782 216.189 186.792 216.229 186.772 216.229Z" fill="#263238"/>
<path d="M164.132 216.229C164.043 216.259 162.111 210.78 159.794 203.96C157.476 197.171 155.694 191.633 155.753 191.603C155.842 191.573 157.774 197.052 160.091 203.871C162.409 210.66 164.221 216.199 164.132 216.229Z" fill="#263238"/>
<path d="M170.044 216.229C169.955 216.259 168.024 210.78 165.707 203.96C163.389 197.171 161.577 191.633 161.666 191.603C161.755 191.573 163.686 197.052 166.004 203.871C168.321 210.66 170.134 216.199 170.044 216.229Z" fill="#263238"/>
<path d="M175.957 216.229C175.868 216.259 173.907 210.78 171.619 203.96C169.302 197.171 167.489 191.633 167.578 191.603C167.638 191.573 169.599 197.052 171.887 203.871C174.204 210.66 176.016 216.199 175.957 216.229Z" fill="#263238"/>
<path d="M181.84 216.229C181.751 216.259 179.82 210.78 177.502 203.96C175.185 197.171 173.372 191.633 173.461 191.603C173.551 191.573 175.482 197.052 177.799 203.871C180.117 210.66 181.929 216.199 181.84 216.229Z" fill="#263238"/>
<path d="M155.783 194.074C155.783 194.164 154.951 194.223 153.941 194.223C152.931 194.223 152.128 194.164 152.128 194.074C152.128 193.985 152.931 193.925 153.941 193.925C154.951 193.925 155.783 193.985 155.783 194.074Z" fill="#263238"/>
<path d="M161.488 194.074C161.488 194.164 160.656 194.223 159.645 194.223C158.665 194.223 157.833 194.164 157.833 194.074C157.833 193.985 158.665 193.925 159.645 193.925C160.656 193.925 161.488 193.985 161.488 194.074Z" fill="#263238"/>
<path d="M167.162 194.074C167.162 194.164 166.33 194.223 165.32 194.223C164.31 194.223 163.508 194.164 163.508 194.074C163.508 193.985 164.31 193.925 165.32 193.925C166.33 193.925 167.162 193.985 167.162 194.074Z" fill="#263238"/>
<path d="M177.71 194.074C177.71 194.164 177.086 194.223 176.314 194.223C175.571 194.223 174.947 194.164 174.947 194.074C174.947 193.985 175.571 193.925 176.314 193.925C177.086 193.925 177.71 193.985 177.71 194.074Z" fill="#263238"/>
<path d="M173.224 194.074C173.224 194.164 172.392 194.223 171.382 194.223C170.401 194.223 169.569 194.164 169.569 194.074C169.569 193.985 170.401 193.925 171.382 193.925C172.392 193.925 173.224 193.985 173.224 194.074Z" fill="#263238"/>
<path d="M179.196 195.831C179.196 195.92 172.956 195.98 165.231 195.98C157.536 195.98 151.296 195.92 151.296 195.831C151.296 195.742 157.536 195.682 165.231 195.682C172.956 195.682 179.196 195.742 179.196 195.831Z" fill="#263238"/>
<path d="M180.414 199.166C180.414 199.256 174.145 199.315 166.449 199.315C158.754 199.315 152.515 199.256 152.515 199.166C152.515 199.077 158.754 199.017 166.449 199.017C174.145 199.017 180.414 199.077 180.414 199.166Z" fill="#263238"/>
<path d="M181.483 202.888C181.483 202.978 175.244 203.037 167.519 203.037C159.824 203.037 153.584 202.978 153.584 202.888C153.584 202.799 159.824 202.71 167.519 202.71C175.244 202.71 181.483 202.799 181.483 202.888Z" fill="#263238"/>
<path d="M182.88 206.611C182.88 206.67 176.641 206.76 168.945 206.76C161.25 206.76 154.981 206.67 154.981 206.611C154.981 206.521 161.25 206.432 168.945 206.432C176.641 206.432 182.88 206.521 182.88 206.611Z" fill="#263238"/>
<path d="M183.979 210.303C183.979 210.392 177.74 210.482 170.045 210.482C162.349 210.482 156.08 210.392 156.08 210.303C156.08 210.244 162.349 210.154 170.045 210.154C177.74 210.154 183.979 210.244 183.979 210.303Z" fill="#263238"/>
<path d="M168.084 201.965C168.084 201.946 168.163 201.936 168.321 201.936C168.48 201.936 168.717 201.936 169.034 201.936C169.658 201.965 170.609 201.965 171.679 202.472C172.184 202.71 172.719 203.127 173.075 203.692C173.461 204.258 173.669 205.092 173.372 205.836C173.105 206.581 172.422 207.176 171.649 207.504C170.847 207.802 169.955 207.802 169.094 207.653C168.232 207.474 167.43 207.236 166.687 206.849C165.944 206.492 165.32 205.896 165.023 205.152C164.696 204.437 164.696 203.603 165.083 203.008C165.439 202.382 166.063 202.055 166.628 201.906C167.163 201.757 167.697 201.787 168.143 201.846C168.618 201.906 168.975 201.995 169.272 202.114C169.569 202.214 169.797 202.293 169.955 202.353C170.114 202.412 170.193 202.452 170.193 202.472C170.193 202.501 169.837 202.382 169.242 202.233C168.648 202.084 167.727 201.817 166.687 202.114C166.152 202.293 165.618 202.591 165.291 203.127C164.964 203.663 164.964 204.407 165.261 205.032C165.558 205.688 166.123 206.224 166.836 206.581C167.519 206.938 168.321 207.176 169.153 207.325C169.985 207.474 170.817 207.474 171.53 207.206C172.243 206.938 172.867 206.402 173.105 205.747C173.372 205.092 173.194 204.377 172.867 203.841C172.54 203.305 172.065 202.918 171.59 202.65C170.579 202.174 169.658 202.114 169.034 202.055C168.41 201.995 168.084 201.995 168.084 201.965Z" fill="#FF725E"/>
<path d="M165.588 207.891C165.558 207.861 165.944 207.444 166.568 206.819C167.311 206.104 168.143 205.241 169.094 204.318C170.045 203.365 170.876 202.531 171.619 201.816C172.243 201.161 172.659 200.774 172.689 200.804C172.719 200.834 172.362 201.28 171.768 201.965C171.174 202.62 170.312 203.544 169.302 204.526C168.321 205.509 167.4 206.372 166.747 206.968C166.063 207.563 165.617 207.921 165.588 207.891Z" fill="#FF725E"/>
<path d="M174.888 207.712C174.888 207.742 174.293 207.415 173.372 206.819C172.481 206.224 171.233 205.42 169.837 204.496C168.47 203.544 167.252 202.71 166.36 202.055C165.469 201.429 164.934 201.012 164.964 200.983C164.994 200.953 165.558 201.31 166.479 201.876C167.4 202.472 168.648 203.305 170.015 204.228C171.382 205.152 172.629 206.015 173.521 206.64C174.382 207.266 174.917 207.683 174.888 207.712Z" fill="#FF725E"/>
<path d="M167.608 197.082C167.608 197.171 166.895 197.29 166.033 197.26C165.142 197.201 164.459 196.992 164.488 196.933C164.488 196.844 165.202 196.903 166.033 196.933C166.895 196.992 167.578 196.992 167.608 197.082Z" fill="#FF725E"/>
<path d="M167.549 197.916C167.579 198.005 167.073 198.094 166.479 198.154C165.885 198.184 165.38 198.154 165.38 198.064C165.38 197.975 165.855 197.886 166.449 197.826C167.073 197.796 167.549 197.826 167.549 197.916Z" fill="#FF725E"/>
<path d="M173.372 197.26C173.372 197.35 172.867 197.469 172.243 197.469C171.619 197.469 171.114 197.35 171.114 197.26C171.114 197.171 171.619 197.141 172.243 197.141C172.867 197.141 173.372 197.171 173.372 197.26Z" fill="#FF725E"/>
<path d="M179.938 200.387C179.938 200.476 179.612 200.566 179.196 200.596C178.78 200.625 178.453 200.596 178.453 200.506C178.453 200.417 178.78 200.328 179.166 200.298C179.582 200.268 179.938 200.298 179.938 200.387Z" fill="#FF725E"/>
<path d="M163.27 201.072C163.3 201.161 162.676 201.31 161.904 201.28C161.131 201.28 160.537 201.102 160.566 201.012C160.566 200.923 161.19 200.953 161.933 200.983C162.646 200.983 163.27 200.983 163.27 201.072Z" fill="#FF725E"/>
<path d="M158.457 205.122C158.457 205.211 157.952 205.3 157.358 205.33C156.734 205.36 156.229 205.33 156.229 205.241C156.229 205.152 156.734 205.062 157.328 205.032C157.952 205.003 158.457 205.032 158.457 205.122Z" fill="#FF725E"/>
<path d="M167.43 212.715C167.43 212.804 166.954 212.953 166.33 213.072C165.736 213.162 165.201 213.162 165.201 213.072C165.201 213.013 165.677 212.864 166.271 212.745C166.895 212.656 167.4 212.626 167.43 212.715Z" fill="#FF725E"/>
<path d="M172.392 209.171C172.392 209.261 171.679 209.41 170.817 209.38C169.955 209.35 169.242 209.201 169.272 209.112C169.272 209.023 169.985 209.052 170.817 209.052C171.679 209.082 172.392 209.112 172.392 209.171Z" fill="#FF725E"/>
<path d="M178.602 208.546C178.602 208.636 178.067 208.725 177.413 208.755C176.759 208.814 176.225 208.784 176.225 208.695C176.225 208.606 176.759 208.487 177.413 208.457C178.067 208.427 178.602 208.457 178.602 208.546Z" fill="#FF725E"/>
<path d="M149.87 191.603C149.93 191.633 148.147 197.171 145.859 203.96C143.571 210.78 141.64 216.259 141.551 216.229C141.492 216.199 143.274 210.66 145.562 203.871C147.85 197.052 149.781 191.573 149.87 191.603Z" fill="#263238"/>
<path d="M185.702 213.876C185.702 213.966 179.463 214.055 171.768 214.055C164.043 214.055 157.803 213.966 157.803 213.876C157.803 213.817 164.043 213.728 171.768 213.728C179.463 213.728 185.702 213.817 185.702 213.876Z" fill="#263238"/>
<path d="M84.8612 179.037L76.4825 216.229H35.9262C35.3022 216.229 34.7971 215.723 34.7971 215.097C34.7971 214.502 35.3022 213.996 35.9262 213.996H74.6107L82.3952 178.471C82.514 177.875 83.1082 177.488 83.7025 177.637L83.9996 177.697C84.5938 177.816 84.9801 178.411 84.8612 179.037Z" fill="#E0E0E0"/>
<path d="M83.9996 177.697C83.9996 177.697 84.2967 177.667 84.6235 178.054C84.8018 178.233 84.9504 178.53 84.9207 178.888C84.8612 179.245 84.7424 179.632 84.6532 180.109C84.2373 181.955 83.643 184.605 82.9003 188.029C81.385 194.848 79.216 204.586 76.6014 216.259L76.5717 216.348L76.4825 216.378C64.687 216.378 50.7226 216.378 35.837 216.378C35.2725 216.348 34.7971 215.931 34.6783 215.395C34.5594 214.829 34.8268 214.234 35.3022 213.995C35.5399 213.847 35.8667 213.817 36.0747 213.847H36.8175C37.2929 213.847 37.7683 213.847 38.2437 213.847C40.1452 213.847 42.0269 213.847 43.8889 213.847C47.6028 213.847 51.2574 213.847 54.793 213.847C61.8644 213.847 68.5198 213.847 74.6107 213.847L74.4622 213.966C76.9579 202.68 79.0377 193.33 80.4936 186.749C81.2364 183.503 81.8009 180.913 82.1872 179.156C82.306 178.739 82.3357 178.322 82.5734 178.024C82.7814 177.756 83.0785 177.637 83.3162 177.607C83.5242 177.548 83.7025 177.607 83.8213 177.637C83.9402 177.657 83.9996 177.677 83.9996 177.697C83.9996 177.697 83.9402 177.687 83.8213 177.667C83.7025 177.637 83.5242 177.607 83.3162 177.637C83.0785 177.667 82.8111 177.786 82.6031 178.054C82.3952 178.322 82.3952 178.739 82.2763 179.185C81.8901 180.942 81.3553 183.503 80.6422 186.779C79.216 193.36 77.1659 202.74 74.7295 214.025L74.6998 214.115H74.6107C68.5198 214.115 61.8644 214.144 54.793 214.144C51.2574 214.144 47.6028 214.144 43.8889 214.144C42.0269 214.144 40.1452 214.144 38.2437 214.144C37.7683 214.144 37.2929 214.144 36.8175 214.144H36.0747C35.837 214.144 35.6587 214.144 35.4508 214.264C35.0942 214.442 34.8862 214.919 34.9754 215.306C35.0645 215.723 35.4508 216.05 35.8667 216.08C50.7523 216.08 64.687 216.08 76.4825 216.11L76.334 216.199C78.9783 204.526 81.2067 194.789 82.7517 187.97C83.5242 184.575 84.1482 181.925 84.5641 180.079C84.683 179.632 84.7721 179.215 84.8315 178.888C84.8909 178.53 84.7424 178.233 84.5938 178.054C84.267 177.697 83.9699 177.697 83.9996 177.697Z" fill="#263238"/>
<path d="M278.314 224.656H2.2627V216.288H278.314V224.656Z" fill="#E0E0E0"/>
<path d="M278.314 224.656C278.314 224.418 278.284 221.946 278.284 216.288L278.314 216.318C249.226 216.318 136.619 216.378 2.26274 216.437L2.4113 216.288C2.4113 219.147 2.4113 222.006 2.4113 224.656L2.26274 224.507C155.575 224.596 276.62 224.656 278.314 224.656C276.62 224.656 155.575 224.715 2.26274 224.805H2.08447V224.656C2.08447 222.006 2.08447 219.147 2.08447 216.288V216.11H2.26274C136.619 216.169 249.226 216.229 278.314 216.229H278.343V216.288C278.314 221.946 278.314 224.418 278.314 224.656Z" fill="#263238"/>
<path d="M246.819 216.199H189.654V211.047H246.819V216.199Z" fill="#FAFAFA"/>
<path d="M246.819 216.199C246.819 216.199 246.79 216.08 246.79 215.842C246.79 215.603 246.79 215.276 246.79 214.859C246.79 213.966 246.76 212.685 246.76 211.047L246.819 211.107C237.282 211.167 215.266 211.196 189.654 211.196L189.803 211.047C189.803 212.804 189.803 214.561 189.803 216.199L189.654 216.05C205.669 216.05 219.93 216.08 230.211 216.11C235.321 216.11 239.481 216.139 242.363 216.139C243.759 216.169 244.888 216.169 245.661 216.169C246.017 216.169 246.304 216.169 246.522 216.169C246.72 216.189 246.819 216.199 246.819 216.199C246.819 216.199 246.72 216.199 246.522 216.199C246.324 216.199 246.047 216.209 245.69 216.229C244.918 216.229 243.848 216.229 242.422 216.229C239.57 216.259 235.44 216.259 230.3 216.288C219.99 216.288 205.698 216.318 189.654 216.348H189.506V216.199C189.506 214.561 189.506 212.804 189.506 211.047L189.654 210.899C215.266 210.899 237.282 210.928 246.819 210.988H246.879V211.047C246.849 212.715 246.849 213.995 246.849 214.889C246.829 215.306 246.819 215.633 246.819 215.871C246.819 216.09 246.819 216.199 246.819 216.199Z" fill="#263238"/>
<path d="M240.907 211.048H184.425V208.189H240.907V211.048Z" fill="#FAFAFA"/>
<path d="M240.907 211.047C240.907 211.047 240.907 210.988 240.907 210.869C240.907 210.75 240.897 210.571 240.877 210.333C240.877 209.856 240.877 209.142 240.847 208.189L240.907 208.219C233.746 208.308 211.136 208.338 184.425 208.338C184.484 208.278 184.247 208.487 184.573 208.189V208.219V208.278V208.368V208.546V208.933C184.573 209.171 184.573 209.41 184.573 209.648C184.573 210.124 184.573 210.591 184.573 211.047L184.425 210.899C200.142 210.928 214.226 210.958 224.417 210.958C229.497 210.988 233.627 210.988 236.48 211.018C237.876 211.018 238.975 211.018 239.748 211.018C240.124 211.038 240.411 211.047 240.61 211.047C240.788 211.047 240.907 211.047 240.907 211.047C240.907 211.047 240.818 211.047 240.639 211.047C240.421 211.067 240.134 211.077 239.778 211.077C239.035 211.077 237.935 211.077 236.539 211.107C233.687 211.107 229.587 211.137 224.536 211.137C214.315 211.167 200.172 211.167 184.425 211.196H184.247V211.047C184.247 210.591 184.247 210.124 184.247 209.648C184.247 209.41 184.247 209.171 184.247 208.933V208.546V208.368V208.278V208.219V208.189C184.573 207.891 184.336 208.099 184.425 208.04C211.136 208.04 233.746 208.07 240.907 208.129H240.936V208.189C240.936 209.171 240.936 209.886 240.936 210.363C240.917 210.581 240.907 210.76 240.907 210.899C240.907 210.998 240.907 211.047 240.907 211.047Z" fill="#263238"/>
<path d="M245.215 214.293C245.215 214.383 232.825 214.472 217.583 214.472C202.311 214.472 189.951 214.383 189.951 214.293C189.951 214.204 202.311 214.144 217.583 214.144C232.825 214.144 245.215 214.204 245.215 214.293Z" fill="#263238"/>
<path d="M246.582 212.953C246.582 213.013 234.192 213.102 218.95 213.102C203.678 213.102 191.288 213.013 191.288 212.953C191.288 212.864 203.678 212.775 218.95 212.775C234.192 212.775 246.582 212.864 246.582 212.953Z" fill="#263238"/>
<path d="M110.829 182.044L112.82 181.925L114.929 210.899L112.909 211.048L110.829 182.044Z" fill="#E0E0E0"/>
<path d="M111.899 202.233L114.751 202.025L115.405 211.375C115.464 212.179 114.87 212.864 114.097 212.924C113.295 212.983 112.612 212.388 112.552 211.584L111.899 202.233Z" fill="#455A64"/>
<path d="M111.037 197.945L111.572 197.916L112.463 210.065L111.899 210.095L111.037 197.945Z" fill="#455A64"/>
<path d="M114.751 202.025C114.751 202.085 113.592 202.263 111.869 202.442L111.988 202.293C112.047 202.948 112.107 203.653 112.166 204.407C112.255 205.777 112.344 207.028 112.374 207.951C112.404 208.844 112.404 209.41 112.374 209.41C112.315 209.41 112.255 208.844 112.166 207.951C112.077 207.057 111.958 205.807 111.869 204.407C111.81 203.673 111.76 202.968 111.72 202.293V202.174L111.839 202.144C113.563 202.025 114.751 201.965 114.751 202.025Z" fill="#263238"/>
<path d="M116.979 205.42H114.959V182.729H116.979V205.42Z" fill="#E0E0E0"/>
<path d="M117.366 191.603H114.484V182.193C114.484 181.419 115.137 180.764 115.91 180.764C116.712 180.764 117.366 181.419 117.366 182.193V191.603Z" fill="#455A64"/>
<path d="M117.901 195.92H117.366V183.741H117.901V195.92Z" fill="#455A64"/>
<path d="M114.484 191.603C114.484 191.513 115.672 191.454 117.395 191.394L117.247 191.513C117.247 190.858 117.247 190.153 117.247 189.399C117.247 188.029 117.247 186.779 117.277 185.856C117.306 184.962 117.336 184.396 117.395 184.396C117.425 184.396 117.485 184.962 117.514 185.856C117.514 186.779 117.544 188.029 117.544 189.399C117.544 190.153 117.544 190.858 117.544 191.513V191.662H117.395C115.672 191.692 114.484 191.662 114.484 191.603Z" fill="#263238"/>
<path d="M121.02 210.75H119V188.059H121.02V210.75Z" fill="#E0E0E0"/>
<path d="M121.406 196.903H118.524V187.523C118.524 186.749 119.178 186.094 119.951 186.094C120.753 186.094 121.406 186.749 121.406 187.523V196.903Z" fill="#455A64"/>
<path d="M121.941 201.251H121.406V189.072H121.941V201.251Z" fill="#455A64"/>
<path d="M118.524 196.903C118.524 196.844 119.713 196.784 121.436 196.695L121.288 196.844C121.288 196.188 121.288 195.484 121.288 194.729C121.288 193.36 121.288 192.079 121.317 191.186C121.347 190.263 121.377 189.727 121.436 189.727C121.466 189.727 121.525 190.263 121.555 191.186C121.585 192.079 121.585 193.36 121.585 194.729C121.585 195.484 121.585 196.188 121.585 196.844V196.992H121.436C119.713 196.992 118.524 196.963 118.524 196.903Z" fill="#263238"/>
<path d="M124.823 204.586H122.803V181.895H124.823V204.586Z" fill="#E0E0E0"/>
<path d="M125.209 190.769H122.357V181.389C122.357 180.585 122.981 179.93 123.783 179.93C124.556 179.93 125.209 180.585 125.209 181.389V190.769Z" fill="#455A64"/>
<path d="M125.774 195.087H125.209V182.908H125.774V195.087Z" fill="#455A64"/>
<path d="M122.357 190.769C122.357 190.709 123.516 190.62 125.239 190.56L125.091 190.68C125.091 190.024 125.091 189.32 125.091 188.565C125.091 187.196 125.12 185.945 125.12 185.022C125.15 184.129 125.209 183.563 125.239 183.563C125.299 183.563 125.328 184.129 125.358 185.022C125.388 185.945 125.388 187.196 125.388 188.565C125.388 189.32 125.388 190.024 125.388 190.68V190.828H125.239C123.516 190.858 122.357 190.828 122.357 190.769Z" fill="#263238"/>
<path d="M125.507 216.229H112.642L110.948 197.409H127.349L125.507 216.229Z" fill="#FF725E"/>
</svg>
