<svg width="112" height="58" viewBox="0 0 112 58" fill="none" xmlns="http://www.w3.org/2000/svg">
<path fill-rule="evenodd" clip-rule="evenodd" d="M1.48323 26.6636C9.36056 19.2424 21.6936 15.2976 35.03 14.3313C54.9564 12.89 77.1124 18.0851 89.8426 28.0404C90.1024 28.2488 90.1482 28.6294 89.9455 28.888C89.7383 29.1535 89.3634 29.1982 89.098 28.991C76.564 19.1916 54.7383 14.1142 35.1155 15.5384C22.0814 16.4802 10.0102 20.2864 2.31309 27.5444C2.06957 27.7757 1.68909 27.7625 1.45781 27.519C1.23334 27.28 1.23971 26.8949 1.48323 26.6636Z" fill="#6F91EE"/>
<path fill-rule="evenodd" clip-rule="evenodd" d="M107.681 35.1021C100.012 29.7125 92.7337 25.7571 87.2728 17.4148C87.0927 17.1316 87.1661 16.7569 87.4493 16.5768C87.7257 16.3921 88.1015 16.4712 88.2805 16.7487C94.2907 25.927 102.558 29.6866 111.071 36.0603C111.53 36.4065 111.366 36.8049 111.32 36.8968C111.252 37.0342 111.102 37.2293 110.773 37.2355C110.708 37.2365 110.581 37.2203 110.406 37.1723C110.073 37.0728 109.414 36.8138 109.107 36.7268C108.22 36.4832 107.333 36.2635 106.446 36.0199C103.911 35.3234 101.375 34.6563 98.7942 34.1756C89.1409 32.3616 81.2591 30.8169 72.7315 36.3558C72.4494 36.5415 72.0792 36.4613 71.8934 36.1792C71.7144 35.9017 71.7936 35.5259 72.0711 35.3469C80.891 29.6143 89.0352 31.1131 99.019 32.9856C101.632 33.4778 104.204 34.1494 106.764 34.8527C107.07 34.9396 107.376 35.0208 107.681 35.1021Z" fill="#6F91EE"/>
</svg>
