<svg width="136" height="136" viewBox="0 0 136 136" fill="none" xmlns="http://www.w3.org/2000/svg">
<g opacity="0.7" clip-path="url(#clip0_1950_3886)">
<path fill-rule="evenodd" clip-rule="evenodd" d="M130.963 56.3022C99.8064 90.9527 52.9564 86.6722 14.1811 66.9794C13.5145 66.6424 12.6975 66.9075 12.3605 67.5741C12.0235 68.2407 12.2886 69.0576 12.9552 69.3946C52.8153 89.6411 100.949 93.7331 132.978 58.1112C133.478 57.5572 133.432 56.7013 132.875 56.1993C132.321 55.6992 131.465 55.7454 130.963 56.3022Z" fill="#F4C967"/>
<path fill-rule="evenodd" clip-rule="evenodd" d="M14.2955 68.5572C16.6728 68.4522 19.6578 68.3534 19.9962 68.3323C29.1669 67.7608 37.7574 65.7972 46.3583 62.5103C47.0567 62.2444 47.4069 61.4593 47.141 60.7608C46.875 60.0624 46.0899 59.7123 45.3915 59.9782C37.0521 63.1682 28.7213 65.0748 19.8255 65.6281C19.307 65.6607 12.5968 65.8787 11.2433 66.0247C10.6879 66.0819 10.3914 66.2869 10.326 66.342C9.96793 66.6209 9.85156 66.9499 9.81193 67.2191C9.7695 67.5234 9.82191 68.0428 10.2432 68.5696C10.6862 69.1191 11.8794 70.0283 12.1621 70.2821C16.4162 74.1238 21.4989 78.0408 25.456 82.6126C29.2299 86.9722 31.9833 91.9335 31.7829 98.0695C31.7578 98.8165 32.3469 99.4426 33.0939 99.4677C33.8409 99.4928 34.4671 98.9037 34.4922 98.1567C34.7148 91.2965 31.7229 85.7125 27.5059 80.8403C23.5717 76.296 18.5601 72.3771 14.2955 68.5572Z" fill="#F4C967"/>
</g>
<defs>
<clipPath id="clip0_1950_3886">
<rect width="98.0638" height="98.0638" fill="white" transform="translate(54.3378) rotate(33.6492)"/>
</clipPath>
</defs>
</svg>
