<svg width="480" height="320" viewBox="0 0 480 320" fill="none" xmlns="http://www.w3.org/2000/svg">
<g filter="url(#filter0_d_2150_3571)">
<path d="M42.688 138.496C42.688 138.496 48.096 137.536 48.8 149.536C49.504 161.504 48.928 167.968 48.928 167.968C48.928 167.968 49.344 170.624 51.36 169.888C53.344 169.152 56.928 166.208 59.04 167.936C61.216 169.728 60.832 172.864 58.56 176.736C56.32 180.608 51.68 189.248 51.264 190.048C50.848 190.816 50.784 192.192 52.224 191.904C53.664 191.648 63.136 187.328 64.928 191.936C66.688 196.544 58.624 206.304 57.792 207.392C56.928 208.48 56.928 209.088 57.376 209.664C57.824 210.208 60.864 208.48 63.616 207.36C66.368 206.24 69.728 205.408 70.528 208.16C71.328 210.912 68.224 219.52 54.336 229.6L47.584 233.92L40.448 230.368C25.6 221.696 21.664 213.472 22.176 210.656C22.688 207.84 26.144 208.288 28.992 209.12C31.808 209.984 35.04 211.392 35.424 210.816C35.808 210.208 35.744 209.568 34.784 208.576C33.824 207.584 24.832 198.72 26.144 193.952C27.456 189.152 37.312 192.512 38.752 192.64C40.224 192.768 40.032 191.392 39.552 190.688C39.04 189.952 33.568 181.792 30.944 178.176C28.32 174.528 27.616 171.456 29.6 169.472C31.488 167.52 35.392 170.112 37.44 170.624C39.488 171.168 39.648 168.512 39.648 168.512C39.648 168.512 38.432 162.112 37.952 150.112C37.44 138.112 42.784 138.528 42.784 138.528" fill="#EBEBEB"/>
<path d="M43.2 149.248C43.2213 149.248 43.232 149.333 43.232 149.504C43.2533 149.674 43.2746 149.92 43.296 150.24C43.328 150.912 43.4239 151.84 43.4879 153.056C43.6479 155.52 43.872 159.104 44.096 163.488C44.608 172.288 45.184 184.448 45.76 197.888C46.336 211.328 46.8799 223.488 47.3279 232.288C47.5519 236.672 47.712 240.256 47.84 242.72C47.904 243.936 47.968 244.896 48 245.568C48 245.866 48.0106 246.112 48.032 246.304C48.032 246.453 48.032 246.528 48.032 246.528C48.032 246.528 48.0213 246.453 48 246.304C47.9786 246.112 47.9573 245.866 47.936 245.568C47.904 244.896 47.84 243.936 47.744 242.72C47.584 240.256 47.36 236.704 47.136 232.32C46.656 223.52 46.08 211.328 45.472 197.888C44.896 184.48 44.352 172.288 43.904 163.488C43.68 159.104 43.52 155.552 43.392 153.088C43.328 151.84 43.264 150.912 43.232 150.24C43.232 149.92 43.2213 149.674 43.2 149.504C43.2 149.333 43.2 149.248 43.2 149.248Z" fill="#66AF99"/>
<path d="M34.848 173.312C34.88 173.28 35.04 173.408 35.296 173.664C35.584 173.92 35.968 174.304 36.448 174.752C37.376 175.68 38.656 177.024 40.032 178.496C41.344 179.968 42.56 181.28 43.52 182.304C43.9253 182.752 44.2773 183.136 44.576 183.456C44.832 183.744 44.96 183.904 44.928 183.904C44.928 183.904 44.768 183.776 44.48 183.552C44.224 183.296 43.84 182.912 43.36 182.432C42.432 181.504 41.184 180.16 39.808 178.688C38.464 177.216 37.248 175.904 36.288 174.88C35.8826 174.432 35.5306 174.048 35.232 173.728C34.976 173.472 34.848 173.312 34.848 173.312Z" fill="#66AF99"/>
<path d="M45.6639 183.68C45.5999 183.616 48.1919 180.896 51.4879 177.568C54.7519 174.24 57.4399 171.616 57.5039 171.648C57.5359 171.712 54.9439 174.432 51.6799 177.76C48.3839 181.088 45.6959 183.712 45.6639 183.68Z" fill="#66AF99"/>
<path d="M45.6319 204.352C45.5999 204.32 45.7919 204.224 46.1119 204.032C46.4959 203.819 46.9653 203.552 47.5199 203.232C48.7039 202.592 50.3039 201.664 52.0639 200.576C53.8239 199.52 55.3919 198.496 56.5119 197.728C57.0239 197.387 57.4613 197.088 57.8239 196.832C58.1439 196.64 58.3359 196.544 58.3359 196.544C58.3679 196.576 58.2079 196.704 57.8879 196.928C57.5999 197.152 57.1519 197.504 56.6079 197.888C55.5199 198.688 53.9839 199.744 52.2239 200.832C50.4639 201.888 48.7999 202.784 47.6159 203.424C47.0079 203.712 46.4959 203.968 46.1759 204.128C45.8239 204.288 45.6319 204.352 45.6319 204.352Z" fill="#66AF99"/>
<path d="M33.792 197.12C33.824 197.088 33.984 197.184 34.304 197.344C34.592 197.504 35.04 197.76 35.584 198.048C36.672 198.688 38.176 199.552 39.808 200.512C41.44 201.504 42.912 202.4 43.968 203.04C44.512 203.392 44.928 203.648 45.216 203.84C45.504 204.032 45.664 204.16 45.664 204.16C45.664 204.192 45.472 204.096 45.184 203.936C44.864 203.776 44.416 203.52 43.872 203.232C42.784 202.592 41.312 201.728 39.648 200.768C38.016 199.776 36.544 198.88 35.488 198.24C34.944 197.888 34.528 197.632 34.24 197.44C33.952 197.248 33.792 197.12 33.792 197.12Z" fill="#66AF99"/>
<path d="M31.456 215.36C31.456 215.328 31.68 215.456 32.096 215.648C32.5227 215.904 33.0667 216.213 33.728 216.576C35.136 217.376 37.056 218.464 39.168 219.68C41.28 220.928 43.2 222.048 44.544 222.88C45.2053 223.264 45.7493 223.595 46.176 223.872C46.56 224.096 46.752 224.256 46.752 224.256C46.752 224.288 46.528 224.16 46.112 223.968C45.6853 223.712 45.1307 223.403 44.448 223.04C43.072 222.24 41.152 221.152 39.04 219.936C36.928 218.688 35.008 217.568 33.632 216.736C32.992 216.352 32.4587 216.021 32.032 215.744C31.648 215.52 31.456 215.392 31.456 215.36Z" fill="#66AF99"/>
<path d="M46.4319 223.936C46.4319 223.936 46.6559 223.776 47.0719 223.52C47.5199 223.242 48.0959 222.89 48.7999 222.464C50.2719 221.568 52.2879 220.352 54.4639 218.912C56.6719 217.472 58.6239 216.16 59.9999 215.168C60.6826 214.698 61.2479 214.314 61.6959 214.016C62.0799 213.728 62.3039 213.6 62.3039 213.6C62.3359 213.632 62.1119 213.792 61.7599 214.08C61.3759 214.4 60.8319 214.816 60.1279 215.328C58.7519 216.352 56.7999 217.728 54.6239 219.136C52.4159 220.576 50.3999 221.792 48.8959 222.624C48.1599 223.072 47.5519 223.392 47.1039 223.616C46.6879 223.84 46.4639 223.968 46.4319 223.936Z" fill="#66AF99"/>
<path d="M50.72 285.024H43.872L37.44 236.256H57.152L50.72 285.024Z" fill="#E0E0E0"/>
<path d="M39.072 242.656C39.52 242.784 40.288 242.784 40.992 242.304C41.376 242.08 41.728 241.76 42.144 241.44C42.528 241.088 43.008 240.768 43.584 240.544C44.704 240.096 46.112 240.16 47.392 240.576C48.704 240.992 49.856 241.664 50.848 242.272C51.84 242.88 52.736 243.424 53.536 243.808C55.104 244.576 56.256 244.544 56.224 244.608C56.224 244.629 56.16 244.64 56.032 244.64C55.904 244.64 55.712 244.629 55.456 244.608C54.976 244.544 54.24 244.352 53.44 244C52.608 243.648 51.68 243.136 50.688 242.528C49.696 241.92 48.576 241.28 47.296 240.896C46.048 240.48 44.736 240.416 43.68 240.832C42.624 241.216 41.92 242.08 41.12 242.496C40.32 242.976 39.488 242.976 39.04 242.752C38.784 242.656 38.624 242.528 38.56 242.432C38.464 242.304 38.432 242.24 38.464 242.24C38.464 242.208 38.624 242.496 39.072 242.656Z" fill="#F5F5F5"/>
<path d="M39.232 251.072C39.296 250.965 39.4027 250.816 39.552 250.624C39.84 250.272 40.352 249.824 41.12 249.504C41.888 249.184 42.88 248.96 43.968 248.992C45.056 249.024 46.24 249.248 47.456 249.44C48.672 249.664 49.824 249.76 50.88 249.6C51.936 249.504 52.832 249.216 53.6 248.896C55.072 248.288 55.84 247.616 55.872 247.648C55.872 247.68 55.712 247.84 55.328 248.128C54.976 248.416 54.432 248.768 53.664 249.12C52.928 249.472 52 249.76 50.912 249.92C49.824 250.048 48.608 249.984 47.392 249.76C46.176 249.568 45.024 249.344 43.968 249.28C42.912 249.248 41.952 249.44 41.216 249.696C40.48 249.984 39.936 250.4 39.648 250.72C39.328 251.04 39.2 251.264 39.168 251.232C39.168 251.232 39.1894 251.179 39.232 251.072Z" fill="#F5F5F5"/>
<path d="M52.736 255.648C52.064 255.616 51.232 255.68 50.336 255.84C49.44 256 48.448 256.256 47.392 256.48C46.336 256.704 45.312 256.864 44.384 256.8C43.424 256.736 42.592 256.512 41.952 256.192C41.312 255.904 40.864 255.488 40.608 255.2C40.352 254.88 40.288 254.688 40.288 254.688C40.352 254.624 40.8 255.456 42.048 256C42.688 256.288 43.488 256.48 44.384 256.512C45.312 256.544 46.304 256.384 47.328 256.16C48.384 255.936 49.344 255.712 50.272 255.552C51.2 255.392 52.032 255.36 52.736 255.392C53.472 255.456 54.016 255.616 54.4 255.744C54.752 255.904 54.944 256.032 54.944 256.032C54.912 256.096 54.112 255.68 52.736 255.648Z" fill="#F5F5F5"/>
<path d="M41.376 262.528C41.696 262.368 42.24 262.304 42.88 262.4C44.16 262.528 45.6 263.648 47.456 263.744C49.312 263.936 50.976 263.36 52.032 262.784C53.12 262.208 53.632 261.6 53.696 261.664C53.696 261.664 53.568 261.824 53.344 262.08C53.088 262.304 52.704 262.656 52.16 262.976C51.104 263.648 49.376 264.256 47.424 264.064C46.464 264 45.568 263.712 44.832 263.36C44.096 263.008 43.424 262.72 42.816 262.624C41.632 262.368 40.928 262.848 40.928 262.816C40.896 262.784 41.056 262.656 41.376 262.528Z" fill="#F5F5F5"/>
<path d="M43.584 271.616C44.512 271.264 45.728 270.464 47.2 269.888C47.936 269.6 48.704 269.408 49.408 269.44C50.112 269.472 50.752 269.664 51.2 269.92C51.68 270.176 51.968 270.496 52.128 270.752C52.288 271.008 52.32 271.168 52.32 271.168C52.256 271.2 52 270.56 51.104 270.112C50.656 269.888 50.08 269.728 49.408 269.728C48.768 269.728 48.032 269.888 47.328 270.176C45.888 270.752 44.64 271.52 43.648 271.84C42.688 272.192 42.016 272.192 42.016 272.16C42.016 272.128 42.656 272.032 43.584 271.616Z" fill="#F5F5F5"/>
<path d="M47.392 277.12C49.824 277.376 51.808 277.28 51.84 277.376C51.84 277.44 51.328 277.504 50.528 277.536C49.728 277.568 48.576 277.568 47.36 277.44C46.112 277.344 45.024 277.12 44.224 276.928C43.456 276.736 42.976 276.544 42.976 276.512C43.008 276.416 44.96 276.896 47.392 277.12Z" fill="#F5F5F5"/>
<path d="M451.264 45.2158V64.3838C451.264 79.1998 447.392 93.8558 439.424 106.784C432.704 117.696 421.728 130.432 407.008 135.2C391.008 128.064 380.608 116.864 373.92 105.952C365.92 93.0238 362.048 78.3678 362.048 63.5518V42.2398C362.048 37.9838 366.08 36.6718 370.688 34.4958L406.656 21.6318L443.008 34.6878C448.032 36.1598 451.264 39.1358 451.264 45.2158Z" fill="#F5F5F5"/>
<path d="M407.008 135.2C391.008 128.064 380.608 116.864 373.92 105.952C365.92 93.0238 362.048 78.3678 362.048 63.5518V42.2398C362.048 37.9838 366.912 36.1598 370.688 34.4958L406.656 21.6318V31.6798L377.536 42.5598C373.472 44.4478 371.456 47.6478 371.456 51.0078V65.9518C371.456 77.6638 374.496 89.2798 380.832 99.5198C386.144 108.128 394.368 117.184 407.008 122.848V135.2Z" fill="#EBEBEB"/>
<path d="M407.008 122.848C419.68 117.184 427.552 108.32 432.864 99.6798C439.168 89.4398 442.24 77.8558 442.24 66.1438V51.1998C442.24 47.8078 440.192 44.6398 436.128 42.7518L406.656 31.6798V21.6318L443.008 34.6878C446.784 36.3198 451.264 36.9598 451.296 45.7278L451.264 63.3278C451.616 78.5278 447.744 93.1838 439.776 106.144C436.928 110.752 433.664 115.68 429.248 120.256C425.344 124.352 420.192 128.864 414.144 132.128C411.904 133.376 409.568 134.336 407.008 135.2V122.848Z" fill="#E0E0E0"/>
<path fill-rule="evenodd" clip-rule="evenodd" d="M421.088 70.2716V87.2316C421.088 90.1436 418.72 92.5116 415.808 92.5116H398.208C395.296 92.5116 392.928 90.1436 392.928 87.2316V70.2716C392.928 67.6156 394.88 65.4076 397.44 65.0556L397.472 62.1116C397.472 56.9276 401.696 52.7036 406.912 52.7036C412.096 52.7036 416.352 56.9276 416.352 62.1436L416.288 64.9916C418.976 65.2476 421.088 67.5196 421.088 70.2716ZM408.576 79.6156C409.344 79.1036 409.824 78.2716 409.824 77.2796C409.824 75.7436 408.576 74.4956 407.008 74.4956C405.472 74.4956 404.192 75.7436 404.192 77.2796C404.192 78.3036 404.736 79.1676 405.536 79.6796L404.832 83.0076H409.408C409.408 83.0076 408.896 80.8956 408.576 79.6156ZM414.304 62.1116C414.304 58.0476 410.976 54.7196 406.912 54.7196C402.816 54.7196 399.52 58.0476 399.52 62.1436L399.456 64.9916H414.272L414.304 62.1116Z" fill="#E0E0E0"/>
<path d="M377.344 64.7998C377.248 64.7998 376.992 63.6798 376.8 61.8558C376.576 59.9998 376.416 57.4398 376.48 54.6238C376.544 53.1838 376.64 51.8398 376.768 50.6238C376.864 49.4078 377.088 48.2558 377.568 47.4238C378.016 46.5598 378.688 46.0478 379.168 45.8238C379.648 45.5998 379.968 45.5998 379.968 45.6318C380.032 45.7278 378.72 45.9518 377.952 47.6158C377.6 48.4158 377.408 49.4718 377.344 50.6878C377.248 51.9038 377.152 53.2158 377.12 54.6238C377.056 57.4398 377.12 59.9678 377.248 61.8238C377.344 63.6478 377.44 64.7998 377.344 64.7998Z" fill="white"/>
<path d="M377.856 74.08C377.696 74.08 377.536 73.216 377.504 72.128C377.504 71.04 377.6 70.144 377.792 70.144C377.952 70.144 378.112 71.008 378.144 72.096C378.176 73.184 378.048 74.08 377.856 74.08Z" fill="white"/>
<path d="M390.08 48.3839V244.544C390.08 249.312 386.208 253.216 381.408 253.216H278.08C271.968 276.896 295.712 285.024 295.712 285.024H196.032C217.056 274.176 210.272 253.216 210.272 253.216H103.712C98.912 253.216 95.04 249.312 95.04 244.544V48.3839C95.04 43.5839 98.912 39.7119 103.712 39.7119H381.408C386.208 39.7119 390.08 43.5839 390.08 48.3839Z" fill="#F4C967"/>
<path d="M246.272 232.576C250.048 237.984 244.128 243.904 238.72 240.128C238.56 240 238.4 239.84 238.272 239.648C234.496 234.24 240.416 228.352 245.792 232.128C245.984 232.224 246.144 232.416 246.272 232.576Z" fill="#D2AC55"/>
<path d="M385.312 217.312H99.808V49.5039C99.808 46.0799 102.592 43.2959 106.016 43.2959H379.104C382.528 43.2959 385.312 46.0799 385.312 49.5039V217.312Z" fill="white"/>
<path d="M385.312 57.7599H99.808V49.1519C99.808 45.9199 102.432 43.2959 105.664 43.2959H380.48C383.136 43.2959 385.312 45.4719 385.312 48.1279V57.7599Z" fill="#EBEBEB"/>
<path d="M110.912 50.848C110.912 51.936 110.016 52.832 108.896 52.832C107.808 52.832 106.912 51.936 106.912 50.848C106.912 49.728 107.808 48.832 108.896 48.832C110.016 48.832 110.912 49.728 110.912 50.848Z" fill="#E0E0E0"/>
<path d="M116.896 50.848C116.896 51.936 116 52.832 114.88 52.832C113.76 52.832 112.864 51.936 112.864 50.848C112.864 49.728 113.76 48.832 114.88 48.832C116 48.832 116.896 49.728 116.896 50.848Z" fill="#E0E0E0"/>
<path d="M122.56 50.848C122.56 51.936 121.664 52.832 120.576 52.832C119.456 52.832 118.56 51.936 118.56 50.848C118.56 49.728 119.456 48.832 120.576 48.832C121.664 48.832 122.56 49.728 122.56 50.848Z" fill="#E0E0E0"/>
<path d="M331.776 253.248C331.776 253.312 292.256 253.408 243.52 253.408C194.752 253.408 155.232 253.312 155.232 253.248C155.232 253.152 194.752 253.056 243.52 253.056C292.256 253.056 331.776 253.152 331.776 253.248Z" fill="#263238"/>
<path d="M296.544 95.232V118.752C296.544 136.96 291.904 154.976 282.368 170.88C274.304 184.256 261.152 199.904 243.552 205.76C224.384 197.024 211.936 183.232 203.872 169.856C194.336 153.952 189.696 135.936 189.696 117.728V91.552C189.696 86.304 194.496 84.704 200 82.048L243.104 66.208L286.656 82.24C292.672 84.064 296.544 87.712 296.544 95.232Z" fill="#6F91EE"/>
<g opacity="0.8">
<path d="M296.544 95.232V118.752C296.544 136.96 291.904 154.976 282.368 170.88C274.304 184.256 261.152 199.904 243.552 205.76C224.384 197.024 211.936 183.232 203.872 169.856C194.336 153.952 189.696 135.936 189.696 117.728V91.552C189.696 86.304 194.496 84.704 200 82.048L243.104 66.208L286.656 82.24C292.672 84.064 296.544 87.712 296.544 95.232Z" fill="white"/>
</g>
<path d="M269.696 148.544H261.696V104.992C261.696 94.7519 253.376 86.3999 243.104 86.3999C232.864 86.3999 224.544 94.7519 224.544 104.992V148.544H216.544V104.992C216.544 90.3359 228.448 78.3999 243.104 78.3999C257.792 78.3999 269.696 90.3359 269.696 104.992V148.544Z" fill="#6F91EE"/>
<g opacity="0.4">
<path d="M269.696 148.544H261.696V104.992C261.696 94.7519 253.376 86.3999 243.104 86.3999C232.864 86.3999 224.544 94.7519 224.544 104.992V148.544H216.544V104.992C216.544 90.3359 228.448 78.3999 243.104 78.3999C257.792 78.3999 269.696 90.3359 269.696 104.992V148.544Z" fill="black"/>
</g>
<path d="M275.232 175.136H211.008C208.96 175.136 207.296 173.472 207.296 171.424V132.896C207.296 130.816 208.96 129.152 211.008 129.152H275.232C277.28 129.152 278.944 130.816 278.944 132.896V171.424C278.944 173.472 277.28 175.136 275.232 175.136Z" fill="#6F91EE"/>
<g opacity="0.5">
<path d="M244.768 151.904V160.864H241.472V151.904C238.976 151.168 237.12 148.896 237.12 146.176C237.12 142.848 239.808 140.16 243.104 140.16C246.432 140.16 249.12 142.848 249.12 146.176C249.12 148.896 247.264 151.168 244.768 151.904Z" fill="black"/>
</g>
<path d="M211.104 170.784C210.944 170.784 210.816 163.104 210.816 153.664C210.816 144.192 210.944 136.544 211.104 136.544C211.296 136.544 211.424 144.192 211.424 153.664C211.424 163.104 211.296 170.784 211.104 170.784Z" fill="#FAFAFA"/>
<path d="M238.432 153.824C238.4 153.856 238.144 153.76 237.728 153.44C237.312 153.152 236.736 152.608 236.192 151.872C235.072 150.4 234.048 147.744 234.72 144.864C235.392 142.016 237.504 140.096 239.168 139.264C240 138.848 240.736 138.656 241.248 138.56C241.76 138.464 242.048 138.496 242.048 138.528C242.08 138.624 240.928 138.752 239.36 139.648C237.824 140.512 235.936 142.368 235.296 144.992C234.688 147.648 235.552 150.176 236.544 151.616C237.504 153.12 238.496 153.76 238.432 153.824Z" fill="#FAFAFA"/>
<path d="M296.928 195.616C296.928 195.616 297.12 195.392 297.44 194.912C297.525 194.806 297.621 194.678 297.728 194.528C297.856 194.4 297.92 194.208 298.048 194.048C298.24 193.664 298.496 193.248 298.688 192.736C298.784 192.448 298.912 192.192 299.008 191.904C299.093 191.606 299.189 191.286 299.296 190.944C299.392 190.624 299.456 190.272 299.488 189.888C299.552 189.504 299.648 189.152 299.68 188.736C299.84 187.104 299.744 185.216 299.424 183.104C298.752 178.912 296.992 173.984 294.24 168.608C291.52 163.2 287.776 157.408 283.168 151.392C278.56 145.344 273.024 139.104 266.656 132.832C260.288 126.56 253.088 120.288 244.992 114.336C240.96 111.36 236.672 108.48 232.192 105.76C227.68 103.04 222.944 100.48 217.952 98.3042C212.96 96.1282 207.68 94.2402 202.112 93.3442C199.328 92.8962 196.48 92.7042 193.664 93.1202C192.256 93.3442 190.88 93.7282 189.6 94.3042C188.32 94.9122 187.136 95.7442 186.176 96.8002C185.248 97.8882 184.544 99.1362 184.064 100.48C183.648 101.856 183.392 103.264 183.36 104.672C183.232 107.52 183.776 110.336 184.512 113.056C186.048 118.464 188.512 123.488 191.232 128.224C194.016 132.928 197.056 137.344 200.288 141.504C203.488 145.664 206.848 149.6 210.272 153.28C217.088 160.64 224.16 167.072 231.104 172.704C238.048 178.304 244.896 183.104 251.424 187.008C257.952 190.88 264.128 193.952 269.792 196.032C275.424 198.144 280.544 199.328 284.8 199.488C286.912 199.584 288.8 199.488 290.4 199.104C290.816 199.072 291.168 198.912 291.52 198.816C291.904 198.72 292.256 198.624 292.576 198.496C292.875 198.368 293.173 198.24 293.472 198.112C293.76 197.984 294.016 197.824 294.24 197.696C294.752 197.44 295.136 197.152 295.488 196.896C295.648 196.768 295.808 196.672 295.968 196.544C296.096 196.416 296.203 196.31 296.288 196.224C296.704 195.808 296.928 195.616 296.928 195.616C296.928 195.616 296.736 195.84 296.32 196.224C296.213 196.331 296.096 196.448 295.968 196.576C295.84 196.704 295.68 196.8 295.52 196.928C295.168 197.184 294.784 197.504 294.272 197.76C294.048 197.888 293.792 198.048 293.504 198.176C293.205 198.304 292.896 198.432 292.576 198.56C292.288 198.72 291.936 198.816 291.552 198.912C291.2 199.008 290.816 199.168 290.432 199.232C288.832 199.584 286.912 199.712 284.8 199.648C280.512 199.488 275.392 198.304 269.728 196.224C264.032 194.144 257.824 191.072 251.296 187.2C244.736 183.328 237.888 178.528 230.944 172.928C223.968 167.296 216.896 160.832 210.048 153.472C206.624 149.792 203.264 145.888 200.032 141.696C196.8 137.536 193.728 133.12 190.976 128.384C188.224 123.648 185.728 118.592 184.192 113.152C183.456 110.4 182.912 107.552 183.008 104.672C183.072 103.232 183.296 101.792 183.744 100.384C184.224 99.0082 184.96 97.6962 185.92 96.5762C186.912 95.4882 188.128 94.6562 189.44 94.0162C190.784 93.4082 192.192 93.0242 193.632 92.8002C196.48 92.3522 199.36 92.5762 202.176 92.9922C207.776 93.9202 213.056 95.8082 218.08 97.9842C223.104 100.192 227.84 102.752 232.352 105.472C236.864 108.224 241.12 111.104 245.184 114.08C253.28 120.064 260.48 126.368 266.88 132.64C273.216 138.912 278.752 145.184 283.36 151.232C287.968 157.28 291.712 163.104 294.432 168.512C297.12 173.92 298.912 178.88 299.552 183.104C299.84 185.184 299.936 187.104 299.776 188.736C299.744 189.152 299.648 189.536 299.584 189.92C299.52 190.272 299.488 190.624 299.36 190.976C299.275 191.296 299.189 191.616 299.104 191.936C298.976 192.224 298.848 192.48 298.752 192.736C298.56 193.28 298.304 193.696 298.08 194.048C297.984 194.24 297.888 194.432 297.792 194.56C297.664 194.71 297.557 194.838 297.472 194.944C297.12 195.392 296.928 195.616 296.928 195.616Z" fill="#6F91EE"/>
<path d="M317.408 146.176C317.408 146.176 317.376 145.888 317.344 145.312C317.323 145.163 317.312 145.003 317.312 144.832C317.28 144.64 317.216 144.448 317.184 144.256C317.088 143.84 317.024 143.36 316.8 142.816C316.704 142.56 316.608 142.272 316.512 141.984C316.363 141.707 316.213 141.419 316.064 141.12C315.936 140.8 315.744 140.512 315.52 140.192C315.328 139.872 315.136 139.52 314.88 139.2C313.92 137.888 312.576 136.544 310.944 135.2C307.648 132.48 303.04 129.984 297.44 127.776C291.808 125.568 285.152 123.744 277.696 122.304C270.24 120.864 261.952 119.904 253.056 119.456C244.128 119.04 234.56 119.136 224.544 120.064C219.552 120.544 214.432 121.248 209.28 122.208C204.128 123.168 198.88 124.416 193.696 126.112C188.512 127.808 183.328 129.92 178.56 132.96C176.224 134.464 173.952 136.224 172.128 138.4C171.232 139.52 170.464 140.704 169.888 142.016C169.344 143.328 169.024 144.736 168.992 146.144C169.024 147.584 169.344 148.992 169.856 150.304C170.464 151.616 171.232 152.8 172.128 153.92C173.92 156.096 176.224 157.856 178.56 159.392C183.296 162.4 188.512 164.512 193.696 166.208C198.88 167.904 204.096 169.152 209.28 170.112C214.432 171.104 219.552 171.776 224.544 172.256C234.56 173.184 244.128 173.312 253.056 172.864C261.952 172.448 270.24 171.456 277.696 170.016C285.152 168.576 291.808 166.752 297.44 164.544C303.04 162.368 307.68 159.84 310.944 157.152C312.576 155.808 313.92 154.464 314.88 153.12C315.136 152.8 315.328 152.448 315.52 152.16C315.744 151.84 315.936 151.52 316.064 151.232C316.213 150.912 316.363 150.613 316.512 150.336C316.608 150.048 316.704 149.76 316.8 149.504C317.024 148.992 317.088 148.512 317.184 148.096C317.216 147.872 317.28 147.68 317.312 147.52C317.312 147.328 317.323 147.168 317.344 147.04C317.376 146.464 317.408 146.176 317.408 146.176C317.408 146.176 317.408 146.464 317.376 147.04C317.376 147.189 317.365 147.349 317.344 147.52C317.312 147.68 317.28 147.872 317.248 148.096C317.152 148.512 317.088 148.992 316.864 149.536C316.768 149.792 316.704 150.08 316.576 150.368C316.427 150.645 316.277 150.944 316.128 151.264C316 151.584 315.808 151.872 315.616 152.192C315.392 152.512 315.2 152.864 314.944 153.184C314.016 154.528 312.672 155.904 311.04 157.248C307.744 159.968 303.104 162.496 297.504 164.736C291.872 166.944 285.216 168.8 277.76 170.272C270.272 171.712 261.984 172.704 253.056 173.152C244.128 173.6 234.528 173.504 224.512 172.576C219.52 172.096 214.4 171.392 209.216 170.432C204.032 169.472 198.784 168.224 193.6 166.528C188.384 164.832 183.168 162.72 178.368 159.648C176 158.112 173.728 156.352 171.872 154.112C170.944 153.024 170.144 151.776 169.568 150.432C168.992 149.088 168.672 147.648 168.64 146.144C168.672 144.672 169.024 143.232 169.568 141.888C170.176 140.544 170.944 139.328 171.872 138.208C173.728 135.968 176.032 134.208 178.4 132.672C183.168 129.6 188.384 127.52 193.6 125.792C198.816 124.128 204.032 122.848 209.216 121.888C214.4 120.928 219.52 120.256 224.512 119.776C234.528 118.848 244.128 118.752 253.056 119.168C261.984 119.616 270.272 120.608 277.76 122.08C285.216 123.52 291.872 125.376 297.504 127.616C303.104 129.824 307.744 132.352 311.04 135.072C312.672 136.448 314.016 137.792 314.944 139.136C315.2 139.456 315.392 139.808 315.616 140.128C315.808 140.448 316 140.768 316.128 141.088C316.277 141.387 316.427 141.685 316.576 141.984C316.704 142.272 316.768 142.56 316.864 142.816C317.088 143.328 317.152 143.808 317.248 144.256C317.28 144.448 317.312 144.64 317.344 144.832C317.365 145.003 317.376 145.163 317.376 145.312C317.408 145.888 317.408 146.176 317.408 146.176Z" fill="#6F91EE"/>
<path d="M290.272 84.6078C290.272 84.6078 290.016 84.4478 289.536 84.1278C289.429 84.0638 289.301 83.9785 289.152 83.8718C288.992 83.7758 288.8 83.7118 288.608 83.6158C288.224 83.4238 287.808 83.1998 287.264 83.0398C287.008 82.9758 286.72 82.8478 286.432 82.7838C286.112 82.7198 285.781 82.6558 285.44 82.5918C285.12 82.4958 284.768 82.4638 284.384 82.4318C284 82.4318 283.616 82.3358 283.2 82.3678C281.568 82.3038 279.68 82.5278 277.632 83.0078C273.472 83.9358 268.672 86.0478 263.488 89.1518C258.304 92.2238 252.8 96.3518 247.072 101.376C241.376 106.4 235.52 112.352 229.728 119.136C223.904 125.92 218.144 133.536 212.768 142.016C210.08 146.272 207.488 150.72 205.088 155.392C202.688 160.064 200.48 164.96 198.624 170.112C196.8 175.232 195.264 180.64 194.752 186.24C194.528 189.056 194.528 191.904 195.136 194.688C195.456 196.064 195.936 197.408 196.608 198.688C197.312 199.904 198.208 201.024 199.328 201.92C200.48 202.784 201.792 203.392 203.136 203.776C204.544 204.096 205.952 204.224 207.36 204.192C210.208 204.096 212.992 203.36 215.648 202.464C220.96 200.544 225.792 197.728 230.304 194.688C234.816 191.616 239.04 188.256 242.944 184.768C246.88 181.28 250.56 177.664 253.984 173.984C260.864 166.656 266.816 159.168 271.936 151.84C277.056 144.544 281.376 137.376 284.8 130.624C288.224 123.84 290.848 117.472 292.544 111.68C294.272 105.888 295.104 100.704 294.976 96.4478C294.912 94.3358 294.688 92.4478 294.208 90.8798C294.144 90.4958 293.952 90.1438 293.856 89.7598C293.728 89.4078 293.6 89.0878 293.44 88.7678C293.291 88.4692 293.152 88.1812 293.024 87.9038C292.864 87.6158 292.672 87.3598 292.544 87.1358C292.256 86.6558 291.936 86.3038 291.648 85.9518C291.52 85.7918 291.392 85.6638 291.264 85.5358C291.136 85.4078 291.019 85.2905 290.912 85.1838C290.496 84.7998 290.272 84.6078 290.272 84.6078C290.272 84.6078 290.496 84.7998 290.944 85.1838C291.051 85.2692 291.168 85.3758 291.296 85.5038C291.424 85.6318 291.552 85.7598 291.68 85.9198C291.968 86.2398 292.32 86.6238 292.576 87.1038C292.736 87.3278 292.928 87.5838 293.088 87.8398C293.216 88.1385 293.355 88.4371 293.504 88.7358C293.696 89.0558 293.792 89.3758 293.92 89.7278C294.048 90.1118 294.208 90.4638 294.304 90.8478C294.784 92.4478 295.04 94.3358 295.104 96.4478C295.264 100.704 294.432 105.92 292.736 111.712C291.04 117.536 288.448 123.936 285.024 130.72C281.6 137.504 277.28 144.672 272.16 152C267.04 159.328 261.088 166.848 254.208 174.208C250.784 177.888 247.104 181.504 243.168 184.992C239.232 188.512 235.04 191.872 230.496 194.944C225.952 198.016 221.088 200.864 215.744 202.752C213.088 203.68 210.272 204.416 207.392 204.512C205.952 204.576 204.48 204.416 203.072 204.096C201.664 203.68 200.32 203.072 199.136 202.176C197.984 201.248 197.024 200.096 196.288 198.848C195.616 197.536 195.136 196.16 194.816 194.752C194.176 191.936 194.176 189.024 194.432 186.208C194.944 180.576 196.48 175.136 198.304 169.984C200.16 164.832 202.4 159.936 204.8 155.264C207.2 150.56 209.792 146.112 212.512 141.856C217.888 133.376 223.68 125.728 229.504 118.944C235.328 112.16 241.216 106.208 246.944 101.184C252.64 96.1918 258.208 92.0638 263.392 88.9918C268.608 85.8878 273.44 83.8078 277.6 82.8798C279.68 82.3998 281.568 82.1758 283.2 82.2718C283.616 82.2398 284.032 82.3358 284.384 82.3358C284.768 82.3678 285.12 82.4318 285.472 82.4958C285.813 82.5811 286.133 82.6558 286.432 82.7198C286.752 82.7838 287.008 82.9118 287.296 82.9758C287.84 83.1358 288.256 83.3918 288.64 83.5838C288.832 83.6798 289.024 83.7438 289.152 83.8398C289.301 83.9465 289.44 84.0318 289.568 84.0958C290.048 84.4478 290.272 84.6078 290.272 84.6078Z" fill="#6F91EE"/>
<path d="M168 176.832C169.088 177.92 169.088 179.648 168 180.736C166.944 181.824 165.184 181.824 164.096 180.736C163.04 179.648 163.04 177.92 164.096 176.832C165.184 175.744 166.944 175.744 168 176.832Z" fill="#6F91EE"/>
<path d="M323.712 91.3282C323.712 92.8642 322.464 94.0802 320.928 94.0802C319.424 94.0802 318.176 92.8642 318.176 91.3282C318.176 89.7922 319.424 88.5762 320.928 88.5762C322.464 88.5762 323.712 89.7922 323.712 91.3282Z" fill="#6F91EE"/>
<path d="M185.44 185.92C185.44 186.304 185.12 186.624 184.736 186.624C184.352 186.624 184.032 186.304 184.032 185.92C184.032 185.504 184.352 185.216 184.736 185.216C185.12 185.216 185.44 185.504 185.44 185.92Z" fill="#6F91EE"/>
<path d="M200.416 108.576C200.416 108.96 200.096 109.28 199.712 109.28C199.328 109.28 199.008 108.96 199.008 108.576C199.008 108.192 199.328 107.872 199.712 107.872C200.096 107.872 200.416 108.192 200.416 108.576Z" fill="#6F91EE"/>
<path d="M309.824 146.176C309.824 146.56 309.536 146.88 309.152 146.88C308.736 146.88 308.448 146.56 308.448 146.176C308.448 145.792 308.736 145.472 309.152 145.472C309.536 145.472 309.824 145.792 309.824 146.176Z" fill="#6F91EE"/>
<path d="M319.584 113.472C319.584 113.856 319.264 114.176 318.88 114.176C318.496 114.176 318.176 113.856 318.176 113.472C318.176 113.088 318.496 112.768 318.88 112.768C319.264 112.768 319.584 113.088 319.584 113.472Z" fill="#6F91EE"/>
<path d="M432.32 218.176C435.424 216.256 438.944 215.04 442.56 214.656C444.224 214.496 446.048 214.528 447.392 215.552C447.648 215.776 447.936 216.096 447.872 216.448C447.84 216.704 447.616 216.864 447.392 217.024C443.232 220.192 436.96 220.608 432.32 218.176Z" fill="#66AF99"/>
<path d="M443.008 201.888C443.552 202.56 443.52 203.552 443.328 204.448C442.752 207.296 441.152 209.888 439.2 212.096C437.248 214.272 434.912 216.096 432.608 217.888C433.6 211.296 437.728 205.984 443.008 201.888Z" fill="#66AF99"/>
<path d="M432.352 218.752C430.304 215.808 428.768 212.544 427.776 209.12C427.136 206.912 426.752 204.448 427.648 202.336C430.08 203.936 431.616 206.656 432.256 209.472C432.928 212.32 432.768 215.264 432.384 218.144" fill="#66AF99"/>
<path d="M427.232 227.36C430.368 227.744 433.088 229.408 435.424 231.52C437.76 233.632 439.424 236.48 440.096 239.552C437.024 239.36 434.432 237.216 432.544 234.784C430.656 232.352 429.344 229.696 427.264 227.424" fill="#66AF99"/>
<path d="M426.112 228.864C428.64 222.656 427.712 215.168 423.776 209.728C421.984 216.096 422.656 223.232 426.112 228.864Z" fill="#66AF99"/>
<path d="M419.296 236.96C422.144 236.768 425.024 237.472 427.488 238.88C429.952 240.288 432 242.464 433.28 244.992C433.44 245.344 433.6 245.792 433.376 246.08C433.152 246.368 432.768 246.4 432.448 246.368C429.696 246.176 427.232 244.544 425.248 242.656C423.232 240.768 421.472 238.592 419.232 236.96" fill="#66AF99"/>
<path d="M419.488 236.384C419.232 235.936 419.232 235.744 418.976 235.168C418.72 234.592 418.4 234.016 418.08 233.504C416.672 231.264 416.384 228.512 415.84 225.92C415.52 224.544 415.232 223.136 415.168 221.696C415.104 220.288 415.296 218.816 415.904 217.536C415.968 217.408 416.064 217.248 416.192 217.184C416.352 217.12 416.544 217.184 416.672 217.28C418.4 218.144 419.264 220.128 419.776 221.984C421.088 226.72 420.992 231.84 419.52 236.512" fill="#66AF99"/>
<path d="M396.576 224.64C396.544 224.032 396.672 223.264 397.28 223.2C397.664 223.168 397.984 223.488 398.208 223.808C401.408 227.968 402.816 234.112 401.504 239.2C398.528 234.944 396.8 229.824 396.576 224.64Z" fill="#66AF99"/>
<path d="M399.872 240.32C393.696 241.92 386.624 240.352 381.472 236.576C384.512 235.04 388.096 234.592 391.424 235.36C394.752 236.128 397.792 237.6 399.872 240.32Z" fill="#66AF99"/>
<path d="M395.264 235.648C392.544 235.136 389.76 234.592 387.264 233.312C384.768 232.064 382.56 229.984 381.824 227.296C388.416 227.616 395.04 231.296 398.496 236.928C397.792 236.096 396.352 235.872 395.264 235.648Z" fill="#66AF99"/>
<path d="M401.152 220.512C400.224 217.312 399.264 214.08 399.008 210.752C398.752 207.424 399.232 203.936 400.96 201.088C404.192 207.328 404.512 214.624 401.248 220.864" fill="#66AF99"/>
<path d="M390.272 215.04C386.496 208.16 378.784 202.688 371.008 201.92C374.016 209.408 382.208 215.2 390.272 215.04Z" fill="#66AF99"/>
<path d="M392.64 216.384C387.008 217.216 382.24 220.832 376.96 223.008C375.84 223.456 374.624 223.84 373.408 223.68C372.192 223.52 371.008 222.72 370.752 221.536C370.528 220.544 370.976 219.488 371.68 218.784C372.384 218.048 373.312 217.6 374.24 217.216C380 214.816 386.144 214.752 392.16 216.224" fill="#66AF99"/>
<path d="M395.904 220.32C394.624 220.672 394.208 221.344 393.184 222.208C389.76 225.12 385.664 227.232 381.28 228.32C380.832 228.416 380.256 228.48 380.032 228.064C379.808 227.712 380.064 227.264 380.32 226.944C382.144 224.672 384.768 223.104 387.52 222.08C390.272 221.056 392.64 219.808 395.904 220.096" fill="#66AF99"/>
<path d="M399.584 196.448C395.008 200.736 388.576 202.944 382.336 202.336C382.048 202.304 381.728 202.272 381.536 202.048C381.12 201.568 381.632 200.864 382.144 200.448C387.2 196.512 393.344 194.848 399.584 196.448Z" fill="#66AF99"/>
<path d="M383.968 195.808C380.16 195.424 376.416 193.984 373.696 191.328C380.864 188.96 389.184 190.336 395.232 194.88C391.552 195.808 387.744 196.224 383.968 195.808Z" fill="#66AF99"/>
<path d="M396.96 183.904C397.472 178.848 397.152 174.848 397.504 169.76C397.504 169.344 397.6 168.864 397.984 168.704C398.528 168.512 398.944 169.152 399.136 169.696C400.64 174.4 399.808 179.776 396.96 183.808" fill="#66AF99"/>
<path d="M397.344 184.48C393.888 182.336 391.328 179.584 388.928 176.32C387.264 174.048 385.888 171.328 386.272 168.544C388.576 168.48 390.784 169.792 392.32 171.552C393.824 173.312 394.72 175.52 395.392 177.76C396.064 179.968 396.544 182.272 397.344 184.48Z" fill="#66AF99"/>
<path d="M389.088 182.176C381.536 179.392 374.528 175.232 368.416 169.984C370.88 168.992 373.728 169.6 376.192 170.592C381.824 172.864 386.432 176.704 389.184 182.112" fill="#66AF99"/>
<path d="M395.008 187.232C391.2 187.648 387.328 187.936 383.552 187.296C379.808 186.656 376.32 185.184 372.832 183.744C372.544 183.616 372.224 183.456 372.096 183.168C371.968 182.88 372.128 182.496 372.352 182.272C372.608 182.048 372.96 181.92 373.28 181.824C377.056 180.768 381.12 181.28 384.864 182.528C388.576 183.776 391.616 185.28 395.008 187.232Z" fill="#66AF99"/>
<path d="M416.704 196.896C416.64 194.016 415.776 191.072 415.488 188.192C415.2 185.312 415.392 182.272 416.96 179.84C419.2 185.248 419.392 191.392 416.768 196.64" fill="#66AF99"/>
<path d="M427.168 191.392C433.664 191.264 440.16 194.048 444.576 198.816C441.344 199.328 437.984 198.496 435.04 197.056C432.096 195.616 429.472 193.568 426.88 191.584" fill="#66AF99"/>
<path d="M434.176 189.056C437.344 188.8 440.384 188.416 443.456 189.344C446.496 190.272 449.28 192.416 450.528 195.36C447.552 195.68 444.544 194.944 441.824 193.696C439.104 192.48 436.608 190.752 434.176 189.056Z" fill="#66AF99"/>
<path d="M423.808 189.152C426.688 187.296 429.6 185.376 432.928 184.608C436.256 183.84 440.128 184.416 442.432 186.912C439.744 188.512 436.48 188.672 433.344 188.672C430.24 188.672 426.4 188.64 423.456 189.696" fill="#66AF99"/>
<path d="M423.808 189.312C428.672 184.512 430.528 175.904 428.576 169.344C424.736 175.168 423.008 182.368 423.808 189.312Z" fill="#66AF99"/>
<path d="M410.24 175.744C404.352 172.448 399.968 166.56 398.496 159.968C400.832 160.064 402.976 161.344 404.544 163.104C406.112 164.832 407.136 166.976 407.968 169.152C408.8 171.328 409.44 173.568 410.368 175.712" fill="#66AF99"/>
<path d="M412.8 178.56C414.304 176.448 416.096 173.6 418.144 172.032C420.224 170.464 422.912 169.536 425.44 170.112C422.88 174.72 418.016 177.952 412.8 178.56Z" fill="#66AF99"/>
<path d="M412.16 175.968C409.952 170.656 410.816 165.216 413.504 160.16C414.88 162.496 415.136 165.376 414.72 168.096C414.304 170.784 413.312 173.344 412.32 175.904" fill="#66AF99"/>
<path d="M397.056 152.832C396.384 152.256 395.68 151.488 395.872 150.624C396 149.984 396.64 149.536 397.312 149.44C397.952 149.344 398.624 149.504 399.232 149.728C404.224 151.424 408.832 155.136 410.336 160.16C405.472 158.624 400.928 156.128 397.056 152.832Z" fill="#66AF99"/>
<path d="M410.368 157.12C409.312 153.952 407.232 151.296 405.472 148.48C403.744 145.664 402.304 142.432 402.784 139.136C405.76 140.48 407.776 143.36 408.832 146.432C409.888 149.504 410.08 152.8 410.272 156.032" fill="#66AF99"/>
<path d="M410.368 158.272C411.616 154.592 411.744 149.952 413.952 146.752C415.488 144.544 417.92 143.008 419.264 140.64C420.128 142.848 419.872 145.408 418.944 147.584C418.016 149.792 416.512 151.68 414.88 153.408C413.248 155.136 411.872 156.448 410.368 158.272Z" fill="#66AF99"/>
<path d="M410.176 211.584C410.176 181.44 410.272 156.992 410.368 156.992C410.464 156.992 410.528 181.44 410.528 211.584C410.528 241.728 410.432 266.144 410.336 266.144C410.24 266.144 410.176 241.728 410.176 211.584Z" fill="#66AF99"/>
<path d="M389.952 193.152C390.56 193.312 391.424 193.568 392.512 193.92C394.656 194.592 397.6 195.584 400.8 196.896C402.4 197.568 403.904 198.208 405.248 198.848C406.624 199.488 407.776 200.192 408.64 200.96C409.504 201.728 409.952 202.56 410.176 203.168C410.272 203.456 410.336 203.712 410.336 203.872C410.357 204.043 410.368 204.128 410.368 204.128C410.336 204.128 410.272 203.776 410.048 203.2C409.792 202.656 409.312 201.856 408.48 201.152C406.784 199.68 403.808 198.592 400.672 197.216C397.504 195.936 394.56 194.88 392.416 194.144C391.424 193.792 390.56 193.504 389.888 193.28C389.312 193.088 388.96 192.96 388.992 192.96C388.992 192.928 389.344 192.992 389.952 193.152Z" fill="#66AF99"/>
<path d="M382.272 175.968C382.507 176.16 382.784 176.395 383.104 176.672C383.872 177.312 384.864 178.176 386.112 179.232C388.64 181.44 392.128 184.448 395.936 187.84C399.744 191.232 403.008 194.496 405.248 196.992C406.368 198.24 407.232 199.264 407.808 200C408.128 200.352 408.32 200.64 408.48 200.864C408.629 201.056 408.693 201.152 408.672 201.152C408.672 201.173 408.587 201.088 408.416 200.896C408.224 200.683 407.989 200.416 407.712 200.096C407.104 199.392 406.208 198.368 405.056 197.152C402.784 194.72 399.488 191.488 395.68 188.096C391.904 184.736 388.48 181.664 385.952 179.424C384.736 178.336 383.744 177.44 383.008 176.768C382.709 176.469 382.453 176.224 382.24 176.032C382.069 175.861 381.984 175.765 381.984 175.744C381.984 175.744 382.08 175.819 382.272 175.968Z" fill="#66AF99"/>
<path d="M399.168 190.4C398.816 189.664 398.368 188.64 397.984 187.456C397.184 185.12 396.96 183.104 397.024 183.072C397.152 183.072 397.504 185.024 398.304 187.36C399.104 189.664 399.904 191.488 399.808 191.552C399.744 191.552 399.52 191.136 399.168 190.4Z" fill="#66AF99"/>
<path d="M410.784 205.568C411.104 205.088 411.584 204.416 412.192 203.584C413.408 201.92 415.136 199.648 417.088 197.152C419.04 194.688 420.864 192.512 422.208 190.944C422.912 190.176 423.456 189.536 423.84 189.12C424.224 188.704 424.448 188.48 424.48 188.48C424.512 188.512 424.32 188.768 423.936 189.216C423.531 189.728 423.019 190.358 422.4 191.104C421.12 192.704 419.328 194.912 417.376 197.376C415.392 199.84 413.664 202.112 412.416 203.744C411.797 204.512 411.296 205.152 410.912 205.664C410.528 206.112 410.336 206.336 410.304 206.336C410.304 206.336 410.464 206.048 410.784 205.568Z" fill="#66AF99"/>
<path d="M416.608 196.544C417.088 195.008 417.184 193.6 417.248 192.96L417.408 192.928C417.429 193.227 417.429 193.376 417.408 193.376C417.365 193.376 417.312 193.238 417.248 192.96H417.408C417.472 193.6 417.44 195.072 416.96 196.64C416.32 198.912 415.04 200.384 415.008 200.32C414.912 200.256 416 198.72 416.608 196.544Z" fill="#66AF99"/>
<path d="M422.304 191.68C423.264 191.264 424.704 191.136 426.24 191.264C427.776 191.392 429.152 191.712 430.112 192C431.072 192.288 431.648 192.576 431.616 192.608C431.616 192.672 431.008 192.48 430.048 192.224C429.088 192 427.712 191.744 426.208 191.616C424.704 191.488 423.328 191.584 422.4 191.936C421.504 192.256 421.088 192.768 421.056 192.704C421.024 192.704 421.344 192.128 422.304 191.68Z" fill="#66AF99"/>
<path d="M422.976 190.56C423.328 190.368 423.84 190.144 424.48 189.888C425.792 189.376 427.648 188.864 429.792 188.672C431.904 188.512 433.856 188.736 435.2 189.056C435.872 189.216 436.416 189.376 436.768 189.504C437.152 189.632 437.344 189.728 437.344 189.728C437.312 189.792 436.512 189.536 435.136 189.312C433.792 189.056 431.904 188.864 429.824 189.024C427.712 189.184 425.856 189.664 424.576 190.112C423.264 190.56 422.496 190.944 422.464 190.88C422.464 190.848 422.656 190.752 422.976 190.56Z" fill="#66AF99"/>
<path d="M411.552 177.696C412.288 174.72 412.992 172.352 413.088 172.352C413.184 172.384 412.64 174.816 411.904 177.76C411.136 180.736 410.464 183.104 410.368 183.072C410.272 183.072 410.784 180.64 411.552 177.696Z" fill="#66AF99"/>
<path d="M411.68 179.712C412.256 178.848 412.928 178.208 413.504 177.824C414.048 177.44 414.432 177.28 414.464 177.312C414.496 177.408 413.088 178.24 411.968 179.904C410.816 181.536 410.368 183.104 410.272 183.072C410.176 183.072 410.464 181.376 411.68 179.712Z" fill="#66AF99"/>
<path d="M410.368 252.704C410.411 252.406 410.485 251.99 410.592 251.456C410.816 250.4 411.296 248.896 412.128 247.168C413.76 243.648 416.832 239.232 420.768 234.816C422.688 232.608 424.576 230.528 426.176 228.576C427.776 226.592 429.088 224.736 430.08 223.072C431.04 221.408 431.712 220 432.096 219.008C432.512 218.016 432.704 217.44 432.736 217.44C432.736 217.462 432.693 217.611 432.608 217.888C432.544 218.166 432.416 218.56 432.224 219.072C431.872 220.064 431.264 221.504 430.304 223.2C429.344 224.864 428.032 226.784 426.432 228.768C424.832 230.752 422.944 232.864 421.024 235.072C417.12 239.456 414.048 243.808 412.352 247.264C411.52 248.992 411.008 250.464 410.72 251.488C410.432 252.544 410.368 253.12 410.336 253.12C410.315 253.12 410.325 252.982 410.368 252.704Z" fill="#66AF99"/>
<path d="M391.328 231.424C391.52 231.488 391.776 231.616 392.128 231.776C392.8 232.096 393.728 232.64 394.816 233.44C395.904 234.208 397.12 235.264 398.368 236.544C399.584 237.824 400.832 239.296 402.112 240.896C404.672 244.096 407.008 246.944 408.384 249.248C409.088 250.4 409.6 251.36 409.888 252.032C410.08 252.384 410.176 252.64 410.24 252.832C410.325 253.024 410.357 253.12 410.336 253.12C410.304 253.12 410.112 252.768 409.792 252.096C409.44 251.456 408.896 250.496 408.192 249.376C406.752 247.136 404.384 244.32 401.856 241.12C400.576 239.52 399.328 238.048 398.112 236.768C396.896 235.488 395.744 234.432 394.688 233.632C393.632 232.832 392.704 232.256 392.064 231.904C391.392 231.552 391.04 231.36 391.04 231.328C391.04 231.307 391.136 231.339 391.328 231.424Z" fill="#66AF99"/>
<path d="M392.832 238.464C394.144 238.56 396 238.752 397.984 239.36C399.936 240 401.536 241.024 402.56 241.888C403.072 242.336 403.456 242.752 403.68 243.04C403.904 243.328 404 243.52 404 243.52C403.936 243.552 403.456 242.912 402.4 242.08C401.376 241.28 399.776 240.32 397.856 239.712C395.936 239.104 394.112 238.88 392.8 238.72C391.488 238.56 390.656 238.464 390.656 238.4C390.656 238.368 391.488 238.368 392.832 238.464Z" fill="#66AF99"/>
<path d="M402.688 241.824C402.304 241.248 401.824 240.384 401.44 239.36C401.056 238.336 400.896 237.344 400.832 236.64C400.736 235.968 400.736 235.52 400.768 235.52C400.896 235.488 401.088 237.248 401.76 239.232C402.528 241.216 403.488 242.688 403.36 242.752C403.328 242.784 403.072 242.432 402.688 241.824Z" fill="#66AF99"/>
<path d="M385.152 212.448C385.429 212.555 385.771 212.693 386.176 212.864C386.656 213.024 387.2 213.248 387.808 213.536C388.416 213.856 389.12 214.144 389.888 214.592C390.251 214.784 390.645 214.997 391.072 215.232C391.456 215.456 391.872 215.744 392.32 216C393.184 216.512 394.048 217.152 394.976 217.792C396.8 219.168 398.72 220.768 400.544 222.656C402.368 224.544 403.936 226.528 405.216 228.384C405.856 229.344 406.464 230.24 406.944 231.136C407.2 231.584 407.456 232 407.648 232.416C407.861 232.821 408.064 233.216 408.256 233.6C408.672 234.368 408.96 235.104 409.216 235.712C409.504 236.352 409.696 236.896 409.856 237.344C410.005 237.771 410.133 238.123 410.24 238.4C410.304 238.635 410.336 238.763 410.336 238.784C410.315 238.784 410.251 238.667 410.144 238.432C410.037 238.155 409.899 237.813 409.728 237.408C409.568 236.96 409.344 236.416 409.056 235.808C408.768 235.2 408.448 234.464 408.032 233.728C407.84 233.344 407.637 232.949 407.424 232.544C407.2 232.128 406.944 231.712 406.688 231.296C406.208 230.4 405.568 229.536 404.96 228.576C403.648 226.72 402.112 224.8 400.288 222.912C398.496 221.024 396.576 219.424 394.784 218.048C393.888 217.408 393.024 216.768 392.16 216.224C391.712 215.968 391.328 215.712 390.912 215.456C390.507 215.221 390.123 215.008 389.76 214.816C389.024 214.368 388.32 214.048 387.712 213.728C387.104 213.408 386.592 213.184 386.144 212.992C385.739 212.8 385.397 212.64 385.12 212.512C384.907 212.405 384.8 212.352 384.8 212.352C384.8 212.331 384.917 212.363 385.152 212.448Z" fill="#66AF99"/>
<path d="M399.072 221.504C398.368 220.96 397.184 220.416 395.84 220.384C394.464 220.352 393.216 220.704 392.352 220.96C391.488 221.248 390.944 221.44 390.944 221.376C390.912 221.344 391.424 221.056 392.288 220.736C393.12 220.384 394.4 220 395.84 220.032C397.28 220.064 398.528 220.672 399.232 221.312C399.936 221.984 400.096 222.56 400.064 222.592C400 222.624 399.744 222.08 399.072 221.504Z" fill="#66AF99"/>
<path d="M401.76 224.128C401.44 223.584 401.152 222.784 401.024 221.856C400.928 220.896 401.024 220.032 401.216 219.456C401.376 218.848 401.568 218.528 401.6 218.528C401.696 218.56 401.152 220 401.376 221.792C401.568 223.616 402.432 224.864 402.336 224.928C402.304 224.96 402.048 224.672 401.76 224.128Z" fill="#66AF99"/>
<path d="M427.2 256.64C426.688 265.952 423.872 275.456 419.552 285.056H400.736C396.608 275.552 393.984 266.08 393.504 256.64H427.2Z" fill="#6F91EE"/>
<path d="M427.2 256.64C426.688 265.952 423.872 275.456 419.552 285.056H400.736C396.608 275.552 393.984 266.08 393.504 256.64H427.2Z" fill="#545454"/>
<path d="M410.4 271.552C418.048 271.552 424.256 271.648 424.256 271.744C424.256 271.84 418.048 271.904 410.4 271.904C402.752 271.904 396.544 271.84 396.544 271.744C396.544 271.648 402.752 271.552 410.4 271.552Z" fill="#FAFAFA"/>
<path d="M409.952 274.944C417.12 274.944 422.944 275.008 422.944 275.136C422.944 275.232 417.12 275.296 409.952 275.296C402.784 275.296 396.992 275.232 396.992 275.136C396.992 275.008 402.784 274.944 409.952 274.944Z" fill="#FAFAFA"/>
<path d="M419.424 267.104C419.424 269.472 419.328 271.424 419.232 271.424C419.136 271.424 419.072 269.472 419.072 267.104C419.072 264.704 419.136 262.752 419.232 262.752C419.328 262.752 419.424 264.704 419.424 267.104Z" fill="#FAFAFA"/>
<path d="M409.344 267.232C409.344 269.728 409.248 271.744 409.152 271.744C409.056 271.744 408.992 269.728 408.992 267.232C408.992 264.768 409.056 262.752 409.152 262.752C409.248 262.752 409.344 264.768 409.344 267.232Z" fill="#FAFAFA"/>
<path d="M399.872 267.264C399.872 269.792 399.776 271.84 399.68 271.84C399.584 271.84 399.52 269.792 399.52 267.264C399.52 264.736 399.584 262.688 399.68 262.688C399.776 262.688 399.872 264.736 399.872 267.264Z" fill="#FAFAFA"/>
<path d="M410.336 262.592C419.296 262.592 426.56 262.656 426.56 262.752C426.56 262.848 419.296 262.944 410.336 262.944C401.376 262.944 394.112 262.848 394.112 262.752C394.112 262.656 401.376 262.592 410.336 262.592Z" fill="#FAFAFA"/>
<path d="M75.2317 266.59C77.7691 267.543 79.1937 270.239 78.5541 272.873C77.3929 277.655 75.7346 284.56 75.6172 285.481C75.4656 286.704 65.5209 293.565 62.8225 295.433C62.398 295.705 61.8826 295.773 61.4278 295.535C60.9525 295.298 60.3609 292.878 60.0255 290.717C59.6827 288.508 60.6458 286.547 62.2186 284.958L63.8765 283.284C65.4603 281.685 66.5166 279.639 66.9035 277.422L68.0801 270.679C68.6564 267.376 72.0933 265.411 75.2317 266.59Z" fill="#1A2751"/>
<path d="M61.7605 295.68L75.84 284.481L75.8103 285.179C75.7187 285.74 75.4373 286.25 75.0227 286.614C73.8648 287.577 70.625 290.205 63.2053 295.361C62.7871 295.663 62.2386 295.868 61.7605 295.68Z" fill="#263238"/>
<path d="M74.368 278.528C74.752 278.24 75.456 278.528 75.648 278.976C75.872 279.392 75.552 280.064 75.104 280.224C74.656 280.416 74.08 280.128 73.92 279.68C73.76 279.232 74.016 278.688 74.464 278.496" fill="#EBEBEB"/>
<path d="M66.368 287.616C66.272 287.648 66.08 286.752 65.248 286.112C64.448 285.44 63.552 285.472 63.552 285.376C63.552 285.344 63.776 285.248 64.16 285.28C64.512 285.312 65.024 285.472 65.472 285.824C65.92 286.208 66.208 286.656 66.304 287.008C66.432 287.36 66.4 287.616 66.368 287.616Z" fill="#263238"/>
<path d="M64.8 289.44C64.704 289.504 64.32 288.896 63.584 288.48C62.816 288.064 62.112 288.064 62.112 287.936C62.08 287.872 62.88 287.68 63.744 288.16C64.608 288.64 64.896 289.408 64.8 289.44Z" fill="#263238"/>
<path d="M68.992 285.408C68.896 285.472 68.32 284.512 67.2 283.776C66.112 283.04 64.992 282.848 65.024 282.752C65.024 282.656 66.208 282.688 67.392 283.488C68.576 284.288 69.088 285.376 68.992 285.408Z" fill="#263238"/>
<path d="M70.304 280.736C70.24 280.832 69.472 280.288 68.384 280C67.264 279.712 66.336 279.808 66.304 279.68C66.272 279.616 67.264 279.36 68.448 279.68C69.632 279.968 70.368 280.704 70.304 280.736Z" fill="#263238"/>
<path d="M71.328 276.192C71.264 276.288 70.496 275.584 69.312 275.36C68.128 275.136 67.2 275.552 67.136 275.456C67.136 275.392 67.36 275.232 67.744 275.104C68.16 274.976 68.736 274.912 69.376 275.04C70.016 275.136 70.56 275.424 70.88 275.68C71.2 275.968 71.36 276.192 71.328 276.192Z" fill="#263238"/>
<path d="M69.536 274.528C69.504 274.528 69.536 274.304 69.632 273.92C69.76 273.568 69.984 273.024 70.432 272.48C70.688 272.256 70.944 271.904 71.392 271.808C71.648 271.744 71.968 271.84 72.096 272.096C72.224 272.352 72.224 272.608 72.192 272.864C71.968 273.824 70.912 274.592 69.76 274.496C68.64 274.368 67.776 273.536 67.52 272.576C67.456 272.352 67.456 272.064 67.616 271.808C67.808 271.584 68.128 271.552 68.352 271.616C68.8 271.808 69.024 272.128 69.248 272.384C69.696 272.928 69.92 273.44 70.048 273.824C70.176 274.176 70.208 274.4 70.176 274.4C70.112 274.432 69.952 273.568 69.088 272.544C68.864 272.288 68.608 272 68.256 271.904C68.096 271.84 67.968 271.872 67.872 272C67.776 272.128 67.776 272.32 67.808 272.512C68.032 273.28 68.832 274.048 69.792 274.144C70.752 274.24 71.68 273.568 71.872 272.8C71.904 272.608 71.904 272.384 71.84 272.256C71.744 272.128 71.616 272.064 71.456 272.096C71.136 272.128 70.848 272.416 70.624 272.672C69.728 273.664 69.6 274.56 69.536 274.528Z" fill="#263238"/>
<path d="M121.376 265.408L123.968 281.056L129.6 289.6C129.984 290.432 129.6 294.688 128.736 295.04C128.224 295.232 127.68 295.168 127.232 294.88C124.448 293.056 114.144 286.272 114.016 285.12C113.856 283.776 110.176 268.8 110.176 268.8L121.376 265.408Z" fill="#1A2751"/>
<path d="M127.2 294.912C119.392 289.76 116 287.168 114.784 286.176C114.336 285.824 114.048 285.312 113.92 284.736L113.824 284.064L128.736 295.04C128.224 295.232 127.648 295.2 127.2 294.912Z" fill="#263238"/>
<path d="M116.032 279.552C116.48 279.744 116.704 280.32 116.544 280.768C116.352 281.216 115.776 281.472 115.36 281.28C114.912 281.088 114.592 280.416 114.816 280C115.04 279.552 115.744 279.296 116.128 279.584" fill="#EBEBEB"/>
<path d="M123.936 288.32C124.064 287.968 124.352 287.488 124.8 287.168C125.248 286.816 125.792 286.656 126.144 286.656C126.528 286.624 126.752 286.72 126.752 286.752C126.752 286.848 125.824 286.784 125.024 287.424C124.16 288.032 123.968 288.928 123.872 288.896C123.84 288.896 123.808 288.672 123.936 288.32Z" fill="#263238"/>
<path d="M126.464 289.536C127.328 289.088 128.16 289.28 128.128 289.376C128.096 289.472 127.392 289.44 126.624 289.856C125.856 290.24 125.472 290.816 125.376 290.784C125.28 290.752 125.6 289.984 126.464 289.536Z" fill="#263238"/>
<path d="M122.944 284.768C124.16 284 125.344 284 125.344 284.064C125.376 284.192 124.256 284.32 123.136 285.056C122.016 285.76 121.376 286.688 121.312 286.624C121.216 286.592 121.728 285.504 122.944 284.768Z" fill="#263238"/>
<path d="M122.016 280.896C123.2 280.608 124.16 280.896 124.16 280.992C124.128 281.088 123.2 280.96 122.08 281.248C120.96 281.504 120.16 282.016 120.128 281.92C120.064 281.856 120.8 281.184 122.016 280.896Z" fill="#263238"/>
<path d="M119.712 276.864C120.032 276.608 120.576 276.352 121.216 276.256C121.856 276.16 122.432 276.224 122.848 276.384C123.232 276.512 123.456 276.672 123.424 276.704C123.392 276.8 122.464 276.384 121.28 276.576C120.064 276.768 119.296 277.44 119.232 277.344C119.2 277.344 119.36 277.12 119.712 276.864Z" fill="#263238"/>
<path d="M120.032 273.824C119.808 273.6 119.552 273.312 119.232 273.248C119.072 273.216 118.912 273.28 118.848 273.408C118.752 273.536 118.752 273.728 118.784 273.92C118.944 274.72 119.872 275.424 120.832 275.36C121.792 275.296 122.592 274.528 122.848 273.76C122.88 273.568 122.88 273.376 122.816 273.248C122.72 273.152 122.56 273.088 122.4 273.152C122.08 273.248 121.824 273.536 121.6 273.76C120.672 274.752 120.512 275.616 120.448 275.584C120.416 275.584 120.448 275.36 120.576 275.008C120.704 274.656 120.96 274.144 121.408 273.6C121.632 273.344 121.888 273.024 122.336 272.864C122.56 272.8 122.88 272.832 123.04 273.088C123.232 273.312 123.2 273.6 123.168 273.856C122.88 274.784 121.984 275.616 120.832 275.712C119.712 275.776 118.688 274.976 118.464 273.984C118.432 273.728 118.432 273.472 118.592 273.248C118.72 272.992 119.04 272.896 119.264 272.96C119.744 273.088 120 273.408 120.224 273.664C120.672 274.208 120.864 274.752 120.992 275.136C121.088 275.488 121.088 275.712 121.088 275.712C120.992 275.744 120.896 274.848 120.032 273.824Z" fill="#263238"/>
<path d="M94.048 146.528L116.416 159.328L127.072 281.28L109.824 281.024L100.576 213.76L93.024 167.872L88.352 216.704L79.776 280.608L63.968 280.384C63.552 279.68 69.568 160.128 71.008 162.336L94.048 146.528Z" fill="#263238"/>
<path d="M105.76 81.8243C105.76 81.8243 115.456 86.7843 115.264 87.5203C115.072 88.2563 110.848 89.5683 110.848 89.5683L120.064 93.6643L117.92 104.608L115.616 131.808L120.864 172.416L119.904 175.936L69.1519 176.768L67.7759 172.928L74.5919 128.32L66.4639 96.0323L75.6799 89.7923C75.6799 89.7923 77.5679 86.0803 79.3919 84.4483C81.2479 82.8483 86.0799 81.9843 86.0799 81.9843C90.4959 79.2323 105.76 81.8243 105.76 81.8243Z" fill="#1A2751"/>
<g opacity="0.3">
<path d="M70.7519 151.52C73.5999 149.76 77.2479 149.44 80.3839 150.592C85.3439 152.448 88.6399 157.696 93.7919 158.88C97.5039 159.744 101.344 158.24 104.8 156.576C108.256 154.944 111.808 153.056 115.616 153.088C114.571 154.965 113.525 156.853 112.48 158.752C111.904 159.808 111.328 160.832 110.496 161.696C109.536 162.688 108.288 163.36 107.392 164.384C106.048 165.952 105.696 168.064 104.576 169.76C103.008 172.128 99.9679 173.408 97.1839 172.864C95.2319 172.48 93.5679 171.328 91.9359 170.208C84.2239 164.864 76.4159 159.392 70.6879 151.968" fill="black"/>
</g>
<path d="M76.864 102.176L75.968 132.384L92.64 153.376L85.088 159.04L83.392 157.728L81.632 158.368C76.896 158.784 62.688 142.816 61.568 139.008C60.48 135.168 63.744 108.576 64.16 103.52C64.576 98.4321 66.464 96.0321 66.464 96.0321C71.744 94.8161 76.864 102.176 76.864 102.176Z" fill="#1A2751"/>
<path d="M79.392 84.4482C79.424 84.4802 79.264 84.5442 78.976 84.8002C78.72 85.0562 78.368 85.4402 77.984 86.0162C77.568 86.5602 77.152 87.2962 76.64 88.1922C76.1066 89.0456 75.488 90.0162 74.784 91.1042L74.688 90.9762C75.616 90.6242 76.736 90.6242 77.792 90.9762C78.88 91.3282 79.936 91.9362 80.96 92.7042C82.976 94.2082 84.832 96.3522 86.592 98.7842C90.176 103.648 93.664 109.664 96.992 116.32L97.024 116.352V116.416C96.96 119.04 96.864 121.792 96.8 124.608C96.384 138.88 96 151.808 95.744 161.184C95.584 165.856 95.488 169.632 95.392 172.256C95.36 173.568 95.328 174.592 95.296 175.296C95.2746 175.616 95.264 175.872 95.264 176.064C95.2426 176.235 95.232 176.32 95.232 176.32C95.232 176.32 95.232 176.235 95.232 176.064C95.232 175.872 95.232 175.616 95.232 175.296C95.232 174.56 95.264 173.568 95.264 172.256C95.328 169.632 95.392 165.856 95.52 161.184C95.744 151.808 96.032 138.88 96.448 124.608C96.544 121.792 96.608 119.04 96.704 116.384V116.48C93.376 109.824 89.92 103.808 86.368 98.9442C84.608 96.5122 82.784 94.4002 80.8 92.8642C79.808 92.1282 78.784 91.5202 77.76 91.1682C76.704 90.8162 75.648 90.8162 74.752 91.1362L74.496 91.2322L74.656 91.0082C75.36 89.9202 75.9786 88.9496 76.512 88.0962C77.056 87.2642 77.472 86.4962 77.888 85.9522C78.304 85.3762 78.688 84.9922 78.944 84.7682C79.232 84.5442 79.392 84.4482 79.392 84.4482Z" fill="#263238"/>
<path d="M113.504 88.3203C113.536 88.3523 112.544 88.6403 111.008 89.2803C109.472 89.8883 107.392 90.8483 105.376 92.3843C103.392 93.9203 101.824 95.6163 100.704 96.8323C100.192 97.4083 99.7546 97.8883 99.392 98.2723C99.072 98.6243 98.88 98.8163 98.848 98.7843C98.848 98.7843 99.008 98.5603 99.296 98.2083C99.552 97.8243 100 97.3123 100.544 96.6723C101.6 95.4243 103.168 93.6963 105.184 92.1283C107.232 90.5603 109.344 89.6003 110.912 89.0563C111.712 88.7683 112.352 88.5763 112.8 88.4483C113.248 88.3523 113.504 88.2883 113.504 88.3203Z" fill="#263238"/>
<path d="M96.96 116.448C96.96 116.448 96.96 116.128 97.024 115.488C97.12 114.88 97.248 114.016 97.44 112.928C97.824 110.784 98.56 107.84 99.488 104.64C100.448 101.44 101.44 98.5924 102.336 96.5764C102.784 95.5844 103.168 94.7844 103.456 94.2404C103.776 93.7284 103.936 93.4404 103.968 93.4404C103.968 93.4404 103.84 93.7604 103.584 94.3044C103.328 94.8484 102.944 95.6804 102.56 96.6724C101.728 98.6884 100.768 101.568 99.808 104.736C98.88 107.936 98.112 110.848 97.664 112.992C97.44 114.048 97.28 114.912 97.152 115.52C97.056 116.128 96.992 116.448 96.96 116.448Z" fill="#263238"/>
<path d="M98.56 98.5925C98.464 98.5605 99.616 95.9685 101.152 92.8325C102.656 89.6965 103.968 87.1685 104.032 87.2005C104.128 87.2645 102.944 89.8245 101.44 92.9925C99.936 96.1285 98.624 98.6245 98.56 98.5925Z" fill="#263238"/>
<path d="M100.128 110.56L100.288 110.272C100.416 110.368 100.672 110.464 100.864 110.464C101.12 110.464 101.248 110.368 101.248 110.272C101.248 109.92 100.16 110.144 100.192 109.472C100.192 109.152 100.448 108.896 100.96 108.896C101.184 108.896 101.44 108.96 101.6 109.088L101.472 109.408C101.301 109.302 101.131 109.248 100.96 109.248C100.704 109.248 100.608 109.344 100.608 109.44C100.608 109.792 101.664 109.568 101.664 110.24C101.664 110.56 101.408 110.816 100.864 110.784C100.576 110.784 100.288 110.688 100.128 110.56Z" fill="white"/>
<path d="M103.36 110.464V110.816L101.952 110.784L101.984 108.96H103.36V109.312L102.4 109.28L102.368 109.696H103.232V110.048L102.368 110.016V110.432L103.36 110.464Z" fill="white"/>
<path d="M103.584 109.888C103.616 109.344 104.032 108.96 104.608 108.96C104.928 108.96 105.184 109.088 105.344 109.28L105.088 109.536C104.96 109.387 104.8 109.312 104.608 109.312C104.288 109.312 104.032 109.536 104.032 109.888C104.032 110.24 104.256 110.496 104.608 110.496C104.779 110.496 104.928 110.422 105.056 110.272L105.344 110.528C105.152 110.752 104.896 110.848 104.576 110.848C104 110.848 103.584 110.432 103.584 109.888Z" fill="white"/>
<path d="M107.104 110.593C106.944 110.785 106.72 110.881 106.4 110.881C105.888 110.881 105.6 110.561 105.6 110.017V108.993H106.048L106.016 110.017C106.016 110.369 106.176 110.529 106.432 110.529C106.688 110.529 106.848 110.369 106.848 110.017V109.857C106.869 109.921 106.891 109.985 106.912 110.049C106.933 110.134 106.955 110.219 106.976 110.305C107.019 110.411 107.061 110.507 107.104 110.593Z" fill="white"/>
<path d="M107.488 109.472V110.496C107.467 110.773 107.381 110.987 107.232 111.136C107.253 110.944 107.243 110.741 107.2 110.528C107.179 110.464 107.157 110.39 107.136 110.304C107.115 110.262 107.093 110.208 107.072 110.144C107.072 110.123 107.072 110.101 107.072 110.08V109.472H107.488Z" fill="white"/>
<path fill-rule="evenodd" clip-rule="evenodd" d="M109.056 111.328L108.704 110.816H108.32V111.328H107.904V109.472L108.704 109.504C109.184 109.504 109.504 109.76 109.504 110.176C109.504 110.432 109.344 110.656 109.12 110.752L109.504 111.328H109.056ZM108.704 109.856L108.352 109.824L108.32 110.464L108.672 110.496C108.928 110.496 109.056 110.368 109.088 110.176C109.088 109.952 108.96 109.856 108.704 109.856Z" fill="white"/>
<path d="M109.856 109.504H110.272L110.24 111.36L109.824 111.328L109.856 109.504Z" fill="white"/>
<path d="M111.072 109.856H110.496V109.504L112.096 109.536V109.888H111.488V111.36H111.04L111.072 109.856Z" fill="white"/>
<path d="M113.152 110.752V111.392H112.704L112.736 110.72L112.032 109.536H112.48L112.96 110.368L113.472 109.568H113.888L113.152 110.752Z" fill="white"/>
<path d="M108.576 115.52C108.544 115.52 108.448 115.36 108.32 115.04C108.16 114.72 108 114.24 107.776 113.664C107.392 112.48 106.944 110.816 106.688 108.928C106.464 107.04 106.464 105.28 106.56 104.064C106.624 103.424 106.688 102.912 106.72 102.592C106.784 102.24 106.848 102.048 106.848 102.048C106.912 102.048 106.848 102.816 106.784 104.064C106.752 105.312 106.784 107.008 107.008 108.864C107.264 110.752 107.648 112.416 108 113.6C108.352 114.784 108.608 115.488 108.576 115.52Z" fill="#263238"/>
<g opacity="0.3">
<path d="M98.1759 110.784C98.9119 107.04 99.9359 103.264 101.248 99.5201C101.92 97.5681 103.968 93.6961 103.968 93.6961C103.968 93.6961 107.328 90.9761 109.216 90.1441C109.888 89.8561 110.816 89.4081 111.04 89.5361C111.04 89.5361 108.672 92.4161 108.064 93.4721C104.704 99.0721 102.304 102.56 101.248 108.992C100.864 111.168 100.256 114.08 99.9039 116.288C99.4559 119.104 97.4079 124.768 96.8639 124.544C96.3839 124.384 97.1839 116.608 97.1839 116.128C97.2159 113.824 97.9519 112.704 98.2079 110.432" fill="black"/>
</g>
<g opacity="0.3">
<path d="M85.056 97.0561C87.264 99.7441 89.248 102.624 90.944 105.664C92.64 108.704 94.4 111.68 96.128 114.72C93.6 113.248 92.224 110.464 90.72 107.968C88.896 104.96 86.752 102.176 84.256 99.6801C82.752 98.1761 81.088 96.7361 79.104 96.0001C78.24 95.6801 77.344 95.4881 76.544 95.0401C75.744 94.6241 75.04 93.8241 75.04 92.9281C75.04 92.0321 77.088 90.9121 77.088 90.9121C79.232 91.1041 82.848 94.3681 85.056 97.0561Z" fill="black"/>
</g>
<path d="M69.728 135.84C69.728 135.84 69.728 135.787 69.728 135.68C69.7066 135.573 69.7066 135.413 69.728 135.2C69.76 134.784 69.888 134.144 70.336 133.44C70.752 132.768 71.52 132.064 72.64 131.776C73.728 131.52 75.104 131.68 76.192 132.576L75.936 132.704C75.84 130.752 75.968 128.544 76.32 126.24C76.64 124.128 77.024 122.144 77.248 120.352C77.472 118.528 77.6 116.864 77.632 115.488C77.664 114.08 77.664 112.96 77.632 112.192C77.632 111.829 77.632 111.531 77.632 111.296C77.632 111.083 77.6426 110.976 77.664 110.976C77.664 110.976 77.6746 111.083 77.696 111.296C77.7173 111.531 77.7386 111.829 77.76 112.192C77.824 112.96 77.856 114.08 77.856 115.488C77.856 116.864 77.76 118.528 77.536 120.384C77.344 122.208 76.96 124.192 76.64 126.304C76.288 128.576 76.16 130.752 76.224 132.672L76.256 133.024L75.968 132.8C75.008 131.968 73.696 131.776 72.704 132.032C71.648 132.256 70.912 132.928 70.496 133.536C70.048 134.176 69.888 134.784 69.824 135.2C69.76 135.616 69.76 135.84 69.728 135.84Z" fill="#263238"/>
<path d="M71.36 151.456C71.36 151.456 71.424 151.51 71.552 151.616C71.7013 151.766 71.8933 151.947 72.128 152.16C72.608 152.64 73.344 153.344 74.336 154.144C75.328 154.912 76.544 155.872 78.048 156.768C78.816 157.216 79.616 157.664 80.544 158.016C80.992 158.176 81.472 158.272 81.952 158.208C82.432 158.176 82.944 157.984 83.296 157.632L83.392 157.536L83.488 157.632C84.032 158.048 84.608 158.464 85.184 158.912H84.992C87.328 157.184 89.888 155.264 92.544 153.248L92.512 153.472C92.4693 153.43 92.4266 153.376 92.384 153.312C90.112 150.464 88.064 147.68 86.176 145.152C84.288 142.624 82.592 140.384 81.12 138.496C79.648 136.64 78.4 135.168 77.504 134.208C77.056 133.696 76.672 133.344 76.448 133.088C76.192 132.832 76.0746 132.694 76.096 132.672C76.096 132.672 76.224 132.79 76.48 133.024C76.736 133.28 77.12 133.632 77.6 134.112C78.528 135.072 79.808 136.512 81.312 138.368C82.816 140.224 84.544 142.464 86.432 144.96C88.352 147.488 90.368 150.272 92.64 153.12C92.6826 153.163 92.7253 153.216 92.768 153.28L92.896 153.408L92.768 153.504C90.08 155.52 87.52 157.44 85.184 159.168L85.088 159.232L84.992 159.168C84.416 158.72 83.84 158.272 83.296 157.856L83.52 157.824C83.072 158.272 82.528 158.464 81.984 158.496C81.44 158.56 80.928 158.464 80.448 158.272C79.52 157.92 78.688 157.44 77.92 156.96C76.416 156.032 75.2 155.072 74.208 154.272C73.248 153.44 72.544 152.736 72.064 152.224C71.8293 151.99 71.648 151.798 71.52 151.648C71.392 151.52 71.3386 151.456 71.36 151.456Z" fill="#263238"/>
<path d="M77.44 104.384C77.376 104.416 77.12 103.648 76.512 102.528C76.224 101.984 75.776 101.344 75.264 100.704C74.752 100.032 74.112 99.3601 73.376 98.7521C72.608 98.1121 71.84 97.6321 71.104 97.2161C70.368 96.8321 69.664 96.5121 69.056 96.3201C67.84 95.9361 67.072 95.8081 67.072 95.7441C67.072 95.7441 67.264 95.7441 67.648 95.7761C68 95.8081 68.512 95.9361 69.12 96.0961C69.76 96.2881 70.464 96.5761 71.264 96.9601C72 97.3441 72.8 97.8561 73.568 98.4961C74.336 99.1361 74.976 99.8081 75.52 100.512C76.032 101.184 76.448 101.856 76.736 102.432C77.024 103.008 77.216 103.488 77.312 103.84C77.408 104.192 77.44 104.384 77.44 104.384Z" fill="#263238"/>
<g opacity="0.3">
<path d="M106.656 105.248C106.848 107.84 107.584 110.368 108.768 112.672C108.928 112.992 109.12 113.344 109.024 113.696C108.928 114.048 108.192 114.336 107.968 113.888C106.784 110.976 106.464 108.384 106.656 105.248Z" fill="black"/>
</g>
<g opacity="0.3">
<path d="M69.4719 135.168C68.8959 133.408 69.7599 131.264 71.3919 130.368C71.8079 130.144 72.2879 129.984 72.7679 130.016C73.7919 130.08 74.5599 131.008 75.1679 131.84C74.0159 131.52 72.7039 131.68 71.6799 132.288C70.6559 132.896 69.9199 133.984 69.6959 135.136" fill="black"/>
</g>
<path d="M119.456 96.4803C119.52 96.5123 119.136 97.1203 118.592 98.1123C118.08 99.1363 117.408 100.576 116.864 102.208C116.32 103.872 116.032 105.44 115.872 106.56C115.68 107.68 115.648 108.416 115.584 108.416C115.552 108.416 115.52 107.68 115.616 106.528C115.712 105.376 116 103.808 116.544 102.112C117.088 100.448 117.792 99.0083 118.4 98.0163C118.976 97.0243 119.456 96.4483 119.456 96.4803Z" fill="#263238"/>
<g opacity="0.3">
<path d="M116.256 132.192L116.224 132.384L115.52 134.112L101.568 147.232L102.976 145.152C105.28 141.888 107.872 138.784 110.72 135.968C111.296 135.392 111.904 134.784 112.416 134.112C112.992 133.312 113.408 132.384 113.792 131.488C114.112 130.752 114.432 130.048 114.656 129.28C115.04 127.84 115.04 126.336 115.04 124.832C115.04 121.248 114.816 119.68 114.816 116.064C114.816 116.064 114.912 113.088 115.232 112.736L116.256 132.192Z" fill="black"/>
</g>
<path d="M120.064 93.6641C120.064 93.6641 122.24 94.4961 123.392 99.3921C124.736 105.088 126.464 114.496 126.72 118.08C126.944 121.056 129.888 132.032 127.616 136.864C125.344 141.696 114.304 156.608 109.952 157.088L108.16 156.64L106.24 156.96L100.896 150.816L101.376 149.056C101.376 149.056 100.768 148.064 101.376 147.2C102.016 146.304 115.648 133.504 115.648 133.504C115.648 133.504 115.136 133.44 115.04 132.544C114.848 131.04 116.16 131.072 116.16 131.072L115.264 117.664L120.064 93.6641Z" fill="#1A2751"/>
<path d="M120.864 135.104C120.832 135.168 119.808 134.464 118.4 134.016C116.96 133.536 115.712 133.536 115.712 133.44C115.712 133.344 116.992 133.184 118.496 133.696C119.968 134.144 120.928 135.04 120.864 135.104Z" fill="#263238"/>
<path d="M123.648 133.088C123.584 133.184 122.24 131.872 120.096 131.328C117.984 130.72 116.16 131.2 116.16 131.072C116.16 131.04 116.576 130.88 117.312 130.784C118.048 130.688 119.104 130.72 120.192 131.008C121.28 131.296 122.208 131.808 122.784 132.256C123.36 132.704 123.648 133.056 123.648 133.088Z" fill="#263238"/>
<path d="M115.712 133.44C115.712 133.472 115.488 133.44 115.232 133.248C115.072 133.12 114.944 132.96 114.848 132.736C114.784 132.512 114.784 132.224 114.848 131.968C114.912 131.808 114.976 131.648 115.04 131.488V131.52C115.232 131.072 115.648 130.976 115.872 130.976C116.128 130.944 116.288 131.008 116.256 131.072C116.256 131.104 116.128 131.104 115.936 131.168C115.744 131.232 115.424 131.36 115.328 131.648V131.68C115.264 131.776 115.2 131.904 115.168 132.064C115.072 132.48 115.168 132.864 115.392 133.056C115.584 133.28 115.744 133.376 115.712 133.44Z" fill="#263238"/>
<path d="M115.104 112.064C115.136 112.064 115.168 112.352 115.232 112.832C115.296 113.312 115.36 113.984 115.424 114.848C115.552 116.576 115.68 118.944 115.808 121.6C115.904 124.192 116 126.528 116.096 128.32C116.117 129.131 116.139 129.813 116.16 130.368C116.192 130.848 116.192 131.104 116.16 131.104C116.128 131.136 116.096 130.848 116.032 130.368C115.968 129.888 115.904 129.216 115.84 128.352C115.712 126.624 115.584 124.224 115.456 121.6C115.36 119.008 115.264 116.672 115.168 114.88C115.147 114.069 115.125 113.387 115.104 112.832C115.072 112.352 115.072 112.064 115.104 112.064Z" fill="#263238"/>
<path d="M115.936 133.344C115.957 133.344 115.851 133.451 115.616 133.664C115.36 133.899 115.019 134.208 114.592 134.592C113.696 135.392 112.416 136.544 110.848 137.984C109.28 139.424 107.392 141.184 105.344 143.2C104.32 144.192 103.232 145.28 102.112 146.4C101.856 146.688 101.6 146.976 101.44 147.328C101.28 147.648 101.248 148.032 101.312 148.416C101.376 148.8 101.536 149.184 101.504 149.664C101.504 150.112 101.344 150.656 100.832 150.848L100.896 150.592C101.792 151.616 102.72 152.672 103.648 153.76C104.587 154.806 105.493 155.84 106.368 156.864L106.208 156.8C106.848 156.694 107.488 156.587 108.128 156.48H108.16C108.992 156.576 109.696 156.96 110.432 156.832C111.136 156.736 111.776 156.384 112.352 155.936C113.504 155.04 114.496 154.048 115.424 153.088C117.248 151.168 118.752 149.344 120 147.808C121.216 146.272 122.176 145.024 122.848 144.16C123.168 143.755 123.424 143.435 123.616 143.2C123.787 142.966 123.883 142.848 123.904 142.848C123.904 142.87 123.829 142.998 123.68 143.232C123.488 143.488 123.243 143.819 122.944 144.224C122.304 145.12 121.376 146.368 120.16 147.936C118.944 149.504 117.44 151.328 115.616 153.28C114.688 154.24 113.728 155.264 112.544 156.192C111.968 156.64 111.264 157.056 110.464 157.152C109.632 157.28 108.864 156.864 108.128 156.8H108.192C107.552 156.907 106.912 157.014 106.272 157.12L106.176 157.152L106.112 157.056C105.237 156.054 104.331 155.03 103.392 153.984C102.464 152.896 101.536 151.84 100.64 150.816L100.48 150.624L100.704 150.56C101.024 150.432 101.184 150.016 101.184 149.664C101.216 149.28 101.056 148.896 100.992 148.48C100.928 148.064 100.96 147.552 101.152 147.168C101.344 146.784 101.632 146.464 101.888 146.176C103.019 145.046 104.107 143.99 105.152 143.008C107.232 140.992 109.12 139.264 110.72 137.824C112.32 136.384 113.6 135.264 114.528 134.496C114.955 134.134 115.307 133.846 115.584 133.632C115.819 133.44 115.936 133.344 115.936 133.344Z" fill="#263238"/>
<path d="M115.616 125.664C115.616 125.76 106.912 125.696 96.1279 125.536C85.3759 125.376 76.6719 125.184 76.6719 125.088C76.6719 124.992 85.3759 125.056 96.1599 125.216C106.912 125.376 115.616 125.568 115.616 125.664Z" fill="#263238"/>
<path d="M105.6 130.944C105.621 130.944 105.621 131.03 105.6 131.2C105.568 131.36 105.536 131.584 105.472 131.872C105.344 132.48 105.12 133.344 104.704 134.368C103.904 136.416 102.208 139.072 99.4559 141.088C96.6719 143.072 93.6 143.808 91.424 143.936C90.304 144 89.4399 143.968 88.7999 143.872C88.5119 143.84 88.2879 143.808 88.1279 143.776C87.9573 143.734 87.8719 143.712 87.8719 143.712C87.8719 143.616 89.2159 143.904 91.3919 143.712C93.5359 143.52 96.544 142.752 99.264 140.8C101.952 138.848 103.648 136.256 104.48 134.272C105.376 132.288 105.536 130.912 105.6 130.944Z" fill="#263238"/>
<path d="M86.944 157.696C86.88 157.76 86.5279 157.536 86.1759 157.152C85.8559 156.8 85.696 156.384 85.792 156.352C85.856 156.288 86.112 156.576 86.432 156.96C86.752 157.312 87.008 157.6 86.944 157.696Z" fill="#263238"/>
<path d="M89.376 155.776C89.312 155.84 89.024 155.584 88.768 155.232C88.512 154.88 88.352 154.528 88.416 154.496C88.48 154.432 88.768 154.688 89.024 155.04C89.312 155.392 89.44 155.712 89.376 155.776Z" fill="#263238"/>
<path d="M103.52 150.656C103.584 150.72 103.2 151.008 102.752 151.296C102.304 151.616 101.92 151.84 101.856 151.776C101.792 151.712 102.08 151.36 102.56 151.04C103.04 150.72 103.488 150.56 103.52 150.656Z" fill="#263238"/>
<path d="M105.344 152.416C105.44 152.48 105.216 152.96 104.736 153.408C104.288 153.888 103.776 154.08 103.744 154.016C103.68 153.92 104.064 153.6 104.512 153.184C104.928 152.768 105.28 152.384 105.344 152.416Z" fill="#263238"/>
<path d="M107.104 154.56C107.168 154.624 106.88 155.04 106.4 155.392C105.92 155.776 105.472 155.968 105.408 155.872C105.376 155.808 105.728 155.488 106.208 155.136C106.656 154.784 107.008 154.496 107.104 154.56Z" fill="#263238"/>
<path d="M82.272 86.432C82.368 86.4 83.104 88.32 84.416 90.496C85.728 92.704 87.04 94.272 86.976 94.336C86.944 94.368 86.56 94.016 86.016 93.376C85.472 92.736 84.8 91.776 84.128 90.688C83.488 89.568 82.976 88.512 82.688 87.744C82.368 86.976 82.208 86.464 82.272 86.432Z" fill="#263238"/>
<path d="M120.864 172.416C120.864 172.437 120.683 172.448 120.32 172.448C119.936 172.448 119.424 172.459 118.784 172.48C117.408 172.48 115.456 172.48 113.088 172.512C108.256 172.576 101.632 172.768 94.2719 172.992C86.9439 173.216 80.2879 173.344 75.4559 173.344C73.0559 173.344 71.1039 173.344 69.7599 173.28C69.0986 173.28 68.5759 173.269 68.1919 173.248C67.8506 173.227 67.6799 173.216 67.6799 173.216C67.6799 173.195 67.8613 173.184 68.2239 173.184C68.6079 173.184 69.1199 173.173 69.7599 173.152C71.1359 173.152 73.0879 173.12 75.4559 173.12C80.2879 173.056 86.9119 172.864 94.2719 172.64C101.6 172.416 108.256 172.288 113.088 172.288C115.488 172.288 117.44 172.288 118.784 172.32C119.424 172.341 119.936 172.363 120.32 172.384C120.683 172.405 120.864 172.416 120.864 172.416Z" fill="#263238"/>
<path d="M107.616 87.4883C107.552 87.5523 106.752 86.6563 105.536 85.9203C104.32 85.1523 103.168 84.8323 103.2 84.7363C103.2 84.6723 104.416 84.8323 105.696 85.6323C106.976 86.4323 107.68 87.4563 107.616 87.4883Z" fill="#1A2751"/>
<path d="M103.456 158.208C103.712 158.688 104.288 158.848 104.8 158.848C105.344 158.816 105.856 158.656 106.368 158.624C106.88 158.592 107.456 158.752 107.744 159.2C107.936 159.552 107.904 160.032 107.68 160.384C107.488 160.736 107.136 160.992 106.784 161.216C105.088 162.208 102.752 161.984 101.248 160.672" fill="#B78876"/>
<path d="M101.216 160.48C101.376 161.28 101.952 161.888 102.56 162.432C103.168 162.944 103.84 163.392 104.32 164.032C104.8 164.64 105.056 165.536 104.704 166.272C104.352 166.976 103.2 167.232 102.72 166.592C102.88 167.072 102.656 167.648 102.208 167.936C101.792 168.192 101.248 168.192 100.8 168.032C100.768 168 100.736 168.032 100.736 168.064C100.896 168.64 100.672 169.28 100.224 169.632C99.712 169.984 98.976 169.952 98.528 169.568C98.816 169.92 98.464 170.528 97.984 170.624C97.536 170.688 97.088 170.432 96.672 170.176C94.912 169.024 93.248 167.68 91.744 166.176" fill="#B78876"/>
<path d="M98.7199 169.856C98.6879 169.92 97.8239 169.568 97.0239 168.768C96.2239 167.968 95.8719 167.104 95.9679 167.072C96.0319 167.008 96.5119 167.776 97.2799 168.544C98.0159 169.28 98.7519 169.76 98.7199 169.856Z" fill="#AA6550"/>
<path d="M101.12 168.352C101.056 168.448 100.32 168.032 99.584 167.296C98.848 166.592 98.4639 165.856 98.5279 165.792C98.5919 165.76 99.104 166.368 99.84 167.072C100.512 167.776 101.152 168.288 101.12 168.352Z" fill="#AA6550"/>
<path d="M103.2 166.88C103.136 166.976 102.432 166.592 101.728 165.92C101.024 165.248 100.64 164.544 100.736 164.48C100.8 164.416 101.312 165.024 101.984 165.664C102.656 166.336 103.264 166.816 103.2 166.88Z" fill="#AA6550"/>
<path d="M87.552 151.712C87.552 151.712 87.36 150.88 89.44 151.136C91.552 151.424 92.48 151.616 94.848 151.488C97.216 151.36 101.056 150.688 101.056 150.688L107.2 156.128C107.2 156.128 100.896 161.664 99.008 162.656C97.12 163.648 93.28 166.08 91.104 165.984C89.44 165.888 89.312 165.056 89.312 165.056C89.312 165.056 87.68 163.936 87.904 163.392C87.904 163.392 85.984 163.296 86.368 161.824C86.368 161.824 84.992 161.568 84.768 160.8C84.544 160 85.568 159.072 85.984 158.688C86.624 158.048 92.224 153.952 92.256 153.824C92.256 153.824 87.456 153.344 87.552 151.712Z" fill="#B78876"/>
<path d="M91.52 157.696C91.584 157.76 90.432 158.72 88.992 159.84C87.552 160.96 86.336 161.792 86.272 161.728C86.208 161.664 87.328 160.704 88.8 159.584C90.24 158.464 91.456 157.632 91.52 157.696Z" fill="#AA6550"/>
<path d="M94.496 158.272C94.528 158.304 94.24 158.688 93.76 159.264C93.248 159.84 92.48 160.608 91.552 161.344C90.624 162.048 89.728 162.592 89.024 162.944C88.352 163.296 87.904 163.456 87.872 163.424C87.84 163.328 89.536 162.496 91.36 161.056C93.184 159.648 94.4 158.208 94.496 158.272Z" fill="#AA6550"/>
<path d="M97.12 160.16C97.152 160.192 96.896 160.64 96.288 161.28C95.712 161.952 94.816 162.752 93.664 163.424C92.512 164.128 91.392 164.544 90.528 164.768C89.696 164.96 89.152 164.992 89.152 164.96C89.12 164.864 91.264 164.512 93.504 163.136C95.744 161.824 97.056 160.096 97.12 160.16Z" fill="#AA6550"/>
<path d="M104.672 158.4C104.672 158.432 104.512 158.592 104.192 158.88C103.872 159.168 103.424 159.584 102.816 160.064C101.632 161.024 99.904 162.272 97.888 163.456C96.864 164.064 95.904 164.576 94.976 165.024C94.08 165.472 93.216 165.824 92.448 165.952C91.68 166.144 91.008 166.08 90.592 165.984C90.176 165.856 89.984 165.728 89.984 165.696C89.984 165.632 90.912 166.112 92.384 165.728C93.12 165.568 93.952 165.216 94.848 164.736C95.744 164.288 96.704 163.776 97.728 163.168C99.712 162.016 101.44 160.8 102.656 159.872C103.904 158.976 104.608 158.368 104.672 158.4Z" fill="#AA6550"/>
<path d="M103.392 62.4641L101.952 86.6561C101.696 91.0081 97.952 94.3361 93.6 94.0801C89.12 93.7921 85.792 89.9201 86.176 85.4721C86.368 83.2641 86.56 81.4721 86.56 81.4721C86.56 81.4721 80.576 80.4801 80.576 74.4641C80.576 71.6481 80.928 66.1121 81.312 60.9921C81.792 54.8161 87.2 50.2401 93.376 50.7841C99.296 51.3601 103.744 56.5121 103.392 62.4641Z" fill="#B78876"/>
<path d="M86.56 81.4079C86.56 81.4079 90.336 81.7599 94.4 79.2959C94.4 79.2959 92.384 83.6159 86.4 83.0079L86.56 81.4079Z" fill="#AA6550"/>
<path d="M102.816 64.5121C102.912 64.4801 106.944 63.3601 106.752 67.4561C106.56 71.5841 102.496 70.5281 102.496 70.4001C102.496 70.3041 102.816 64.5121 102.816 64.5121Z" fill="#B78876"/>
<path d="M103.808 68.9279C103.84 68.8959 103.872 68.9599 104 69.0239C104.128 69.0879 104.32 69.1519 104.544 69.0559C104.992 68.9279 105.376 68.2559 105.44 67.5199C105.472 67.1359 105.408 66.7839 105.28 66.4959C105.152 66.1759 104.992 65.9519 104.768 65.9199C104.544 65.8559 104.384 65.9839 104.32 66.0799C104.288 66.2079 104.288 66.2719 104.288 66.3039C104.256 66.3039 104.192 66.2079 104.224 66.0479C104.256 65.9839 104.32 65.8879 104.416 65.7919C104.512 65.7279 104.64 65.6959 104.8 65.7279C105.12 65.7599 105.376 66.0479 105.536 66.3999C105.664 66.7199 105.76 67.1359 105.728 67.5519C105.664 68.3519 105.184 69.1199 104.576 69.2799C104.288 69.3119 104.064 69.2159 103.936 69.1199C103.808 69.0239 103.808 68.9279 103.808 68.9279Z" fill="#AA6550"/>
<path d="M84.544 63.4879C85.024 63.5199 85.376 63.9039 85.376 64.3839C85.344 64.8319 84.928 65.1519 84.48 65.1199C84 65.0879 83.648 64.7039 83.648 64.2559C83.68 63.8079 84.096 63.4559 84.544 63.4879Z" fill="#263238"/>
<path d="M83.168 62.688C83.456 62.464 83.936 62.272 84.512 62.272C85.088 62.272 85.568 62.496 85.856 62.72C86.176 62.912 86.272 63.136 86.208 63.168C86.112 63.296 85.44 62.816 84.512 62.816C83.616 62.784 82.944 63.264 82.848 63.136C82.784 63.104 82.88 62.88 83.168 62.688Z" fill="#263238"/>
<path d="M93.792 63.7442C94.272 63.7762 94.624 64.1602 94.624 64.6402C94.592 65.0882 94.176 65.4082 93.728 65.3762C93.248 65.3442 92.896 64.9602 92.896 64.5122C92.928 64.0642 93.312 63.7122 93.792 63.7442Z" fill="#263238"/>
<path d="M92.256 62.9761C92.512 62.7521 93.024 62.5601 93.6 62.5601C94.176 62.5601 94.656 62.7841 94.944 63.0081C95.232 63.2321 95.328 63.4241 95.296 63.4881C95.2 63.5841 94.528 63.1041 93.6 63.1041C92.672 63.0721 92 63.5521 91.904 63.4561C91.872 63.3921 91.968 63.2001 92.256 62.9761Z" fill="#263238"/>
<path d="M86.944 70.2079C86.816 70.2079 86.688 70.2079 86.528 70.1439C86.4 70.1119 86.208 69.9839 86.144 69.7919C86.048 69.4399 86.208 69.1519 86.304 68.8959C86.5173 68.3199 86.7413 67.7119 86.976 67.0719C88 64.5439 88.896 62.5279 88.992 62.5599C89.088 62.5919 88.352 64.7039 87.36 67.2319C87.104 67.8506 86.8586 68.4479 86.624 69.0239C86.528 69.2799 86.432 69.5359 86.464 69.6959C86.496 69.8879 86.72 69.9199 86.976 69.9519C87.904 70.0799 88.48 70.1759 88.448 70.2399C88.448 70.3039 87.872 70.2719 86.944 70.2079Z" fill="#263238"/>
<path d="M91.36 59.5839C91.744 59.3919 92.352 59.2639 92.992 59.2959C93.632 59.3279 94.208 59.5199 94.592 59.7439C94.944 59.9679 95.136 60.1919 95.072 60.2879C94.944 60.5119 94.048 60.2559 92.96 60.2239C91.872 60.1599 90.944 60.3519 90.848 60.0959C90.784 59.9999 90.976 59.7759 91.36 59.5839Z" fill="#263238"/>
<path d="M82.784 59.1999C83.072 59.0079 83.52 58.8159 84.032 58.8159C84.576 58.8159 85.024 58.9759 85.312 59.1679C85.6 59.3599 85.696 59.5839 85.632 59.6799C85.472 59.9039 84.832 59.7119 84.064 59.7439C83.296 59.7439 82.656 59.9679 82.496 59.7439C82.432 59.6479 82.528 59.4239 82.784 59.1999Z" fill="#263238"/>
<path d="M103.296 64.3522C103.328 64.9602 103.296 65.6962 103.168 66.3042C103.008 66.9122 102.656 67.5202 102.08 67.8082C101.056 68.2882 99.776 67.4882 99.328 66.4322C98.88 65.3762 99.008 64.1602 99.136 63.0082C99.296 61.4402 99.424 59.8722 99.136 58.3042C98.848 56.7682 98.144 55.2322 96.928 54.2402C95.712 53.2482 93.952 52.8642 92.512 53.5362C91.648 53.9522 90.976 54.7202 90.144 55.2322C89.408 55.7122 88.512 55.9682 87.68 55.8402C86.816 55.6802 85.632 55.0722 85.792 54.2082C86.112 52.2242 84.736 53.8882 84.832 53.5362C84.992 52.9922 86.144 52.0002 86.624 51.6482C87.488 51.0082 88.448 50.6882 89.376 50.5282C91.968 50.0802 94.784 50.4002 97.216 51.4242C99.648 52.4162 101.792 54.3042 102.784 56.7682C103.936 59.5842 103.776 61.3122 103.392 64.3522" fill="#263238"/>
<path d="M90.4 72.9601C90.432 73.1521 89.664 73.3441 88.704 73.4081C87.744 73.4401 86.976 73.3441 86.944 73.1521C86.944 72.9601 87.712 72.7681 88.672 72.7361C89.632 72.6721 90.4 72.8001 90.4 72.9601Z" fill="#263238"/>
<path d="M103.264 64.7044C103.264 64.7364 102.784 64.6725 102.016 64.4165C101.248 64.1925 100.224 63.8085 99.104 63.3605C98.0586 62.9338 97.1093 62.5498 96.256 62.2084C95.52 61.9204 95.072 61.7604 95.072 61.7284C95.072 61.6644 95.584 61.7604 96.32 61.9844C97.088 62.2084 98.112 62.5925 99.232 63.0405C100.277 63.4671 101.227 63.8511 102.08 64.1925C102.816 64.4805 103.296 64.6404 103.264 64.7044Z" fill="#263238"/>
<path d="M86.208 61.1523C86.752 61.2163 87.2 61.6323 87.264 62.1763C87.424 63.2643 87.264 64.3843 86.752 65.3443C86.08 66.5923 84.896 67.5523 83.52 67.9043C82.752 68.0963 81.888 68.1283 81.184 67.6803C80.224 67.0723 79.936 65.8243 79.872 64.7043C79.808 63.8723 79.808 63.0083 80.256 62.3043C80.864 61.4403 81.984 61.0883 83.04 61.0243C84.096 60.9603 86.208 61.1523 86.208 61.1523Z" fill="#263238"/>
<path d="M94.208 61.2803C95.296 61.3443 96.416 61.7283 96.992 62.6563C97.408 63.3603 97.408 64.2563 97.312 65.0883C97.216 66.2083 96.864 67.4563 95.904 68.0643C95.2 68.4803 94.304 68.4483 93.504 68.1923C92.16 67.8083 90.976 66.8163 90.336 65.5363C89.856 64.5443 89.696 63.3923 89.92 62.3043C90.016 61.7603 90.464 61.3443 91.008 61.3123C91.008 61.3123 93.152 61.1843 94.208 61.2803Z" fill="#263238"/>
<path d="M92 61.4724C92 61.5684 90.4 61.6004 88.48 61.5684C86.528 61.5364 84.96 61.4404 84.96 61.3444C84.96 61.2484 86.528 61.1844 88.48 61.2484C90.432 61.2804 92 61.3764 92 61.4724Z" fill="#263238"/>
<path d="M103.04 88.7042C103.04 88.7042 103.029 88.6722 103.008 88.6082C103.008 88.5442 103.019 88.4482 103.04 88.3202C103.072 88.0642 103.2 87.6802 103.424 87.2642C103.648 86.8162 103.968 86.3042 104.16 85.6642C104.352 84.9922 104.416 84.2242 104.416 83.3602C104.416 82.4962 104.32 81.5682 104.256 80.5122C104.256 80.2562 104.288 79.9362 104.448 79.6802C104.608 79.4242 104.928 79.2002 105.28 79.2962C105.472 79.3282 105.6 79.4562 105.696 79.6162C105.792 79.7762 105.792 80.0002 105.696 80.1602C105.408 80.4802 105.024 80.4482 104.704 80.3522C104.096 80.0642 103.776 79.3282 103.968 78.6882C104.032 78.3362 104.224 78.0482 104.512 77.8562C104.672 77.7282 104.832 77.6642 105.024 77.6322C105.216 77.6322 105.44 77.6642 105.6 77.8242C105.728 77.9842 105.824 78.2082 105.728 78.4322C105.632 78.6882 105.376 78.7522 105.184 78.7842C104.8 78.7842 104.448 78.6242 104.192 78.3362C103.968 78.0802 103.808 77.6962 103.872 77.3122C103.904 76.9282 104.16 76.6082 104.48 76.4162C104.768 76.2242 105.088 76.1602 105.408 76.2242C105.579 76.2668 105.728 76.3522 105.856 76.4802C105.952 76.6082 106.048 76.8322 105.984 77.0242C105.952 77.2162 105.76 77.3442 105.6 77.4082C105.429 77.4508 105.269 77.4615 105.12 77.4402C104.832 77.4082 104.544 77.2802 104.32 77.0882C103.872 76.7362 103.584 76.0962 103.808 75.5202C104 74.9762 104.576 74.5602 105.184 74.6882C105.472 74.7522 105.728 74.9762 105.792 75.3282C105.824 75.4882 105.728 75.6802 105.632 75.7762C105.504 75.8722 105.344 75.9362 105.216 75.9682C104.896 75.9682 104.64 75.8402 104.448 75.6802C104.256 75.5202 104.096 75.3282 103.968 75.1042C103.744 74.6562 103.84 74.0162 104.288 73.7282C104.704 73.4082 105.376 73.6642 105.472 74.2082V74.3042L105.408 74.3362C104.8 74.6562 104.064 74.3042 103.84 73.7602C103.744 73.5042 103.776 73.1842 103.936 72.9602C104.064 72.7042 104.256 72.5442 104.512 72.4482C104.736 72.3202 104.992 72.3522 105.216 72.4162C105.44 72.5122 105.632 72.7682 105.568 73.0242C105.568 73.1522 105.472 73.2482 105.344 73.3122C105.216 73.3442 105.12 73.3122 105.024 73.2802C104.8 73.1842 104.704 72.9922 104.672 72.8322C104.576 72.1602 104.608 71.6482 104.672 71.2962C104.704 70.9762 104.768 70.7842 104.768 70.7842C104.832 70.7842 104.608 71.5202 104.832 72.8002C104.864 72.9282 104.928 73.0882 105.088 73.1202C105.216 73.1842 105.376 73.1202 105.408 72.9922C105.472 72.6402 104.928 72.4482 104.576 72.6402C104.224 72.7682 103.904 73.2482 104.064 73.6962C104.224 74.1122 104.864 74.3682 105.28 74.1122L105.216 74.2402C105.184 73.9522 104.704 73.7282 104.448 73.9522C104.128 74.1762 104.032 74.6242 104.256 74.9762C104.416 75.2962 104.8 75.6802 105.184 75.6482C105.344 75.6482 105.504 75.4882 105.472 75.3602C105.472 75.2002 105.28 75.0402 105.12 75.0082C104.704 74.9122 104.256 75.2322 104.096 75.6162C103.936 76.0322 104.16 76.5442 104.512 76.8322C104.704 76.9922 104.928 77.0882 105.184 77.1202C105.376 77.1522 105.632 77.0882 105.664 76.9282C105.728 76.8002 105.536 76.6082 105.312 76.5762C105.12 76.5122 104.864 76.5762 104.672 76.7042C104.416 76.8322 104.224 77.0882 104.192 77.3762C104.16 77.6322 104.256 77.9202 104.448 78.1122C104.64 78.3362 104.896 78.4642 105.184 78.4322C105.44 78.4322 105.504 78.2402 105.344 78.0482C105.216 77.9202 104.928 77.9522 104.704 78.1122C104.48 78.2722 104.32 78.4962 104.256 78.7522C104.096 79.2642 104.384 79.8722 104.832 80.0642C105.056 80.1602 105.344 80.1282 105.44 80.0002C105.536 79.8402 105.408 79.6162 105.216 79.5842C105.024 79.5202 104.8 79.6482 104.672 79.8402C104.544 80.0322 104.512 80.2562 104.512 80.5122C104.576 81.5042 104.672 82.4962 104.672 83.3602C104.64 84.2242 104.544 85.0242 104.32 85.6962C104.128 86.4002 103.776 86.9122 103.552 87.3282C103.296 87.7442 103.136 88.0642 103.104 88.3202C103.04 88.5762 103.04 88.7042 103.04 88.7042Z" fill="#E0E0E0"/>
<path d="M105.216 70.8803C105.152 71.0083 105.024 71.1683 104.864 71.1683C104.672 71.1683 104.576 70.9443 104.544 70.7843C104.544 70.4963 104.608 70.2403 104.608 69.9843C104.608 69.7283 104.544 69.4403 104.32 69.3123C104.224 69.2483 104.064 69.2483 103.968 69.1843C103.947 69.163 103.925 69.1416 103.904 69.1203C103.883 69.1203 103.872 69.1203 103.872 69.1203C103.616 68.8963 103.456 68.5123 103.584 68.1923C103.68 67.8723 104.032 67.6483 104.384 67.6803C104.704 67.7123 104.96 67.9363 105.12 68.1923C105.28 68.4483 105.344 68.7683 105.408 69.0563C105.472 69.6643 105.472 70.3043 105.216 70.8803Z" fill="#E0E0E0"/>
<path d="M86.432 85.0881L94.816 90.7201L102.048 84.1601L102.24 81.6641C102.944 82.4001 103.296 83.3921 103.264 84.4161L103.168 87.1681C103.136 88.0321 102.912 88.8321 102.528 89.6001L98.176 98.2081L96.736 115.456C96.736 115.456 95.68 113.536 95.52 113.056C95.424 112.736 92.704 105.824 91.072 101.696C90.304 99.7121 89.312 97.8241 88.096 96.0641L87.264 94.8481C86.592 93.8561 86.144 92.7361 85.92 91.5841C85.536 89.5361 84.992 86.3681 85.056 85.5681C85.184 84.3521 86.464 82.4641 86.464 82.4641L86.432 85.0881Z" fill="white"/>
<path d="M94.464 90.752C94.496 90.816 93.632 91.072 92.928 92.192C92.224 93.28 91.68 95.008 91.2 96.96C91.136 97.152 91.0826 97.3439 91.04 97.5359L90.976 97.792L90.784 97.6C89.312 96.384 88.192 95.136 87.392 94.24C86.592 93.312 86.112 92.7679 86.144 92.7359C86.176 92.7039 86.72 93.216 87.552 94.08C88.416 94.912 89.568 96.16 91.008 97.344L90.72 97.44C90.7626 97.2693 90.816 97.0773 90.88 96.864C91.36 94.912 91.936 93.152 92.736 92.064C93.152 91.52 93.568 91.1359 93.92 90.9759C94.24 90.7839 94.464 90.752 94.464 90.752Z" fill="#263238"/>
<path d="M99.616 95.4239C99.648 95.4559 99.008 96.5119 97.984 98.0479L97.728 98.4639L97.696 97.9519C97.696 97.2799 97.504 96.4799 97.248 95.6159C96.864 94.1439 96.512 92.7999 95.968 91.9999C95.456 91.1679 94.912 90.8159 94.944 90.7839C94.944 90.7519 95.104 90.8159 95.328 90.9759C95.552 91.1679 95.872 91.4239 96.16 91.8399C96.8 92.6719 97.216 94.0479 97.568 95.5199C97.824 96.3839 98.016 97.2159 98.016 97.9839L97.728 97.8879C98.784 96.3839 99.552 95.3599 99.616 95.4239Z" fill="#263238"/>
<path d="M96.2879 114.304C96.2239 114.304 95.8079 109.056 95.3919 102.624C94.9759 96.1601 94.7199 90.9121 94.7839 90.9121C94.8799 90.9121 95.2959 96.1281 95.7119 102.592C96.1279 109.056 96.3839 114.272 96.2879 114.304Z" fill="#263238"/>
<path d="M80.16 64.7044C80.096 64.7364 79.808 64.0324 80.096 63.2004C80.384 62.3684 81.024 61.9844 81.056 62.0484C81.12 62.1124 80.64 62.5924 80.416 63.3284C80.16 64.0324 80.256 64.7044 80.16 64.7044Z" fill="#E0E0E0"/>
<path d="M90.72 65.0562C90.656 65.1202 90.24 64.5762 90.24 63.7762C90.24 62.9762 90.656 62.4322 90.72 62.4642C90.816 62.5282 90.56 63.0722 90.592 63.7762C90.56 64.4802 90.816 65.0242 90.72 65.0562Z" fill="#E0E0E0"/>
</g>
<defs>
<filter id="filter0_d_2150_3571" x="-4" y="0" width="488" height="328" filterUnits="userSpaceOnUse" color-interpolation-filters="sRGB">
<feFlood flood-opacity="0" result="BackgroundImageFix"/>
<feColorMatrix in="SourceAlpha" type="matrix" values="0 0 0 0 0 0 0 0 0 0 0 0 0 0 0 0 0 0 127 0" result="hardAlpha"/>
<feOffset dy="4"/>
<feGaussianBlur stdDeviation="2"/>
<feComposite in2="hardAlpha" operator="out"/>
<feColorMatrix type="matrix" values="0 0 0 0 0 0 0 0 0 0 0 0 0 0 0 0 0 0 0.25 0"/>
<feBlend mode="normal" in2="BackgroundImageFix" result="effect1_dropShadow_2150_3571"/>
<feBlend mode="normal" in="SourceGraphic" in2="effect1_dropShadow_2150_3571" result="shape"/>
</filter>
</defs>
</svg>
