<svg width="70" height="122" viewBox="0 0 70 122" fill="none" xmlns="http://www.w3.org/2000/svg">
<g id="Group" opacity="0.1">
<g id="Group_2">
<path id="Vector" d="M66.564 115.289C68.4212 115.289 69.9195 116.803 69.9195 118.644C69.9195 120.502 68.4056 122 66.5639 122C64.7223 122 63.2085 120.486 63.2085 118.644C63.2085 116.787 64.7067 115.289 66.564 115.289Z" fill="#F4C967"/>
</g>
<g id="Group_3">
<path id="Vector_2" d="M66.564 86.4629C68.4212 86.4629 69.9195 87.9768 69.9195 89.8185C69.9195 91.6757 68.4056 93.174 66.564 93.1739C64.7223 93.1739 63.2085 91.6601 63.2085 89.8185C63.2085 87.9768 64.7067 86.4629 66.564 86.4629Z" fill="#F4C967"/>
<path id="Vector_3" d="M34.9598 86.4629C36.817 86.4629 38.3153 87.9768 38.3153 89.8185C38.3153 91.6757 36.8014 93.174 34.9598 93.1739C33.1025 93.1739 31.6043 91.6601 31.6043 89.8185C31.5887 87.9768 33.1025 86.4629 34.9598 86.4629Z" fill="#F4C967"/>
</g>
<g id="Group_4">
<path id="Vector_4" d="M66.564 57.6367C68.4212 57.6367 69.9195 59.1507 69.9195 60.9923C69.9195 62.8495 68.4056 64.3478 66.564 64.3478C64.7223 64.3478 63.2085 62.8339 63.2085 60.9923C63.2085 59.1507 64.7067 57.6367 66.564 57.6367Z" fill="#F4C967"/>
<path id="Vector_5" d="M34.9598 57.6367C36.817 57.6367 38.3153 59.1507 38.3153 60.9923C38.3153 62.8495 36.8014 64.3478 34.9598 64.3478C33.1025 64.3478 31.6043 62.8339 31.6043 60.9923C31.5887 59.1507 33.1025 57.6367 34.9598 57.6367Z" fill="#F4C967"/>
<path id="Vector_6" d="M3.35557 57.6367C5.21281 57.6367 6.71112 59.1507 6.71112 60.9923C6.71112 62.8495 5.1972 64.3478 3.35557 64.3478C1.49834 64.3478 0.000122679 62.8339 0.00012284 60.9923C-0.0154839 59.1507 1.49834 57.6367 3.35557 57.6367Z" fill="#F4C967"/>
</g>
<g id="Group_5">
<path id="Vector_7" d="M66.564 28.8261C68.4212 28.8261 69.9195 30.34 69.9195 32.1816C69.9195 34.0388 68.4056 35.5371 66.564 35.5371C64.7223 35.5371 63.2085 34.0232 63.2085 32.1816C63.2085 30.3244 64.7067 28.8261 66.564 28.8261Z" fill="#F4C967"/>
<path id="Vector_8" d="M34.9598 28.8261C36.817 28.8261 38.3153 30.34 38.3153 32.1816C38.3153 34.0388 36.8014 35.5371 34.9598 35.5371C33.1025 35.5371 31.6043 34.0232 31.6043 32.1816C31.5887 30.3244 33.1025 28.8261 34.9598 28.8261Z" fill="#F4C967"/>
</g>
<g id="Group_6">
<path id="Vector_9" d="M66.564 1.73496e-05C64.7108 1.71876e-05 63.2085 1.50232 63.2085 3.35551C63.2085 5.20871 64.7108 6.71106 66.564 6.71106C68.4172 6.71106 69.9195 5.20871 69.9195 3.35551C69.9195 1.50232 68.4172 1.75116e-05 66.564 1.73496e-05Z" fill="#F4C967"/>
</g>
</g>
</svg>
