<svg width="90" height="90" viewBox="0 0 90 90" fill="none" xmlns="http://www.w3.org/2000/svg">
<path opacity="0.4" d="M72.9196 21.6786H78.8192C77.995 20.5074 77.1274 19.423 76.2164 18.3385L72.9196 21.6786Z" fill="white"/>
<path opacity="0.4" d="M71.6616 13.7403C70.5771 12.8293 69.4927 11.9618 68.3215 11.1376V17.0371L71.6616 13.7403Z" fill="white"/>
<path opacity="0.4" d="M65.0681 28.1857C64.6343 28.1857 64.2439 28.0989 63.8101 27.9254C63.0292 27.5784 62.3785 26.9711 62.0315 26.1469C61.858 25.7565 61.7713 25.3227 61.7713 24.8889V7.5374C61.7713 7.49403 61.8147 7.45064 61.8147 7.36388C56.2188 4.76116 49.9723 3.24292 43.3787 3.24292C19.4337 3.24292 0 22.6766 0 46.6216C0 70.5667 19.4337 90.0004 43.3787 90.0004C67.3238 90.0004 86.7574 70.5667 86.7574 46.6216C86.7574 40.0281 85.2392 33.7815 82.5931 28.1423C82.5497 28.1423 82.5063 28.1857 82.4196 28.1857H65.0681Z" fill="white"/>
<path d="M76.2597 18.3384L89.0565 5.54162C90.3145 4.28364 90.3145 2.20147 89.0565 0.943487C87.7985 -0.314496 85.7163 -0.314496 84.4584 0.943487L71.6616 13.7402C73.31 15.1717 74.8282 16.7334 76.2597 18.3384Z" fill="white"/>
<path d="M68.3215 7.58067C68.3215 5.80215 66.8466 4.32727 65.0681 4.32727C63.3329 4.32727 61.9449 5.71539 61.8581 7.40716C64.1138 8.49162 66.2827 9.70623 68.3215 11.1377V7.58067Z" fill="white"/>
<path d="M85.673 24.9322C85.673 23.1537 84.1981 21.6788 82.4196 21.6788H78.8192C80.2507 23.7176 81.5086 25.8866 82.5497 28.1423C84.2848 28.0555 85.673 26.6674 85.673 24.9322Z" fill="white"/>
<path d="M50.97 45.8408L46.6321 44.3225V34.6925H46.9791C49.1914 34.6925 50.97 36.6445 50.97 39.0303C50.97 40.8089 52.4449 42.2837 54.2234 42.2837C56.0019 42.2837 57.4768 40.8089 57.4768 39.0303C57.4768 33.0441 52.7918 28.1857 46.9791 28.1857H46.6321V27.1012C46.6321 25.3227 45.1573 23.8478 43.3787 23.8478C41.6002 23.8478 40.1253 25.3227 40.1253 27.1012V28.1857H38.824C33.5752 28.1857 29.2806 32.6103 29.2806 38.076C29.2806 44.4093 32.9678 46.4481 35.7874 47.4458L40.1253 48.9641V58.5941H39.7783C37.566 58.5941 35.7874 56.6421 35.7874 54.2563C35.7874 52.4777 34.3126 51.0029 32.534 51.0029C30.7555 51.0029 29.2806 52.4777 29.2806 54.2563C29.2806 60.2425 33.9656 65.101 39.7783 65.101H40.1253V66.1854C40.1253 67.9639 41.6002 69.4388 43.3787 69.4388C45.1573 69.4388 46.6321 67.9639 46.6321 66.1854V65.101H47.9334C53.1823 65.101 57.4768 60.6763 57.4768 55.2106C57.4768 48.8339 53.7896 46.7951 50.97 45.8408ZM37.913 41.2427C36.4381 40.7221 35.7874 40.4184 35.7874 38.0326C35.7874 36.1673 37.1756 34.6491 38.824 34.6491H40.1253V41.9801L37.913 41.2427ZM47.9334 58.5508H46.6321V51.2197L48.8445 52.0006C50.3194 52.5211 50.97 52.8248 50.97 55.2106C50.97 57.0325 49.5818 58.5508 47.9334 58.5508Z" fill="white"/>
</svg>
