<svg width="90" height="91" viewBox="0 0 90 91" fill="none" xmlns="http://www.w3.org/2000/svg">
<path opacity="0.4" d="M65.0836 28.2463C64.2592 28.2463 63.4349 27.9426 62.784 27.2918C61.5257 26.0335 61.5257 23.9508 62.784 22.6925L71.6787 13.7978C64.0423 7.2894 54.193 3.29761 43.3891 3.29761C19.4383 3.29761 0 22.7359 0 46.6867C0 70.6375 19.4383 90.0758 43.3891 90.0758C67.3399 90.0758 86.7782 70.6375 86.7782 46.6867C86.7782 35.8828 82.7863 26.0335 76.278 18.397L67.3833 27.2918C66.7324 27.9426 65.908 28.2463 65.0836 28.2463Z" fill="white"/>
<path d="M50.9822 45.9057L46.6433 44.3871V34.7547H46.9903C49.2032 34.7547 50.9822 36.7073 50.9822 39.0937C50.9822 40.8726 52.4574 42.3478 54.2364 42.3478C56.0153 42.3478 57.4906 40.8726 57.4906 39.0937C57.4906 33.106 52.8045 28.2464 46.9903 28.2464H46.6433V27.1617C46.6433 25.3827 45.1681 23.9075 43.3891 23.9075C41.6101 23.9075 40.1349 25.3827 40.1349 27.1617V28.2464H38.8333C33.5832 28.2464 29.2876 32.6721 29.2876 38.1391C29.2876 44.4739 32.9757 46.5132 35.796 47.5111L40.1349 49.0298V58.6621H39.7879C37.575 58.6621 35.796 56.7096 35.796 54.3232C35.796 52.5443 34.3208 51.0691 32.5418 51.0691C30.7629 51.0691 29.2876 52.5443 29.2876 54.3232C29.2876 60.3109 33.9737 65.1705 39.7879 65.1705H40.1349V66.2552C40.1349 68.0342 41.6101 69.5094 43.3891 69.5094C45.1681 69.5094 46.6433 68.0342 46.6433 66.2552V65.1705H47.9449C53.195 65.1705 57.4906 60.7448 57.4906 55.2778C57.4906 48.8996 53.8025 46.8603 50.9822 45.9057ZM37.922 41.3065C36.4468 40.7858 35.796 40.4821 35.796 38.0957C35.796 36.23 37.1845 34.7113 38.8333 34.7113H40.1349V42.0441L37.922 41.3065ZM47.9449 58.6187H46.6433V51.286L48.8562 52.067C50.3314 52.5877 50.9822 52.8914 50.9822 55.2778C50.9822 57.1001 49.5937 58.6187 47.9449 58.6187Z" fill="white"/>
<path d="M89.772 2.03929C89.4249 1.25829 88.8175 0.60747 87.9931 0.260357C87.6026 0.0868007 87.1687 0 86.7348 0H69.3791C67.6002 0 66.1249 1.47523 66.1249 3.25418C66.1249 5.03313 67.6002 6.50836 69.3791 6.50836H78.8813L71.6354 13.7544C73.2842 15.1862 74.8028 16.7048 76.2347 18.3536L83.4806 11.1076V20.6532C83.4806 22.4322 84.9558 23.9074 86.7348 23.9074C88.5137 23.9074 89.9889 22.4322 89.9889 20.6532V3.29758C90.0323 2.86369 89.9456 2.47318 89.772 2.03929Z" fill="white"/>
</svg>
