<svg width="90" height="90" viewBox="0 0 90 90" fill="none" xmlns="http://www.w3.org/2000/svg">
<path opacity="0.4" d="M3.465 36C1.53 36 0 34.47 0 32.535V22.14C0 9.945 9.945 0 22.14 0H32.535C34.47 0 36 1.53 36 3.465C36 5.4 34.47 6.93 32.535 6.93H22.14C13.725 6.93 6.93 13.77 6.93 22.14V32.535C6.93 34.47 5.355 36 3.465 36Z" fill="white"/>
<path opacity="0.4" d="M86.5336 36C84.6436 36 83.0686 34.47 83.0686 32.535V22.14C83.0686 13.725 76.2286 6.93 67.8587 6.93H57.4637C55.5287 6.93 53.9987 5.355 53.9987 3.465C53.9987 1.575 55.5287 0 57.4637 0H67.8587C80.0536 0 89.9986 9.945 89.9986 22.14V32.535C89.9986 34.47 88.4686 36 86.5336 36Z" fill="white"/>
<path d="M67.8584 89.9987H61.6034C59.7134 89.9987 58.1384 88.4687 58.1384 86.5337C58.1384 84.6437 59.6684 83.0687 61.6034 83.0687H67.8584C76.2734 83.0687 83.0684 76.2287 83.0684 67.8587V61.6487C83.0684 59.7587 84.5984 58.1837 86.5334 58.1837C88.4234 58.1837 89.9984 59.7137 89.9984 61.6487V67.8587C89.9984 80.0537 80.0534 89.9987 67.8584 89.9987Z" fill="white"/>
<path d="M32.535 89.9986H22.14C9.945 89.9986 0 80.0536 0 67.8587V57.4637C0 55.5287 1.53 53.9987 3.465 53.9987C5.4 53.9987 6.93 55.5287 6.93 57.4637V67.8587C6.93 76.2736 13.77 83.0686 22.14 83.0686H32.535C34.425 83.0686 36 84.5986 36 86.5336C36 88.4686 34.47 89.9986 32.535 89.9986Z" fill="white"/>
<path d="M74.0682 41.5337H67.9484H22.0495H15.9297C13.9947 41.5337 12.4648 43.1087 12.4648 44.9986C12.4648 46.8886 13.9947 48.4635 15.9297 48.4635H22.0495H67.9484H74.0682C76.0031 48.4635 77.5331 46.8886 77.5331 44.9986C77.5331 43.1087 76.0031 41.5337 74.0682 41.5337Z" fill="white"/>
<path d="M22.0496 53.7284V55.2134C22.0496 62.6832 28.0795 68.713 35.5493 68.713H54.4488C61.9186 68.713 67.9484 62.6832 67.9484 55.2134V53.7284C67.9484 53.1884 67.5435 52.7834 67.0035 52.7834H22.9946C22.4546 52.7834 22.0496 53.1884 22.0496 53.7284Z" fill="white"/>
<path opacity="0.4" d="M22.0496 36.2689V34.784C22.0496 27.3141 28.0795 21.2843 35.5493 21.2843H54.4488C61.9186 21.2843 67.9484 27.3141 67.9484 34.784V36.2689C67.9484 36.8089 67.5435 37.2139 67.0035 37.2139H22.9946C22.4546 37.2139 22.0496 36.8089 22.0496 36.2689Z" fill="white"/>
</svg>
