<svg width="188" height="146" viewBox="0 0 188 146" fill="none" xmlns="http://www.w3.org/2000/svg">
<g clip-path="url(#clip0_2108_5349)">
<path d="M139.774 49.9495C148.807 23.8243 179.658 15.5831 179.658 15.5831C179.658 15.5831 169.116 23.0922 165.239 34.0318C161.34 44.9713 146.292 51.0581 146.292 51.0581C146.292 51.0581 146.292 51.0581 139.774 49.9495Z" fill="#66AF99"/>
<g style="mix-blend-mode:multiply" opacity="0.4">
<path d="M179.658 15.5831C179.658 15.5831 152.286 30.9152 143.609 52.5014" stroke="#442020" stroke-width="2.4"/>
</g>
<g style="mix-blend-mode:multiply" opacity="0.4">
<path d="M147.445 36.2699C148.493 40.1604 150.274 45.9335 152.077 48.067C148.828 50.0332 146.292 51.0582 146.292 51.0582C146.292 51.0582 146.292 51.0582 139.774 49.9496C141.576 44.6994 144.301 40.1604 147.445 36.2699Z" fill="#442020"/>
</g>
<path d="M147.193 59.174C147.193 59.174 154.885 47.9207 165.365 43.9883C169.305 42.5241 173.182 40.3697 176.452 37.5459C178.799 35.5378 180.958 31.4172 184.374 31.5427C191.605 31.8565 186.177 41.2691 184.185 44.051C177.416 52.4387 171.694 51.4347 164.568 53.8611C157.463 56.2665 151.071 65.3863 150.421 66.453C149.771 67.4989 147.193 59.174 147.193 59.174Z" fill="#66AF99"/>
<g style="mix-blend-mode:multiply" opacity="0.4">
<path d="M183.829 35.7051C183.829 35.7051 177.206 44.8458 168.026 46.8538C158.825 48.8619 150.924 58.6928 150.924 58.6928" stroke="#442020" stroke-width="2.4"/>
</g>
<g style="mix-blend-mode:multiply" opacity="0.4">
<path d="M151.658 64.7169C150.945 65.0516 150.232 65.3654 149.562 65.6164C148.577 63.6502 147.193 59.1739 147.193 59.1739C147.193 59.1739 150.044 55.0115 154.613 50.8699C155.451 51.9994 157.589 55.2625 157.149 58.6092C154.78 60.7846 152.852 63.1272 151.658 64.7169Z" fill="#442020"/>
</g>
<path d="M66.9003 130.333C59.8582 126.087 46.5075 120.691 37.4323 119.394C10.3746 114.855 8.88651 100.61 0.146713 90.0264C14.2939 90.3401 25.7793 107.994 38.6479 110.588C51.5376 113.181 64.6997 119.833 64.6997 119.833C64.6997 119.833 73.9634 134.6 66.9003 130.333Z" fill="#66AF99"/>
<g style="mix-blend-mode:multiply" opacity="0.4">
<path d="M60.1516 122.845C60.1516 122.845 46.9895 116.674 34.0999 114.917C21.2312 113.181 9.26376 97.1799 9.26376 97.1799C9.26376 97.1799 23.5995 112.324 34.1418 113.37C44.705 114.395 59.5857 120.502 59.5857 120.502L60.1516 122.845Z" fill="#442020"/>
</g>
<g style="mix-blend-mode:multiply" opacity="0.4">
<path d="M39.0252 110.671C51.7891 113.307 64.6997 119.833 64.6997 119.833C64.6997 119.833 73.9635 134.6 66.9004 130.333C62.1637 127.468 54.5766 124.121 47.3668 121.82L39.0252 110.671Z" fill="#442020"/>
</g>
<path d="M12.1142 82.1825C21.7762 92.7664 34.3095 98.7905 46.1302 101.489C57.951 104.187 66.083 113.516 66.083 113.516" stroke="#66AF99" stroke-width="4.7"/>
<path d="M51.6843 103.12C51.6843 103.12 53.1095 100.548 50.7621 98.163C49.4417 99.9619 50.4896 101.656 51.6843 103.12Z" fill="#66AF99"/>
<path d="M51.6843 103.12C51.6843 103.12 50.9298 105.944 47.5764 106.049C47.8908 103.832 49.819 103.33 51.6843 103.12Z" fill="#66AF99"/>
<path d="M45.2499 101.301C45.2499 101.301 46.6751 98.7278 44.3278 96.3433C43.0074 98.163 44.0553 99.8364 45.2499 101.301Z" fill="#66AF99"/>
<path d="M45.2499 101.301C45.2499 101.301 44.4954 104.124 41.142 104.229C41.4564 102.012 43.3637 101.51 45.2499 101.301Z" fill="#66AF99"/>
<path d="M39.5282 99.3971C39.5282 99.3971 40.5552 96.657 37.8934 94.649C36.8455 96.6152 38.124 98.1421 39.5282 99.3971Z" fill="#66AF99"/>
<path d="M39.5282 99.3972C39.5282 99.3972 39.1929 102.326 35.9023 102.911C35.8814 100.673 37.7048 99.8992 39.5282 99.3972Z" fill="#66AF99"/>
<path d="M33.6807 97.2218C33.6807 97.2218 34.7077 94.4817 32.0459 92.4736C30.998 94.4398 32.2974 95.9668 33.6807 97.2218Z" fill="#66AF99"/>
<path d="M33.6807 97.2218C33.6807 97.2218 33.3454 100.15 30.0549 100.736C30.0339 98.4977 31.8573 97.7238 33.6807 97.2218Z" fill="#66AF99"/>
<path d="M28.3782 94.5026C28.3782 94.5026 30.3692 92.3481 28.6716 89.4616C26.953 90.9049 27.5608 92.7874 28.3782 94.5026Z" fill="#66AF99"/>
<path d="M28.3781 94.5026C28.3781 94.5026 26.9529 97.0544 23.6834 96.3433C24.5008 94.2725 26.4919 94.2516 28.3781 94.5026Z" fill="#66AF99"/>
<path d="M22.7612 91.637C22.7612 91.637 24.7523 89.4825 23.0546 86.596C21.336 88.0393 21.9438 89.9218 22.7612 91.637Z" fill="#66AF99"/>
<path d="M22.7612 91.637C22.7612 91.637 21.336 94.1888 18.0664 93.4777C18.8838 91.4069 20.8749 91.386 22.7612 91.637Z" fill="#66AF99"/>
<path d="M17.6682 87.1189C17.6682 87.1189 19.7431 85.0272 18.1293 82.0989C16.3688 83.4794 16.9137 85.3828 17.6682 87.1189Z" fill="#66AF99"/>
<path d="M17.6682 87.1189C17.6682 87.1189 16.1592 89.6289 12.9315 88.8132C13.8118 86.7633 15.8029 86.8052 17.6682 87.1189Z" fill="#66AF99"/>
<path d="M13.0573 83.0401C13.0573 83.0401 10.1231 82.81 9.43144 79.5261C11.674 79.4424 12.4914 81.2412 13.0573 83.0401Z" fill="#66AF99"/>
<path d="M65.1608 131.358C65.1608 131.358 49.6094 137.78 38.7737 132.53C27.959 127.279 14.713 129.392 14.713 129.392C14.713 129.392 43.4685 113.098 69.1639 125.815C65.1608 131.358 65.1608 131.358 65.1608 131.358Z" fill="#66AF99"/>
<g style="mix-blend-mode:multiply" opacity="0.4">
<path d="M14.713 129.392C14.713 129.392 46.0673 120.858 68.1998 130.48" stroke="#442020" stroke-width="2.4"/>
</g>
<g style="mix-blend-mode:multiply" opacity="0.4">
<path d="M46.738 120.962C53.9478 120.879 61.6816 122.113 69.1639 125.815C67.8225 127.677 66.9422 128.911 66.3344 129.727C66.9632 129.964 67.585 130.215 68.1998 130.48L65.8314 130.438C65.1607 131.358 65.1607 131.358 65.1607 131.358C65.1607 131.358 61.4301 132.906 56.379 133.847L46.738 120.962Z" fill="#442020"/>
</g>
<path d="M165.616 77.6227C165.616 77.6227 145.726 58.2745 144.175 56.2456C142.624 54.2375 144.888 54.4676 144.888 54.4676L142.31 51.8949C142.079 51.6439 141.996 51.2883 142.1 50.9745L142.121 50.9536C142.31 50.3888 143.002 50.1797 143.463 50.5353L147.277 53.2754L170.499 72.749L165.616 77.6227Z" fill="#FC9D99"/>
<path d="M144.888 54.4676L148.095 56.4756" stroke="#AA4944" stroke-width="1.6" stroke-linecap="round"/>
<path d="M162.577 66.1183L170.499 72.749L165.616 77.6226C165.616 77.6226 162.367 74.4642 158.385 70.5736L162.577 66.1183Z" fill="#D84D4D"/>
<path opacity="0.6" d="M151.343 63.6083C152.978 65.2399 154.738 66.955 156.436 68.6284C156.73 64.0267 151.343 63.6083 151.343 63.6083Z" fill="#D25C53"/>
<path d="M137.196 142.674C137.196 143.929 120.052 144.933 98.9253 144.933C77.7779 144.933 60.6337 143.929 60.6337 142.674C60.6337 141.44 77.7779 140.415 98.9253 140.415C120.052 140.415 137.196 141.44 137.196 142.674Z" fill="#473D59"/>
<path d="M133.214 37.3367L123.782 31.5008L130.112 21.2934L139.543 27.1083L133.214 37.3367Z" fill="#1A2751"/>
<path d="M137.175 30.9361L127.744 25.1212L130.112 21.2934L139.543 27.1083L137.175 30.9361Z" fill="#473D59"/>
<path d="M139.837 30.6851L126.759 22.6112C125.732 21.9627 125.396 20.6031 126.046 19.5573L128.561 15.4994C129.211 14.4536 130.573 14.1398 131.621 14.7882L144.678 22.8622C145.726 23.5106 146.041 24.8702 145.391 25.916L142.876 29.9739C142.247 30.9988 140.864 31.3335 139.837 30.6851Z" fill="#597AD4"/>
<path d="M128.582 23.7407L126.759 22.6112L131.621 14.7883L133.444 15.9178L128.582 23.7407Z" fill="#88A3EE"/>
<path d="M132.354 26.0625L130.51 24.933L135.373 17.11L137.196 18.2396L132.354 26.0625Z" fill="#88A3EE"/>
<path d="M136.106 28.3843L134.283 27.2547L139.124 19.4318L140.948 20.5613L136.106 28.3843Z" fill="#88A3EE"/>
<path d="M139.858 30.706L138.034 29.5765L142.876 21.7536L144.699 22.8831L139.858 30.706Z" fill="#88A3EE"/>
<path d="M58.1815 27.1083L67.6129 21.2934L73.9425 31.5008L64.511 37.3367L58.1815 27.1083Z" fill="#1A2751"/>
<path d="M58.1815 27.1083L67.6129 21.2934L69.9813 25.1212L60.5498 30.9361L58.1815 27.1083Z" fill="#473D59"/>
<path d="M54.8281 29.9739L52.313 25.916C51.6843 24.8702 51.9987 23.5106 53.0466 22.8622L66.1039 14.7882C67.1518 14.1398 68.5142 14.4536 69.1639 15.4994L71.6789 19.5573C72.3286 20.6031 71.9933 21.9627 70.9663 22.6112L57.8881 30.6851C56.8611 31.3335 55.4778 30.9988 54.8281 29.9739Z" fill="#597AD4"/>
<path d="M64.2805 15.9178L66.1039 14.7883L70.9663 22.6112L69.122 23.7407L64.2805 15.9178Z" fill="#88A3EE"/>
<path d="M60.5289 18.2396L62.3523 17.11L67.1938 24.933L65.3703 26.0625L60.5289 18.2396Z" fill="#88A3EE"/>
<path d="M56.7773 20.5613L58.6007 19.4318L63.4421 27.2547L61.6187 28.3843L56.7773 20.5613Z" fill="#88A3EE"/>
<path d="M53.0256 22.8831L54.849 21.7536L59.6905 29.5765L57.8671 30.706L53.0256 22.8831Z" fill="#88A3EE"/>
<path d="M107.497 28.5307H90.2274V9.85187H107.497V28.5307Z" fill="#1A2751"/>
<path d="M107.497 16.8381H90.2274V9.85187H107.497V16.8381Z" fill="#6F91EE"/>
<path d="M107.497 16.8381H90.2274V9.85187H107.497V16.8381Z" fill="#545454"/>
<path d="M98.8624 142.821C65.1188 142.821 37.7677 115.524 37.7677 81.8478C37.7677 48.1716 65.1188 20.8751 98.8624 20.8751C132.606 20.8751 159.957 48.1716 159.957 81.8478C159.957 115.524 132.606 142.821 98.8624 142.821Z" fill="#6F91EE"/>
<path d="M98.8624 138.784C67.3405 138.784 41.7708 113.265 41.7708 81.806C41.7708 50.347 67.3405 24.8493 98.8624 24.8493C130.384 24.8493 155.933 50.347 155.933 81.806C155.933 113.265 130.384 138.784 98.8624 138.784Z" fill="#597AD5"/>
<path d="M98.8624 134.935C69.4154 134.935 45.5434 111.111 45.5434 81.7223C45.5434 52.355 69.4154 28.5306 98.8624 28.5306C128.309 28.5306 152.161 52.355 152.161 81.7223C152.161 111.111 128.309 134.935 98.8624 134.935Z" fill="white"/>
<path d="M133.57 102.995C133.654 101.844 134.723 101.05 135.645 101.552C137.615 102.618 139.564 103.748 141.472 104.898C142.1 105.275 142.226 106.153 141.828 106.76C141.451 107.408 140.654 107.617 139.942 107.22C138.412 106.383 136.903 105.505 135.394 104.647C135.037 104.438 134.66 104.271 134.367 103.999C134.052 103.727 133.822 103.33 133.57 102.995Z" fill="#6F91EE"/>
<path d="M133.57 102.995C133.654 101.844 134.723 101.05 135.645 101.552C137.615 102.618 139.564 103.748 141.472 104.898C142.1 105.275 142.226 106.153 141.828 106.76C141.451 107.408 140.654 107.617 139.942 107.22C138.412 106.383 136.903 105.505 135.394 104.647C135.037 104.438 134.66 104.271 134.367 103.999C134.052 103.727 133.822 103.33 133.57 102.995Z" fill="#8C8C8C"/>
<path d="M100.267 126.924C100.267 127.949 100.267 128.953 100.267 129.978C100.267 130.877 99.6798 131.505 98.8834 131.505C98.0451 131.505 97.4373 130.877 97.4373 129.978C97.4373 127.942 97.4373 125.906 97.4373 123.87C97.4582 122.908 98.0031 122.322 98.8625 122.322C99.7008 122.322 100.246 122.908 100.267 123.87C100.267 124.895 100.267 125.899 100.267 126.924Z" fill="#6F91EE"/>
<path d="M100.267 126.924C100.267 127.949 100.267 128.953 100.267 129.978C100.267 130.877 99.6798 131.505 98.8834 131.505C98.0451 131.505 97.4373 130.877 97.4373 129.978C97.4373 127.942 97.4373 125.906 97.4373 123.87C97.4582 122.908 98.0031 122.322 98.8625 122.322C99.7008 122.322 100.246 122.908 100.267 123.87C100.267 124.895 100.267 125.899 100.267 126.924Z" fill="#8C8C8C"/>
<path d="M143.924 83.3539C142.897 83.3539 141.891 83.3539 140.864 83.3539C139.879 83.333 139.313 82.8101 139.313 81.9316C139.313 81.1158 139.9 80.5511 140.822 80.5511C142.89 80.5232 144.951 80.5232 147.005 80.5511C147.906 80.5511 148.514 81.1577 148.514 81.9734C148.493 82.7683 147.885 83.333 146.984 83.333C145.957 83.3539 144.951 83.3539 143.924 83.3539Z" fill="#6F91EE"/>
<path d="M143.924 83.3539C142.897 83.3539 141.891 83.3539 140.864 83.3539C139.879 83.333 139.313 82.8101 139.313 81.9316C139.313 81.1158 139.9 80.5511 140.822 80.5511C142.89 80.5232 144.951 80.5232 147.005 80.5511C147.906 80.5511 148.514 81.1577 148.514 81.9734C148.493 82.7683 147.885 83.333 146.984 83.333C145.957 83.3539 144.951 83.3539 143.924 83.3539Z" fill="#8C8C8C"/>
<path d="M79.3289 118.306C79.266 118.432 79.2031 118.745 79.0354 118.996C78.0434 120.753 77.0444 122.496 76.0383 124.226C75.5773 125.02 74.7808 125.271 74.0892 124.874C73.3347 124.456 73.1041 123.661 73.5652 122.845C74.5852 121.06 75.6122 119.282 76.6462 117.511C77.0444 116.821 77.715 116.549 78.3857 116.779C78.9935 117.009 79.3289 117.448 79.3289 118.306Z" fill="#6F91EE"/>
<path d="M79.3289 118.306C79.266 118.432 79.2031 118.745 79.0354 118.996C78.0434 120.753 77.0444 122.496 76.0383 124.226C75.5773 125.02 74.7808 125.271 74.0892 124.874C73.3347 124.456 73.1041 123.661 73.5652 122.845C74.5852 121.06 75.6122 119.282 76.6462 117.511C77.0444 116.821 77.715 116.549 78.3857 116.779C78.9935 117.009 79.3289 117.448 79.3289 118.306Z" fill="#8C8C8C"/>
<path d="M120.115 116.716C120.303 116.884 120.806 117.114 121.058 117.511C122.106 119.247 123.112 121.004 124.118 122.782C124.6 123.619 124.411 124.435 123.699 124.853C122.944 125.292 122.169 125.041 121.645 124.163C120.618 122.406 119.591 120.649 118.606 118.892C118.019 117.846 118.668 116.716 120.115 116.716Z" fill="#6F91EE"/>
<path d="M120.115 116.716C120.303 116.884 120.806 117.114 121.058 117.511C122.106 119.247 123.112 121.004 124.118 122.782C124.6 123.619 124.411 124.435 123.699 124.853C122.944 125.292 122.169 125.041 121.645 124.163C120.618 122.406 119.591 120.649 118.606 118.892C118.019 117.846 118.668 116.716 120.115 116.716Z" fill="#8C8C8C"/>
<path d="M53.8011 83.333C52.7742 83.333 51.7681 83.333 50.7412 83.333C49.798 83.3121 49.2531 82.7892 49.2531 81.9525C49.2531 81.1158 49.819 80.572 50.7412 80.5511C52.7811 80.5371 54.8211 80.5302 56.8611 80.5302C57.7623 80.5511 58.3911 81.1367 58.4121 81.9107C58.4121 82.7683 57.8252 83.3121 56.8611 83.333C55.8341 83.3539 54.8281 83.333 53.8011 83.333Z" fill="#6F91EE"/>
<path d="M53.8011 83.333C52.7742 83.333 51.7681 83.333 50.7412 83.333C49.798 83.3121 49.2531 82.7892 49.2531 81.9525C49.2531 81.1158 49.819 80.572 50.7412 80.5511C52.7811 80.5371 54.8211 80.5302 56.8611 80.5302C57.7623 80.5511 58.3911 81.1367 58.4121 81.9107C58.4121 82.7683 57.8252 83.3121 56.8611 83.333C55.8341 83.3539 54.8281 83.333 53.8011 83.333Z" fill="#8C8C8C"/>
<path d="M57.1964 107.429C56.4 107.366 55.9599 107.053 55.7503 106.425C55.5617 105.798 55.7922 105.149 56.421 104.794C58.0138 103.852 59.6277 102.932 61.2205 102.012C61.4511 101.865 61.7026 101.74 61.9331 101.614C62.6876 101.238 63.4841 101.489 63.8613 102.179C64.2176 102.848 64.008 103.622 63.2954 104.062C62.0379 104.815 60.7594 105.526 59.4809 106.258C58.9779 106.551 58.4749 106.864 57.951 107.136C57.6785 107.283 57.3641 107.346 57.1964 107.429Z" fill="#6F91EE"/>
<path d="M57.1964 107.429C56.4 107.366 55.9599 107.053 55.7503 106.425C55.5617 105.798 55.7922 105.149 56.421 104.794C58.0138 103.852 59.6277 102.932 61.2205 102.012C61.4511 101.865 61.7026 101.74 61.9331 101.614C62.6876 101.238 63.4841 101.489 63.8613 102.179C64.2176 102.848 64.008 103.622 63.2954 104.062C62.0379 104.815 60.7594 105.526 59.4809 106.258C58.9779 106.551 58.4749 106.864 57.951 107.136C57.6785 107.283 57.3641 107.346 57.1964 107.429Z" fill="#8C8C8C"/>
<path d="M100.246 37.002C100.246 38.027 100.246 39.031 100.246 40.0559C100.225 40.9344 99.6798 41.541 98.8415 41.5828C98.1079 41.6037 97.4792 40.9762 97.4582 40.1186C97.4442 38.0409 97.4442 35.9632 97.4582 33.8854C97.4792 33.0278 98.087 32.4421 98.8624 32.4421C99.6798 32.4631 100.225 33.0487 100.246 33.9482C100.246 34.9731 100.246 35.998 100.246 37.002Z" fill="#8C8C8C"/>
<path d="M135.268 62.437C134.471 62.437 134.01 62.1441 133.801 61.5166C133.57 60.8473 133.78 60.2198 134.45 59.8433C135.792 59.0275 137.154 58.2745 138.495 57.4797C138.977 57.2287 139.439 56.9358 139.921 56.6848C140.633 56.3083 141.43 56.5175 141.828 57.145C142.247 57.8353 142.058 58.651 141.325 59.0903C139.48 60.1779 137.636 61.2238 135.792 62.2696C135.603 62.3742 135.373 62.4161 135.268 62.437Z" fill="#6F91EE"/>
<path d="M135.268 62.437C134.471 62.437 134.01 62.1441 133.801 61.5166C133.57 60.8473 133.78 60.2198 134.45 59.8433C135.792 59.0275 137.154 58.2745 138.495 57.4797C138.977 57.2287 139.439 56.9358 139.921 56.6848C140.633 56.3083 141.43 56.5175 141.828 57.145C142.247 57.8353 142.058 58.651 141.325 59.0903C139.48 60.1779 137.636 61.2238 135.792 62.2696C135.603 62.3742 135.373 62.4161 135.268 62.437Z" fill="#8C8C8C"/>
<path d="M124.411 40.2442C124.306 40.5579 124.243 40.8298 124.118 41.039C123.112 42.8169 122.106 44.574 121.079 46.331C120.576 47.1676 119.8 47.3977 119.067 46.9585C118.375 46.5611 118.186 45.7662 118.647 44.9505C119.674 43.1725 120.68 41.3946 121.749 39.6376C122.336 38.6754 123.384 38.5917 124.034 39.4284C124.223 39.6585 124.306 39.9722 124.411 40.2442Z" fill="#6F91EE"/>
<path d="M124.411 40.2442C124.306 40.5579 124.243 40.8298 124.118 41.039C123.112 42.8169 122.106 44.574 121.079 46.331C120.576 47.1676 119.8 47.3977 119.067 46.9585C118.375 46.5611 118.186 45.7662 118.647 44.9505C119.674 43.1725 120.68 41.3946 121.749 39.6376C122.336 38.6754 123.384 38.5917 124.034 39.4284C124.223 39.6585 124.306 39.9722 124.411 40.2442Z" fill="#8C8C8C"/>
<path d="M62.3942 62.437C62.3104 62.3952 62.0379 62.3324 61.8074 62.186C60.0189 61.168 58.2374 60.1431 56.4629 59.1112C55.7503 58.6929 55.4988 57.8353 55.8761 57.1868C56.2533 56.5384 57.0497 56.2874 57.7833 56.6848C59.6277 57.7307 61.472 58.7975 63.2954 59.8642C63.9242 60.2407 64.1338 60.8682 63.9242 61.4957C63.6937 62.1023 63.2326 62.437 62.3942 62.437Z" fill="#6F91EE"/>
<path d="M62.3942 62.437C62.3104 62.3952 62.0379 62.3324 61.8074 62.186C60.0189 61.168 58.2374 60.1431 56.4629 59.1112C55.7503 58.6929 55.4988 57.8353 55.8761 57.1868C56.2533 56.5384 57.0497 56.2874 57.7833 56.6848C59.6277 57.7307 61.472 58.7975 63.2954 59.8642C63.9242 60.2407 64.1338 60.8682 63.9242 61.4957C63.6937 62.1023 63.2326 62.437 62.3942 62.437Z" fill="#8C8C8C"/>
<path d="M79.3079 45.6198C79.3289 46.3937 78.9516 46.8957 78.3229 47.084C77.6731 47.2722 77.1282 47.084 76.7929 46.5192C75.689 44.6785 74.6062 42.8239 73.5443 40.9553C73.1461 40.265 73.4185 39.4284 74.0473 39.0728C74.697 38.6963 75.4934 38.8845 75.9336 39.5748C77.0234 41.3946 78.0714 43.2352 79.1403 45.0759C79.2451 45.2642 79.266 45.4943 79.3079 45.6198Z" fill="#6F91EE"/>
<path d="M79.3079 45.6198C79.3289 46.3937 78.9516 46.8957 78.3229 47.084C77.6731 47.2722 77.1282 47.084 76.7929 46.5192C75.689 44.6785 74.6062 42.8239 73.5443 40.9553C73.1461 40.265 73.4185 39.4284 74.0473 39.0728C74.697 38.6963 75.4934 38.8845 75.9336 39.5748C77.0234 41.3946 78.0714 43.2352 79.1403 45.0759C79.2451 45.2642 79.266 45.4943 79.3079 45.6198Z" fill="#8C8C8C"/>
<path d="M103.138 81.7224C103.138 84.0232 101.273 85.8639 98.9882 85.8639C96.6827 85.8639 94.8383 84.0232 94.8383 81.7224C94.8383 79.4424 96.6827 77.5808 98.9882 77.5808C101.273 77.5808 103.138 79.4424 103.138 81.7224Z" fill="#343434"/>
<path d="M100.392 81.5759C100.392 82.3498 99.7637 82.9773 98.9882 82.9773C98.2127 82.9773 97.584 82.3498 97.584 81.5759V39.6375C97.584 38.8636 98.2127 38.2361 98.9882 38.2361C99.7637 38.2361 100.392 38.8636 100.392 39.6375V81.5759Z" fill="#473D59"/>
<path d="M76.8977 96.2596C76.227 96.6361 75.3467 96.406 74.9695 95.7367C74.5713 95.0674 74.8018 94.1888 75.4934 93.8123L98.2546 80.7184C98.9253 80.3209 99.8056 80.5719 100.183 81.2413C100.581 81.9106 100.351 82.7891 99.6798 83.1656L76.8977 96.2596Z" fill="#473D59"/>
<path d="M110.788 14.3281H86.895C84.9877 14.3281 83.4368 12.7802 83.4368 10.8768V3.47222C83.4368 1.56879 84.9877 0.0209351 86.895 0.0209351H110.788C112.695 0.0209351 114.246 1.56879 114.246 3.47222V10.8768C114.246 12.7802 112.695 14.3281 110.788 14.3281Z" fill="#597AD4"/>
<path d="M90.2274 14.3281H86.895V0.0209351H90.2274V14.3281Z" fill="#88A3EE"/>
<path d="M97.1019 14.3281H93.7695V0.0209351H97.1019V14.3281Z" fill="#88A3EE"/>
<path d="M103.976 14.3281H100.623V0.0209351H103.976V14.3281Z" fill="#88A3EE"/>
<path d="M110.83 14.3281H107.497V0.0209351H110.83V14.3281Z" fill="#88A3EE"/>
<path d="M182.781 143.657C182.781 144.85 172.868 145.833 160.649 145.833C148.43 145.833 138.537 144.85 138.537 143.657C138.537 142.465 148.43 141.503 160.649 141.503C172.868 141.503 182.781 142.465 182.781 143.657Z" fill="#312D3F"/>
<path d="M173.916 104.124C173.916 104.124 170.311 113.432 164.631 120.168C175.446 139.599 175.907 140.143 175.907 140.143H162.011L154.592 120.168L173.916 104.124Z" fill="#4B60AA"/>
<path d="M175.907 140.143L177.479 143.657H162.912L162.011 140.143H175.907Z" fill="#312D3F"/>
<path d="M160.23 140.143L155.724 120.481C155.724 120.481 155.724 120.481 169.179 110.211C166.392 113.851 159.706 121.506 159.706 121.506L166.433 140.143H160.23Z" fill="#473D59"/>
<path d="M174.964 98.686C174.964 98.686 175.278 107.387 166.433 114.102L157.463 120.586L162.011 140.143H148.639L144.573 120.063C144.112 117.867 144.972 115.608 146.774 114.269L160.23 104.124L160.649 101.28L174.964 98.686Z" fill="#5974D4"/>
<path d="M162.011 140.143L162.912 143.657H143.84C143.84 143.657 144.427 141.001 148.639 140.143C159.454 140.143 162.011 140.143 162.011 140.143Z" fill="#544768"/>
<path d="M145.202 123.201L144.573 120.063C144.112 117.867 144.972 115.608 146.774 114.269L149.666 112.073C150.672 113.265 151.259 114.792 151.259 116.444C151.259 119.958 148.619 122.824 145.202 123.201Z" fill="#4F68BF"/>
<path d="M157.337 140.143L152.412 118.536C152.412 118.536 154.026 117.616 161.571 112.073C170.814 104.94 170.499 99.5645 170.499 99.5645" stroke="#4F68BF" stroke-width="1.3"/>
<path d="M159.349 90.4656C159.21 91.4696 159.042 92.4597 158.846 93.4358C157.84 93.5613 156.143 93.7705 153.9 94.0006C150.149 94.398 147.277 93.9378 147.277 93.9378L159.349 90.4656Z" fill="#473D59"/>
<path d="M174.964 98.686C174.964 98.686 175.006 99.7737 174.67 101.489C167.984 103.183 160.649 101.28 160.649 101.28L174.964 98.686Z" fill="#473D59"/>
<path d="M166.957 67.1015C166.957 67.1015 166.811 65.5745 167.775 64.445C168.76 63.3364 172.511 63.6502 173.664 64.696C174.817 65.7419 174.461 69.9671 171.631 72.3516C170.919 71.2639 166.957 67.1015 166.957 67.1015Z" fill="#473D59"/>
<path d="M171.107 73.5438L176.536 78.5639L174.964 98.6859C174.964 98.6859 169.011 101.907 160.649 101.28C164.526 77.8318 164.526 77.8318 164.526 77.8318C164.526 77.8318 165.344 73.6275 169.787 73.1255C171.107 73.5438 171.107 73.5438 171.107 73.5438Z" fill="#EF4444"/>
<path d="M165.176 88.1438L176.033 84.9226L175.697 89.2733C168.969 90.4028 162.305 91.2395 162.305 91.2395L165.176 88.1438Z" fill="#473D59"/>
<path d="M176.536 78.5639C176.536 78.5639 180.308 82.1198 178.003 85.7593C176.012 88.8759 155.032 92.8501 149.059 93.9169C147.654 94.1679 146.187 93.8542 145.097 92.9338C144.944 92.8083 144.804 92.6758 144.678 92.5364C142.373 92.641 141.115 91.6997 141.954 91.1768C142.792 90.6539 145.538 89.9218 145.538 89.9218C145.538 89.9218 146.25 89.0851 144.783 89.0851C143.316 89.0851 143.526 87.2863 146.565 87.2444C149.583 87.2235 158.888 85.341 164.002 83.9814C169.116 82.6218 176.536 78.5639 176.536 78.5639Z" fill="#FC9D99"/>
<path d="M144.678 92.5364C144.678 92.5364 146.25 92.2226 147.277 91.9089" stroke="#AA4944" stroke-width="1.4" stroke-linecap="round"/>
<path d="M166.433 83.2075C171.17 81.4923 176.536 78.5639 176.536 78.5639C176.536 78.5639 180.308 82.1198 178.003 85.7593C177.248 86.9307 173.769 88.2484 169.41 89.4616C168.928 86.596 167.481 84.4416 166.433 83.2075Z" fill="#DC4444"/>
<path d="M171.988 69.8624V74.7152C171.988 74.7152 169.326 76.9742 167.754 77.2043C166.203 77.4343 168.383 74.8616 168.383 74.8616V72.2051L171.988 69.8624Z" fill="#FC9D99"/>
<path d="M168.383 72.2052L171.694 70.0507C171.862 70.2181 171.883 70.5109 171.631 71.0547C170.772 72.9582 169.179 73.7948 168.383 74.0877V72.2052Z" fill="#7A2D33"/>
<path d="M169.787 66.3484C170.353 68.6074 172.931 68.6074 172.931 68.6074C172.931 68.6074 172.532 70.6364 170.353 72.2888C167.523 73.6903 165.574 72.9163 165.574 72.9163C165.574 72.9163 164.862 72.8327 165.574 70.3226C166.266 67.8335 168.068 65.3235 168.068 65.3235C168.152 67.5825 169.41 68.5238 169.787 66.3484Z" fill="#FC9D99"/>
<path d="M174.23 70.1344C174.23 70.8455 173.643 71.4103 172.931 71.4103C172.218 71.4103 171.631 70.8455 171.631 70.1344C171.631 69.4232 172.218 68.8375 172.931 68.8375C173.643 68.8375 174.23 69.4232 174.23 70.1344Z" fill="#FC9D99"/>
<path d="M168.697 68.9839C168.697 68.9839 169.514 68.8166 170.248 69.3186" stroke="#AA4944" stroke-width="1.2" stroke-linecap="round"/>
<path d="M167.209 68.6075C167.209 68.6075 166.978 68.3774 166.329 68.3564" stroke="#AA4944" stroke-width="1.2" stroke-linecap="round"/>
<path d="M166.329 70.6782L168.592 71.0966C168.592 71.0966 166.664 72.2888 166.329 70.6782Z" fill="white"/>
<path d="M169.095 68.0427C169.095 68.0427 169.913 67.8754 170.499 68.482" stroke="#473D59" stroke-width="1.5" stroke-linecap="round"/>
<path d="M167.901 67.7708C167.901 67.7708 167.335 67.2269 166.811 67.3734" stroke="#473D59" stroke-width="1.5" stroke-linecap="round"/>
<path opacity="0.6" d="M159.873 91.7834C159.873 89.5662 161.676 87.7883 163.897 87.7883C165.448 87.7883 166.811 88.6877 167.481 89.9845C165.029 90.633 162.388 91.2396 159.873 91.7834Z" fill="#D25C53"/>
<path d="M167.607 70.3226L166.79 70.0716L167.335 69.3186" stroke="#AA4944" stroke-width="1.2" stroke-linecap="round"/>
<path d="M171.778 70.6782L173.58 69.7369" stroke="#AA4944" stroke-width="1.2" stroke-linecap="round"/>
<g style="mix-blend-mode:overlay" opacity="0.3">
<path d="M171.17 68.1264C170.604 69.5487 169.514 71.7868 167.963 73.0418C166.475 73.2719 165.574 72.9163 165.574 72.9163C165.574 72.9163 164.862 72.8327 165.574 70.3226C166.266 67.8335 168.068 65.3235 168.068 65.3235C168.152 67.5825 169.41 68.5238 169.787 66.3484C170.017 67.2688 170.583 67.8126 171.17 68.1264Z" fill="white"/>
</g>
<path d="M156.813 140.813C156.813 141.189 156.499 141.503 156.143 141.503H149.331C148.954 141.503 148.639 141.189 148.639 140.813C148.639 140.436 148.954 140.143 149.331 140.143H156.143C156.499 140.143 156.813 140.436 156.813 140.813Z" fill="white"/>
</g>
<defs>
<clipPath id="clip0_2108_5349">
<rect width="188" height="146" fill="white"/>
</clipPath>
</defs>
</svg>
