<svg width="195" height="155" viewBox="0 0 195 155" fill="none" xmlns="http://www.w3.org/2000/svg">
<path d="M1.23623 106.276C2.0112 105.768 2.81384 105.242 3.58881 104.734L2.60168 103.228L5.09265 101.596L6.07978 103.102L8.51539 101.507L10.023 103.808L8.90675 111.704L13.3075 108.821L14.833 111.15L12.4251 112.727L13.3404 114.125L10.7941 115.793L9.87877 114.396L7.30477 116.082L5.8151 113.808L6.91341 105.884L2.83358 108.714L1.23623 106.276Z" fill="#FAE0B2"/>
<path d="M102.682 153.69H77.7655C78.0321 143.328 79.3167 129.925 84.043 127.695C88.43 125.623 89.8357 129.234 89.8357 129.234C89.8357 129.234 90.4417 110.923 97.5554 110.874C102.27 110.85 99.8095 118.836 99.8095 118.836C99.8095 118.836 110.316 100.694 116.982 104.27C120.557 106.184 111.831 123.296 111.831 123.296C111.831 123.296 118.412 118.885 119.878 123.914C121.332 128.955 119.502 140.783 119.502 140.783C119.502 140.783 115.479 140.844 110.474 147.582C109.153 149.363 106.245 151.508 102.682 153.69Z" fill="#466EB6"/>
<path d="M116.982 104.269L85.5457 153.69H77.2686C77.0869 142.48 77.6564 127.659 82.4676 125.392C86.8545 123.332 89.8358 129.234 89.8358 129.234C89.8358 129.234 89.145 108.353 96.2587 108.305C100.973 108.281 100.682 117.382 100.682 117.382C100.682 117.382 110.316 100.694 116.982 104.269Z" fill="#516EBD"/>
<path d="M160.137 132.07C163.469 132.591 162.863 135.209 162.863 135.209C162.863 135.209 170.34 124.92 174.449 127.659C177.175 129.477 172.655 133.112 172.655 133.112C172.655 133.112 185.743 126.762 188.191 131.416C189.5 133.912 177.83 140.347 177.83 140.347C177.83 140.347 183.332 140.371 182.205 143.837C181.09 147.291 169.456 148.782 169.456 148.782C169.456 148.782 173.104 151.86 167.602 153.787C162.1 155.714 139.401 153.096 139.401 153.096C139.401 153.096 154.174 131.137 160.137 132.07Z" fill="#6F91EE"/>
<path d="M160.137 130.131C163.457 130.652 162.863 135.209 162.863 135.209C162.863 135.209 170.607 122.932 174.703 125.671C177.43 127.489 173.722 132.615 173.722 132.615C173.722 132.615 185.743 126.762 188.191 131.415L141.571 151.642C143.292 149.072 154.562 129.27 160.137 130.131Z" fill="#516EBD"/>
<path d="M138.08 118.4C141.316 115.988 143.025 121.175 143.025 121.175C143.025 121.175 137.256 105.239 143.037 104.027C146.879 103.227 149.133 114.013 149.133 114.013C149.133 114.013 155.035 94.526 161.058 96.3438C164.293 97.3254 159.991 112.716 159.991 112.716C159.991 112.716 164.633 108.026 166.644 111.892C168.668 115.758 160.173 126.944 160.173 126.944C160.173 126.944 165.857 126.422 162.887 132.736C159.918 139.062 139.256 153.435 139.256 153.435C139.256 153.435 132.276 122.714 138.08 118.4Z" fill="#6F91EE"/>
<path d="M132.433 118.642C136.081 116.921 136.808 113.286 136.808 113.286C136.808 113.286 136.832 104.282 142.625 103.07C146.467 102.27 149.157 109.505 149.157 109.505C149.157 109.505 155.035 94.526 161.058 96.3438L139.195 153.193C138.432 149.569 128.095 120.702 132.433 118.642Z" fill="#516EBD"/>
<path d="M132.894 153.471H91.2416C89.9085 153.471 88.83 152.393 88.83 151.072C88.83 149.739 89.9085 148.66 91.2416 148.66H132.894C134.227 148.66 135.293 149.739 135.293 151.072C135.293 152.393 134.227 153.471 132.894 153.471Z" fill="#F48C7F"/>
<path d="M140.177 148.806H98.5249C97.1919 148.806 96.1133 147.727 96.1133 146.406C96.1133 145.073 97.1919 143.995 98.5249 143.995H140.177C141.51 143.995 142.589 145.073 142.589 146.406C142.589 147.727 141.51 148.806 140.177 148.806Z" fill="#F47458"/>
<path d="M134.348 144.382H92.6958C91.3628 144.382 90.2963 143.304 90.2963 141.983C90.2963 140.65 91.3628 139.571 92.6958 139.571H134.348C135.681 139.571 136.76 140.65 136.76 141.983C136.76 143.304 135.681 144.382 134.348 144.382Z" fill="#F48C7F"/>
<path d="M129.488 139.595H87.8362C86.5153 139.595 85.4367 138.517 85.4367 137.184C85.4367 135.863 86.5153 134.784 87.8362 134.784H129.488C130.821 134.784 131.9 135.863 131.9 137.184C131.9 138.517 130.821 139.595 129.488 139.595Z" fill="#F47458"/>
<path d="M158.997 134.045C158.997 145.546 149.678 154.877 138.177 154.877C126.665 154.877 117.345 145.546 117.345 134.045C117.345 122.544 126.665 113.225 138.177 113.225C149.678 113.225 158.997 122.544 158.997 134.045Z" fill="#FAE0B2"/>
<path d="M155.653 134.045C155.653 143.704 147.824 151.52 138.177 151.52C128.519 151.52 120.69 143.704 120.69 134.045C120.69 124.399 128.519 116.57 138.177 116.57C147.824 116.57 155.653 124.399 155.653 134.045Z" fill="#F7CC7F"/>
<path fill-rule="evenodd" clip-rule="evenodd" d="M142.589 139.29C142.433 139.813 142.083 140.244 141.603 140.503C141.124 140.763 140.572 140.82 140.049 140.665L134.815 139.106L135.981 135.192L141.214 136.75H141.215C142.294 137.072 142.91 138.211 142.589 139.29ZM144.354 131.269C144.613 131.748 144.671 132.3 144.515 132.823C144.193 133.902 143.054 134.518 141.975 134.198H141.975L136.742 132.639L137.907 128.725L143.141 130.283C143.663 130.439 144.094 130.789 144.354 131.269ZM146.697 130.001C146.098 128.896 145.105 128.089 143.901 127.73L143.209 127.524L144.178 124.269L141.691 123.529L140.721 126.784L138.598 126.151L139.568 122.896L138.972 122.719L136.558 122L135.624 125.137L132.682 124.261L131.852 127.049L134.794 127.925L131.772 138.072L128.83 137.196L128 139.983L130.941 140.859L130.153 143.507L130.748 143.685L133.162 144.403L133.986 141.638L136.114 142.272L135.291 145.038L137.768 145.775L138.591 143.01L139.288 143.217C139.733 143.35 140.187 143.415 140.638 143.415C141.409 143.415 142.173 143.224 142.871 142.846C143.976 142.248 144.783 141.255 145.142 140.05C145.519 138.783 145.333 137.481 144.733 136.41C145.822 135.841 146.69 134.851 147.068 133.584C147.427 132.379 147.295 131.106 146.697 130.001Z" fill="white"/>
<path d="M63.0655 152.623C63.0655 152.623 30.6963 136.675 25.1338 128.349C19.5713 120.024 27.7515 119.551 27.7515 119.551C27.7515 119.551 13.306 105.506 15.3419 99.5916C17.3779 93.6777 24.9521 99.3371 24.9521 99.3371C24.9521 99.3371 15.5722 78.4323 19.947 76.36C28.1029 72.482 39.543 94.7199 39.543 94.7199C39.543 94.7199 37.0829 85.0613 42.706 85.3763C51.1649 85.849 50.8256 107.711 50.8256 107.711C50.8256 107.711 51.7708 99.325 56.8849 102.052C66.0346 106.936 63.0655 152.623 63.0655 152.623Z" fill="#516EBD"/>
<path d="M63.1018 152.272L19.947 76.3599C28.1029 72.4819 39.543 94.7198 39.543 94.7198C39.543 94.7198 37.0829 85.0612 42.706 85.3763C51.1649 85.8489 50.7649 102.924 50.7649 102.924C50.7649 102.924 54.7399 96.4528 58.7269 98.6705C66.6162 103.045 63.4048 146.976 63.1018 152.272Z" fill="#6F91EE"/>
<path d="M62.2292 152.829C62.2292 152.829 35.7619 156.113 28.9027 153.181C22.0556 150.248 26.9637 146.637 26.9637 146.637C26.9637 146.637 12.2516 143.74 11.1124 139.232C9.97326 134.712 17.0021 135.16 17.0021 135.16C17.0021 135.16 2.65354 125.938 4.54407 122.86C8.0585 117.14 24.2249 126.362 24.2249 126.362C24.2249 126.362 18.7715 121.333 22.395 119.248C27.8726 116.097 36.5375 129.876 36.5375 129.876C36.5375 129.876 36.0043 126.483 40.2943 126.095C47.9897 125.429 62.2292 152.829 62.2292 152.829Z" fill="#516EBD"/>
<path d="M62.3019 152.684L4.54407 122.86C8.0585 117.14 22.9039 125.623 22.9039 125.623C22.9039 125.623 18.6139 118.776 22.2495 116.691C27.7151 113.54 36.5375 129.876 36.5375 129.876C36.5375 129.876 36.174 124.011 40.464 123.635C47.6504 123.005 60.3387 149.242 62.3019 152.684Z" fill="#6F91EE"/>
<path d="M7.90107 153.435H193.415C193.814 153.435 194.154 153.774 194.154 154.187C194.154 154.599 193.814 154.926 193.415 154.926H7.90107C7.48903 154.926 7.16182 154.599 7.16182 154.187C7.16182 153.774 7.48903 153.435 7.90107 153.435Z" fill="#13375B"/>
<path d="M138.408 25.4735L136.99 29.0121L132.882 27.873L131.173 30.9632L127.028 30.5148L127.21 28.9515L130.3 29.2909L132.106 26.0188L136.057 27.1216L137.002 24.7706L138.408 25.4735Z" fill="#516EBD"/>
<path fill-rule="evenodd" clip-rule="evenodd" d="M165.791 69.8419L151.075 65.5783L150.046 69.1307L155.628 70.7478L154.115 75.9694L157.667 76.9986L159.18 71.7771L164.761 73.3943L165.791 69.8419Z" fill="#66AF99"/>
<path fill-rule="evenodd" clip-rule="evenodd" d="M155.764 77.0501C151.146 75.7123 147.615 73.8971 147.876 72.9956C148.137 72.0943 152.092 72.4479 156.709 73.7857C161.326 75.1235 164.858 76.9388 164.597 77.8402C164.335 78.7417 160.381 78.3879 155.764 77.0501ZM165.545 78.4099C165.882 77.2475 161.952 75.0874 156.767 73.5853C151.583 72.0832 147.107 71.8078 146.77 72.9702C146.474 73.9937 149.486 75.7908 153.749 77.2311L151.577 84.7268L155.13 85.7561L157.301 78.2633C161.706 79.341 165.247 79.4388 165.545 78.4099Z" fill="#66AF99"/>
<path d="M97.6766 153.447H48.7533C46.8021 153.447 45.2267 151.872 45.2267 149.921C45.2267 147.97 46.8021 146.382 48.7533 146.382H97.6766C99.6277 146.382 101.203 147.97 101.203 149.921C101.203 151.872 99.6277 153.447 97.6766 153.447Z" fill="#FAE0B2"/>
<path d="M105.033 146.455H58.9694C57.0182 146.455 55.4428 144.879 55.4428 142.928C55.4428 140.977 57.0182 139.402 58.9694 139.402H105.033C106.984 139.402 108.559 140.977 108.559 142.928C108.559 144.879 106.984 146.455 105.033 146.455Z" fill="#F4C967"/>
<path d="M98.4643 139.402H54.4127C52.5101 139.402 50.9589 137.85 50.9589 135.948V135.79C50.9589 133.876 52.5101 132.336 54.4127 132.336H98.4643C100.379 132.336 101.918 133.876 101.918 135.79V135.948C101.918 137.85 100.379 139.402 98.4643 139.402Z" fill="#FAE0B2"/>
<path d="M98.428 132.361H54.1582C52.2919 132.361 50.7771 130.834 50.7771 128.967V128.689C50.7771 126.81 52.2919 125.295 54.1582 125.295H98.428C100.294 125.295 101.809 126.81 101.809 128.689V128.967C101.809 130.834 100.294 132.361 98.428 132.361Z" fill="#F4C967"/>
<path d="M99.8822 125.707H55.2126C53.2614 125.707 51.686 124.132 51.686 122.181C51.686 120.23 53.2614 118.654 55.2126 118.654H99.8822C101.833 118.654 103.409 120.23 103.409 122.181C103.409 124.132 101.833 125.707 99.8822 125.707Z" fill="#FAE0B2"/>
<path d="M97.9553 118.739H53.2857C51.3346 118.739 49.7591 117.164 49.7591 115.213C49.7591 113.262 51.3346 111.686 53.2857 111.686H97.9553C99.9064 111.686 101.482 113.262 101.482 115.213C101.482 117.164 99.9064 118.739 97.9553 118.739Z" fill="#F4C967"/>
<path d="M100.197 105.106H57.406C55.4913 105.106 53.9522 103.554 53.9522 101.652V101.506C53.9522 99.5916 55.4913 98.0526 57.406 98.0526H100.197C102.1 98.0526 103.651 99.5916 103.651 101.506V101.652C103.651 103.554 102.1 105.106 100.197 105.106Z" fill="#F4C967"/>
<path d="M104.027 111.892H62.92C61.0416 111.892 59.5268 110.377 59.5268 108.499V108.232C59.5268 106.354 61.0416 104.839 62.92 104.839H104.027C105.905 104.839 107.42 106.354 107.42 108.232V108.499C107.42 110.377 105.905 111.892 104.027 111.892Z" fill="#FAE0B2"/>
<path d="M56.4608 118.509C64.8712 126.265 65.4044 139.377 57.6484 147.788C49.8803 156.198 36.78 156.731 28.3575 148.975C19.9471 141.207 19.4138 128.095 27.1819 119.684C34.9379 111.274 48.0504 110.741 56.4608 118.509Z" fill="#F48C7F"/>
<path d="M54.2067 120.957C61.2598 127.465 61.7082 138.469 55.2004 145.522C48.6805 152.587 37.6767 153.035 30.6236 146.515C23.5584 140.008 23.1221 129.004 29.6299 121.951C36.1377 114.885 47.1415 114.449 54.2067 120.957Z" fill="#F7CC7F"/>
<path d="M50.2354 73.901C49.7065 73.7372 49.1777 73.6827 48.7017 73.6827C48.2257 73.7372 47.6969 73.519 47.4324 73.0824L47.2738 72.8641C46.9565 72.373 46.9565 71.7727 47.2738 71.2816L47.4324 71.0087C47.6969 70.6267 48.12 70.4084 48.5959 70.4084C49.1777 70.4084 49.7594 70.2993 50.3412 69.9719C51.7691 69.2079 52.721 67.7345 52.6681 66.0974C52.6152 63.7508 50.7114 61.8954 48.3844 62.0046C46.4276 62.1137 44.7882 63.7508 44.5766 65.7699C44.4709 66.8614 44.7882 67.8436 45.317 68.6622C45.6343 69.1533 45.6343 69.8082 45.317 70.2993L45.2641 70.3539C44.9997 70.7359 44.5766 70.9541 44.1535 70.9541H43.8891C43.3603 70.9541 42.8843 70.6267 42.6728 70.1356C41.9852 68.7168 40.5573 67.7891 38.9179 67.8436C36.8025 67.8982 35.0572 69.699 35.0043 71.8818C34.8986 74.283 36.7496 76.2475 39.0765 76.2475C40.6631 76.2475 42.0381 75.3198 42.6728 73.9555C42.8843 73.4644 43.3603 73.137 43.8891 73.137H44.1007C44.5766 73.137 44.9997 73.3553 45.2113 73.7372L45.4757 74.1192C45.793 74.5558 45.7401 75.1561 45.4757 75.5926C44.9997 76.3566 44.7882 77.2298 44.8939 78.212C45.0526 80.1766 46.6392 81.7591 48.4902 81.9774C51.0816 82.2503 53.197 80.0129 52.9854 77.3935C52.8797 75.8109 51.7691 74.3921 50.2354 73.901Z" fill="#6F91EE"/>
<path fill-rule="evenodd" clip-rule="evenodd" d="M34 136.388L41.9533 120.006V140.575L34 136.388Z" fill="white"/>
<path fill-rule="evenodd" clip-rule="evenodd" d="M50.4205 136.388L42.4391 140.575V120L50.4205 136.388Z" fill="white"/>
<path fill-rule="evenodd" clip-rule="evenodd" d="M34 136.988L41.9533 140.97V147.373L34 136.988Z" fill="white"/>
<path fill-rule="evenodd" clip-rule="evenodd" d="M50.4205 136.988L42.4391 147.373V140.97L50.4205 136.988Z" fill="white"/>
<path d="M121.017 53.3587L121.502 50.7895L119.66 48.9353C119.454 48.7293 119.575 48.3657 119.866 48.3294L122.459 48.0022L123.647 45.6754C123.78 45.4088 124.156 45.4209 124.289 45.6875L125.404 48.0385L127.986 48.4627C128.276 48.4991 128.385 48.8626 128.167 49.0686L126.277 50.8622L126.677 53.4435C126.725 53.7343 126.41 53.9525 126.156 53.8071L123.865 52.5588L121.538 53.7465C121.272 53.8798 120.969 53.6495 121.017 53.3587Z" fill="#F7CC7F"/>
<path d="M74.8328 7.92553L71.2093 8.30121L70.361 4.31415L66.9798 4.24143L65.5377 0.545221L66.9313 -0.00012207L68.022 2.76295L71.5849 2.83566L72.3969 6.66518L74.8085 6.42281L74.8328 7.92553Z" fill="#66AF99"/>
<path d="M124.241 63.7808L126.822 64.6291C126.822 64.6291 130.906 63.3082 131.306 62.4841C131.706 61.6479 131.815 59.6241 132.397 59.5756C132.978 59.515 134.105 59.7089 134.372 61.0904C134.566 62.0963 133.1 64.9927 133.318 65.2956C133.463 65.4895 134.93 66.0227 136.008 66.3863C136.723 66.6408 137.232 67.2589 137.341 68.0102C137.414 68.5192 137.123 69.0161 136.65 69.1979L135.911 69.4887L136.141 70.2522C136.323 70.8218 136.008 71.4277 135.451 71.6216L134.869 71.8155L135.051 72.276C135.293 72.882 134.954 73.5606 134.348 73.7424L133.839 73.8878L133.863 74.0211C133.948 74.5786 133.596 75.1118 133.063 75.2451L132.566 75.3784L125.707 73.1122C125.065 72.9062 124.471 72.5669 123.974 72.1064L121.696 70.9066C121.454 70.7733 121.332 70.4824 121.429 70.2158L123.538 64.1443C123.635 63.8535 123.95 63.6838 124.241 63.7808Z" fill="#FAE0B2"/>
<path d="M41.7123 55.4916C41.676 55.3946 40.8761 54.0131 39.8339 52.5225C34.9864 45.5421 27.8121 38.8162 19.3896 39.0707V39.0222C23.1949 38.6102 26.9275 39.616 30.1995 41.4217C35.6045 44.3423 40.864 49.8806 43.7361 54.1464L41.7123 55.4916Z" fill="#F7CC7F"/>
<path d="M97.0706 46.7903C97.0706 46.7903 97.3251 46.2813 97.3009 45.1301C97.2888 43.7122 96.9979 41.555 96.9495 41.3611C96.8404 41.0218 101.458 39.5797 101.458 39.5797C101.458 39.5797 108.85 39.204 109.953 38.3678C111.056 37.5437 111.977 37.2044 111.468 38.0648C110.535 39.616 108.365 41.8822 107.893 42.1973C107.408 42.5003 101.664 43.9424 101.555 43.9424C101.458 43.9424 101.482 47.5659 101.482 47.5659L97.0706 46.7903Z" fill="#F7A491"/>
<path d="M97.725 69.1374C96.2829 69.7312 87.2181 65.2594 84.8913 64.096C85.2548 66.7378 85.5942 69.7433 86.2607 72.5427C88.2603 80.8804 95.3134 86.6489 95.3498 86.7943C95.5315 87.6669 85.0852 85.0371 84.5883 85.0614C84.1399 85.0856 78.8562 53.6133 76.5415 51.541L76.5294 49.6141C76.5294 49.606 76.5617 49.602 76.6263 49.602H76.6142C77.7049 49.5414 77.0141 49.5898 79.0622 49.5292C79.9226 49.505 80.8194 49.4565 81.6435 49.7474C83.3643 50.3533 93.7864 59.503 94.5136 59.1273C94.7317 59.0182 95.0589 55.5159 96.9979 44.912C97.0827 44.4273 101.87 45.2513 101.87 45.2513C101.87 45.2513 102.185 67.3074 97.725 69.1374Z" fill="#3C8F7C"/>
<path d="M125.586 97.7255C125.586 97.7255 134.239 108.148 134.93 108.523C135.063 108.596 136.65 108.996 137.135 109.081C139.292 109.481 130.385 112.038 129.912 110.099C129.597 108.741 119.866 101.131 119.866 101.131L125.586 97.7255Z" fill="#F7A491"/>
<path d="M145.121 110.596C142.419 112.207 137.729 113.201 137.729 113.201C134.251 113.904 131.197 114.655 130.046 114.74C129.731 114.764 129.682 113.807 129.634 113.492C129.379 111.674 129.924 110.123 129.924 110.123C133.33 110.05 135.111 108.584 135.111 108.584L141.316 109.081C141.316 109.081 147.824 108.984 145.121 110.596Z" fill="#184655"/>
<path d="M76.3112 82.0196C76.3112 82.0196 83.4249 83.2193 91.3021 81.3773C100.415 79.2444 110.486 77.2812 113.443 78.9899C115.818 80.3714 130.652 102.791 130.652 102.791L124.919 106.972L108.583 88.6849C108.583 88.6849 87.7392 96.3682 83.0614 95.5198C72.3969 93.5808 72.2515 85.0614 76.3112 82.0196Z" fill="#D1725D"/>
<path d="M84.0915 77.4993L91.2173 85.9703L77.9957 89.9937L76.3112 82.0196L84.0915 77.4993Z" fill="#BC6653"/>
<path d="M103.578 119.382C103.578 119.382 101.627 132.797 101.627 133.585C101.627 133.73 102.027 135.318 102.185 135.79C102.863 137.875 97.6038 131.9 97.8704 129.913C98.137 127.925 98.5733 116.17 98.5733 116.17L103.578 119.382Z" fill="#F7A491"/>
<path d="M104.645 143.534C101.942 141.923 98.2704 138.966 98.2704 138.966C95.677 136.433 93.3138 134.118 92.8654 133.04C92.7443 132.749 94.4894 131.476 94.7438 131.294C96.2223 130.192 97.8462 129.937 97.8462 129.937C99.5307 132.906 101.664 133.767 101.664 133.767L104.172 139.475C104.172 139.475 107.347 145.146 104.645 143.534Z" fill="#184655"/>
<path d="M103.966 127.004C102.366 127.21 96.6828 125.914 96.6828 125.914L99.5792 100.416C99.5792 100.416 91.0355 99.4705 86.3577 99.519C81.2678 99.5675 72.9422 99.3857 71.7061 95.8713C70.773 93.2415 69.5368 83.389 69.5368 83.389L81.9222 75.7421L87.521 86.5156C87.521 86.5156 107.614 89.6665 110.11 92.987C113.201 97.1195 104.148 126.98 103.966 127.004Z" fill="#E17962"/>
<path d="M80.0196 55.6856C80.8315 57.5519 82.2615 66.4592 83.4249 71.4885C84.9276 78.0084 87.9088 82.0196 87.9088 82.0196C87.9088 82.0196 84.9882 85.6795 83.7764 86.1521C80.8679 87.2792 71.391 88.9637 71.391 88.9637C71.391 88.9637 70.3609 85.7643 69.8519 78.1538C69.3429 70.5432 68.834 50.1837 69.4035 50.0747C69.452 50.0626 69.6096 50.0141 69.6096 50.0141L76.6021 49.6263C76.6021 49.6263 78.129 51.4199 80.0196 55.6856Z" fill="white"/>
<path d="M75.2933 43.8213C75.269 44.6818 75.5478 45.8694 75.875 46.9601C76.3355 48.5234 76.6748 49.8807 76.6748 49.8807C76.6748 49.8807 78.4078 55.8189 76.4567 56.7278C74.1299 57.8063 69.6096 50.014 69.6096 50.014L69.8035 43.8456C69.8035 43.8456 75.3417 41.7127 75.2933 43.8213Z" fill="#F7A491"/>
<path d="M75.2084 29.7635C75.2084 29.7635 77.5231 33.2416 77.6928 36.1744C77.8624 39.095 77.2444 41.0946 77.2444 41.0946L69.8398 32.2479L75.2084 29.7635Z" fill="#184655"/>
<path d="M78.4562 35.5684C78.5653 36.5985 78.1654 37.471 77.5716 37.5316C76.9778 37.5922 76.4082 36.8166 76.2991 35.7865C76.2022 34.7685 76.59 33.8839 77.1959 33.8233C77.7897 33.7627 78.3472 34.5504 78.4562 35.5684Z" fill="#F48C7F"/>
<path d="M74.1784 31.1936C77.8504 33.1083 79.1713 42.0762 77.7776 44.306C76.5294 46.3299 72.2394 46.1481 69.7672 44.1485C67.2949 42.1368 67.2828 33.6294 67.4525 33.6658C67.4525 33.6658 70.5064 29.2909 74.1784 31.1936Z" fill="#F7A491"/>
<path d="M74.9055 31.7147C73.8027 32.9871 71.597 33.5204 71.597 33.5204L68.0947 34.2717C67.6585 35.6411 67.9857 37.4711 67.7069 38.2951C67.3434 39.3737 67.4888 39.6161 68.2159 40.7431C68.4947 41.1794 69.2097 42.8033 69.4278 43.2759C69.6823 43.8092 69.9489 44.3181 69.8398 45.1907L69.7308 46.3299C69.7308 46.3299 69.5126 44.4999 66.9071 43.0214C64.3016 41.5308 61.1871 37.7861 62.7504 34.1748C64.035 31.242 64.9439 30.0302 66.8223 28.382C71.7909 23.9466 78.0927 28.0427 74.9055 31.7147Z" fill="#184655"/>
<path d="M68.5431 39.2283C68.9673 40.1615 68.8825 41.1189 68.3371 41.3734C67.7918 41.6278 67.0041 41.0704 66.5678 40.1372C66.1436 39.2041 66.2285 38.2467 66.7738 37.9922C67.3191 37.7377 68.1069 38.2952 68.5431 39.2283Z" fill="#F7A491"/>
<path d="M20.456 42.8276L17.0022 40.9007L13.4393 42.6458C13.0393 42.8518 12.5788 42.5003 12.6637 42.052L13.4393 38.174L10.6762 35.3261C10.3611 35.011 10.555 34.4656 11.0034 34.405L14.9299 33.9445L16.784 30.4301C16.9901 30.0302 17.5718 30.0423 17.7535 30.4543L19.4138 34.0536L23.3282 34.7201C23.7644 34.805 23.9341 35.3503 23.6069 35.6654L20.6984 38.3557L21.268 42.2822C21.3286 42.7185 20.8559 43.0457 20.456 42.8276Z" fill="#F7CC7F"/>
<path d="M44.5238 11.9247C44.5117 11.852 44.4632 10.2644 44.9237 8.31332C45.3236 6.64093 45.7236 8.44662 45.7236 8.44662C45.7236 8.44662 45.5539 11.7187 45.8205 11.6944C46.0144 11.6823 46.0023 9.88875 46.4264 8.02247C46.5355 7.54984 46.6446 7.07721 46.7415 6.64093C47.0203 5.50177 47.7959 5.38058 47.711 6.61669C47.6747 7.06509 47.602 7.78009 47.4808 8.28908C47.3475 8.84654 47.3959 9.39188 47.3596 9.87663C47.2748 10.834 47.202 11.5248 47.2384 11.5127C47.299 11.4884 47.4081 11.6944 47.5414 11.1976C47.6989 10.5916 47.7474 9.21011 48.0504 8.34968C48.22 7.85281 48.5109 6.79848 48.5109 6.79848C48.5109 6.79848 49.2501 5.29575 49.3592 5.31999C49.9288 5.41694 49.7106 6.59246 49.3955 7.22263C49.3955 7.74374 49.0562 8.84654 49.0562 8.84654C49.0562 8.84654 48.8744 11.2461 49.2137 11.2945C49.3592 11.3188 49.65 9.86451 50.159 8.4951C50.6316 7.22263 51.3224 6.02288 51.589 6.09559C52.0495 6.20466 51.6738 7.68315 51.6738 7.68315C51.6738 7.68315 51.3588 8.689 51.2861 9.04044C51.1891 9.45248 51.0073 10.6886 51.0073 10.6886C51.0073 10.6886 50.6438 15.0756 50.971 15.0877C51.2982 15.0998 52.0616 14.7968 52.1828 14.5423C52.304 14.2757 52.2798 13.6819 52.401 13.4274C52.5222 13.1729 52.8978 12.9427 53.2372 13.0881C53.5644 13.2214 53.4674 14.712 53.4674 14.712C53.4674 14.712 53.3826 15.9118 52.91 16.5904C51.2739 18.9293 50.9346 18.5536 50.7286 18.8566C50.4983 19.2202 50.5589 25.1341 50.5589 25.1341L45.2146 27.2791C45.4691 23.6435 45.6872 20.6744 45.7357 19.9715C45.7357 19.9715 45.0207 17.3781 44.6208 15.7421C44.2208 14.094 44.5602 12.3973 44.5238 11.9247Z" fill="#F8A492"/>
<path d="M78.0685 100.476C78.3109 101.531 67.9009 99.7855 64.5319 98.0283C64.0592 97.7253 60.9205 64.1322 59.4178 61.66C56.8122 57.3699 43.7846 47.4932 42.6212 45.0937C41.4942 42.7669 44.742 21.5349 44.742 21.5349L51.0074 22.0075L50.8983 41.2157C50.8983 41.2157 59.8055 48.39 60.8962 48.8868C62.6777 49.6988 69.5975 50.0139 69.5975 50.0139C69.5975 50.0139 71.2941 71.052 78.0685 100.476Z" fill="#3C8F7C"/>
<path d="M121.369 20.8441C121.369 32.3448 112.049 41.6763 100.537 41.6763C89.0359 41.6763 79.7166 32.3448 79.7166 20.8441C79.7166 9.34347 89.0359 0.0241699 100.537 0.0241699C112.049 0.0241699 121.369 9.34347 121.369 20.8441Z" fill="#FAE0B2"/>
<path d="M118.012 20.8442C118.012 30.4907 110.195 38.3194 100.537 38.3194C90.8901 38.3194 83.0614 30.4907 83.0614 20.8442C83.0614 11.1977 90.8901 3.36896 100.537 3.36896C110.195 3.36896 118.012 11.1977 118.012 20.8442Z" fill="#F7CC7F"/>
<path d="M95.1316 32.0661L96.1253 29.3272C94.9014 28.8182 93.7743 28.1396 92.8896 27.4488C92.1504 26.8792 91.9929 25.8249 92.514 25.0493L92.5867 24.9645C93.1684 24.1041 94.356 23.9223 95.1558 24.5767C95.9678 25.2311 96.9615 25.837 98.0886 26.2491C99.7367 26.8429 101.094 26.6126 101.506 25.4614C101.906 24.3586 101.239 23.3406 99.361 21.8379C96.6464 19.6807 95.071 17.4751 96.0769 14.6757C96.9979 12.1308 99.5186 10.7856 102.827 11.3067L103.821 8.55573L106.644 9.58582L105.723 12.1308C106.753 12.5549 107.565 13.0033 108.22 13.4638C109.02 14.0213 109.214 15.112 108.668 15.9118C108.099 16.748 106.959 16.9419 106.148 16.3481C105.542 15.8997 104.766 15.4392 103.748 15.0635C101.87 14.3848 100.973 14.9787 100.682 15.7785C100.331 16.7359 101.118 17.7054 103.239 19.5232C106.232 21.9833 107.044 24.0677 106.099 26.6732C105.178 29.2424 102.56 30.7694 99.0338 30.1513L97.9553 33.0962L95.1316 32.0661Z" fill="white"/>
<path d="M100.003 41.7732C100.003 41.7732 101.93 40.9491 102.451 40.7795C102.972 40.6098 104.621 40.2947 104.621 40.2947C104.621 40.2947 107.178 37.665 107.832 37.5923C108.486 37.5317 106.341 40.4765 106.341 40.4765L105.445 41.3369C105.445 41.3369 106.887 40.0887 107.166 39.9191C107.444 39.7494 109.614 36.6228 110.159 36.8288C110.716 37.0348 109.226 39.2283 108.511 40.4038C107.784 41.5672 104.487 42.2943 104.487 42.2943L100.003 41.7732Z" fill="#F7A491"/>
<path d="M123.041 50.2805C123.041 50.8016 111.334 50.9349 108.911 61.3207L107.347 60.7996C110.825 50.2563 122.411 50.6804 122.98 50.2926C122.989 50.2846 122.993 50.2805 122.993 50.2805H123.041Z" fill="#F7CC7F"/>
<path d="M180.627 114.309C183.771 114.369 186.856 114.43 190 114.551C189.884 115.035 189.767 115.459 189.709 115.882C189.534 116.487 189.36 117.032 189.243 117.637C189.185 117.939 189.069 118 188.777 118C184.877 118 181.034 118 177.134 118C176.027 118 174.921 118 173.757 118C174.281 115.882 174.805 113.885 175.329 111.768C174.514 112.07 173.815 112.373 173 112.736C173.233 111.828 173.466 111.041 173.757 110.194C173.757 110.073 173.932 110.013 174.048 110.013C174.572 109.771 175.154 109.589 175.678 109.347C175.853 109.287 176.027 109.105 176.027 108.924C176.842 105.777 177.658 102.631 178.473 99.4841C178.531 99.121 178.647 99 179.055 99C180.685 99 182.315 99 183.945 99C184.062 99 184.178 99 184.353 99C183.712 101.481 183.13 103.962 182.49 106.564C183.421 106.14 184.295 105.777 185.284 105.414C185.168 105.898 184.993 106.322 184.935 106.745C184.819 107.713 184.295 108.258 183.363 108.5C182.956 108.621 182.548 108.803 182.14 108.984C182.024 109.045 181.849 109.226 181.791 109.347C181.384 110.981 180.976 112.554 180.627 114.188C180.627 114.188 180.627 114.248 180.627 114.309Z" fill="#F4C967"/>
</svg>
