<svg width="110" height="126" viewBox="0 0 110 126" fill="none" xmlns="http://www.w3.org/2000/svg">
<g id="Group" opacity="0.1">
<g id="Group_2">
<g id="Group_3">
<path id="Vector" d="M94.92 125.84C42.58 125.84 0 83.26 0 30.92C0 -21.42 42.58 -64 94.92 -64C147.26 -64 189.84 -21.42 189.84 30.92C189.83 83.26 147.25 125.84 94.92 125.84ZM94.92 -60.81C44.34 -60.81 3.19 -19.66 3.19 30.92C3.19 81.5 44.34 122.65 94.92 122.65C145.5 122.65 186.65 81.5 186.65 30.92C186.65 -19.66 145.5 -60.81 94.92 -60.81Z" fill="#F4C967"/>
</g>
<g id="Group_4">
<path id="Vector_2" d="M94.92 115.47C48.3 115.47 10.37 77.54 10.37 30.92C10.37 -15.7 48.3 -53.63 94.92 -53.63C141.54 -53.63 179.47 -15.7 179.47 30.92C179.46 77.54 141.53 115.47 94.92 115.47ZM94.92 -50.44C50.06 -50.44 13.56 -13.94 13.56 30.92C13.56 75.78 50.06 112.28 94.92 112.28C139.78 112.28 176.28 75.78 176.28 30.92C176.28 -13.94 139.78 -50.44 94.92 -50.44Z" fill="#F4C967"/>
</g>
<g id="Group_5">
<path id="Vector_3" d="M94.92 105.1C54.02 105.1 20.74 71.82 20.74 30.92C20.74 -9.98001 54.02 -43.26 94.92 -43.26C135.82 -43.26 169.1 -9.98001 169.1 30.92C169.09 71.82 135.82 105.1 94.92 105.1ZM94.92 -40.07C55.77 -40.07 23.93 -8.22001 23.93 30.92C23.93 70.07 55.78 101.91 94.92 101.91C134.06 101.91 165.91 70.06 165.91 30.92C165.91 -8.22001 134.06 -40.07 94.92 -40.07Z" fill="#F4C967"/>
</g>
<g id="Group_6">
<path id="Vector_4" d="M94.92 94.73C59.74 94.73 31.11 66.11 31.11 30.92C31.11 -4.26002 59.73 -32.89 94.92 -32.89C130.1 -32.89 158.73 -4.27002 158.73 30.92C158.72 66.11 130.1 94.73 94.92 94.73ZM94.92 -29.7C61.49 -29.7 34.3 -2.50002 34.3 30.92C34.3 64.35 61.5 91.54 94.92 91.54C128.34 91.54 155.54 64.34 155.54 30.92C155.54 -2.50002 128.34 -29.7 94.92 -29.7Z" fill="#F4C967"/>
</g>
<g id="Group_7">
<path id="Vector_5" d="M94.92 84.36C65.45 84.36 41.48 60.39 41.48 30.92C41.48 1.44998 65.45 -22.52 94.92 -22.52C124.39 -22.52 148.36 1.44998 148.36 30.92C148.35 60.39 124.38 84.36 94.92 84.36ZM94.92 -19.33C67.21 -19.33 44.67 3.20998 44.67 30.92C44.67 58.63 67.21 81.18 94.92 81.18C122.63 81.18 145.17 58.64 145.17 30.92C145.17 3.20998 122.63 -19.33 94.92 -19.33Z" fill="#F4C967"/>
</g>
<g id="Group_8">
<path id="Vector_6" d="M94.92 73.99C71.17 73.99 51.85 54.67 51.85 30.92C51.85 7.16998 71.17 -12.15 94.92 -12.15C118.67 -12.15 137.99 7.16998 137.99 30.92C137.99 54.67 118.66 73.99 94.92 73.99ZM94.92 -8.96002C72.93 -8.96002 55.03 8.92998 55.03 30.93C55.03 52.92 72.92 70.82 94.92 70.82C116.92 70.82 134.81 52.93 134.81 30.93C134.8 8.92998 116.91 -8.96002 94.92 -8.96002Z" fill="#F4C967"/>
</g>
</g>
</g>
</svg>
