<svg width="90" height="90" viewBox="0 0 90 90" fill="none" xmlns="http://www.w3.org/2000/svg">
<path opacity="0.4" d="M90 44.9999V67.4999C90 80.9999 81 89.9999 67.5 89.9999H22.5C9 89.9999 0 80.9999 0 67.4999V44.9999C0 32.7599 7.38 24.2099 18.855 22.7699C20.025 22.5899 21.24 22.4999 22.5 22.4999H67.5C68.67 22.4999 69.795 22.5448 70.875 22.7248C82.485 24.0748 90 32.6699 90 44.9999Z" fill="white"/>
<path d="M70.875 22.725C69.795 22.545 68.67 22.5 67.5 22.5H22.5C21.24 22.5 20.025 22.59 18.855 22.77C19.485 21.51 20.385 20.34 21.465 19.26L36.09 4.59C42.255 -1.53 52.245 -1.53 58.41 4.59L66.285 12.5551C69.165 15.3901 70.695 18.99 70.875 22.725Z" fill="white"/>
<path d="M90 47.25H76.5C71.55 47.25 67.5 51.3 67.5 56.25C67.5 61.2 71.55 65.25 76.5 65.25H90" fill="white"/>
</svg>
