<svg width="192" height="192" fill="none" xmlns="http://www.w3.org/2000/svg" viewBox="-25 25 192 192">
<g id="Frame 811481">
<g id="Group" opacity="0.1">
<path id="Vector" d="M118.178 93.7274C116.991 92.5402 115.274 92.5402 114.097 93.7168C112.91 94.904 112.91 96.6212 114.086 97.7977C115.274 98.9849 116.98 98.9743 118.167 97.8083C119.355 96.6212 119.365 94.9146 118.178 93.7274Z" fill="#F4C967"/>
<path id="Vector_2" d="M138.593 114.143C137.427 112.934 135.7 112.881 134.502 114.037C133.293 115.203 133.251 116.941 134.396 118.128C135.562 119.337 137.279 119.379 138.477 118.224C139.706 117.058 139.749 115.341 138.593 114.143Z" fill="#F4C967"/>
<path id="Vector_3" d="M158.934 134.484C157.758 133.286 156.03 133.275 154.843 134.441C153.645 135.618 153.635 137.346 154.801 138.533C155.977 139.731 157.684 139.741 158.881 138.565C160.09 137.378 160.111 135.682 158.934 134.484Z" fill="#F4C967"/>
<path id="Vector_4" d="M52.9572 57.0626C54.1444 58.2498 55.851 58.2604 57.0381 57.0732C58.2253 55.886 58.2359 54.1795 57.0487 52.9923C55.8616 51.8051 54.1444 51.8051 52.9678 52.9817C51.7806 54.1477 51.7912 55.8754 52.9572 57.0626Z" fill="#F4C967"/>
<path id="Vector_5" d="M73.2983 77.4036C74.4749 78.6014 76.1815 78.6332 77.3899 77.4672C78.5983 76.28 78.6301 74.5735 77.4641 73.3863C76.2875 72.1885 74.5703 72.1461 73.3831 73.3121C72.1748 74.4781 72.1536 76.2164 73.2983 77.4036Z" fill="#F4C967"/>
<path id="Vector_6" d="M97.7734 93.6955C96.5862 92.5296 94.8584 92.5402 93.6818 93.7379C92.5158 94.9251 92.537 96.6635 93.7242 97.8295C94.922 99.0061 96.6286 98.9743 97.8051 97.7765C98.9923 96.5893 98.9711 94.8721 97.7734 93.6955Z" fill="#F4C967"/>
<path id="Vector_7" d="M118.252 114.175C117.097 112.956 115.369 112.881 114.161 114.005C112.942 115.16 112.868 116.888 113.991 118.097C115.147 119.315 116.874 119.39 118.072 118.256C119.323 117.09 119.397 115.383 118.252 114.175Z" fill="#F4C967"/>
<path id="Vector_8" d="M138.583 134.505C137.406 133.307 135.678 133.275 134.502 134.431C133.304 135.607 133.272 137.335 134.438 138.522C135.615 139.72 137.332 139.741 138.519 138.575C139.717 137.399 139.749 135.692 138.583 134.505Z" fill="#F4C967"/>
<path id="Vector_9" d="M52.9678 77.446C54.1656 78.6226 55.8722 78.612 57.0488 77.4142C58.2359 76.227 58.2253 74.5204 57.0382 73.3333C55.851 72.1461 54.1338 72.1673 52.9466 73.3545C51.7806 74.5416 51.7912 76.2694 52.9678 77.446Z" fill="#F4C967"/>
<path id="Vector_10" d="M73.4892 93.579C72.2278 94.7132 72.1112 96.4409 73.1924 97.6705C74.316 98.9213 76.0544 99.0485 77.2734 97.9567C78.5347 96.8225 78.6619 95.1054 77.5701 93.8864C76.436 92.6038 74.7082 92.4872 73.4892 93.579Z" fill="#F4C967"/>
<path id="Vector_11" d="M97.8794 114.174C96.724 112.956 95.0068 112.871 93.7984 114.015C92.5794 115.171 92.5052 116.899 93.6288 118.107C94.7842 119.326 96.512 119.4 97.7098 118.266C98.9499 117.089 99.0241 115.383 97.8794 114.174Z" fill="#F4C967"/>
<path id="Vector_12" d="M118.136 134.431C116.949 133.265 115.221 133.297 114.055 134.505C112.889 135.692 112.921 137.42 114.118 138.597C115.316 139.752 117.023 139.72 118.199 138.522C119.365 137.314 119.334 135.607 118.136 134.431Z" fill="#F4C967"/>
<path id="Vector_13" d="M52.9572 97.8084C54.1444 98.9955 55.8404 98.9955 57.0382 97.819C58.2253 96.6318 58.2359 94.9252 57.0488 93.738C55.8616 92.5508 54.1444 92.5508 52.9678 93.7274C51.7912 94.904 51.7806 96.6318 52.9572 97.8084Z" fill="#F4C967"/>
<path id="Vector_14" d="M77.3793 114.047C76.1815 112.892 74.4537 112.924 73.2877 114.132C72.1324 115.33 72.1642 117.058 73.3725 118.224C74.5703 119.379 76.2769 119.347 77.4535 118.128C78.6301 116.931 78.5983 115.224 77.3793 114.047Z" fill="#F4C967"/>
<path id="Vector_15" d="M97.837 134.505C96.6604 133.307 94.9327 133.275 93.7561 134.431C92.5583 135.607 92.5265 137.335 93.6925 138.522C94.8691 139.72 96.5756 139.752 97.7734 138.575C98.9712 137.399 99.003 135.692 97.837 134.505Z" fill="#F4C967"/>
<path id="Vector_16" d="M52.8831 118.107C54.0385 119.326 55.7663 119.4 56.9641 118.266C58.1936 117.1 58.2678 115.394 57.1337 114.196C55.9783 112.977 54.2505 112.903 53.0421 114.026C51.8231 115.16 51.7595 116.899 52.8831 118.107Z" fill="#F4C967"/>
<path id="Vector_17" d="M77.4747 134.516C76.3087 133.307 74.5809 133.254 73.3831 134.41C72.1748 135.576 72.1324 137.314 73.2771 138.501C74.4431 139.709 76.1603 139.752 77.3581 138.597C78.5877 137.431 78.6301 135.713 77.4747 134.516Z" fill="#F4C967"/>
<path id="Vector_18" d="M57.017 134.431C55.8193 133.275 54.1021 133.297 52.9361 134.505C51.7807 135.703 51.8125 137.431 53.0103 138.586C54.2081 139.741 55.9147 139.71 57.0912 138.512C58.2466 137.314 58.2254 135.597 57.017 134.431Z" fill="#F4C967"/>
<path id="Vector_19" d="M114.087 36.7003C115.274 37.8875 116.98 37.8769 118.178 36.6791C119.365 35.4919 119.355 33.7853 118.168 32.5981C116.98 31.4109 115.253 31.4216 114.087 32.6087C112.899 33.7959 112.91 35.5237 114.087 36.7003Z" fill="#F4C967"/>
<path id="Vector_20" d="M138.392 57.1898C139.653 56.0556 139.781 54.3384 138.689 53.1194C137.555 51.858 135.827 51.7415 134.608 52.8332C133.357 53.9568 133.23 55.6952 134.322 56.9142C135.435 58.1756 137.184 58.2922 138.392 57.1898Z" fill="#F4C967"/>
<path id="Vector_21" d="M158.956 73.3862C157.779 72.1885 156.051 72.1567 154.875 73.312C153.677 74.4886 153.645 76.2164 154.811 77.4036C155.988 78.6014 157.694 78.6332 158.892 77.4566C160.09 76.28 160.111 74.584 158.956 73.3862Z" fill="#F4C967"/>
<path id="Vector_22" d="M93.7455 36.732C94.9432 37.8874 96.6498 37.8556 97.8264 36.6578C98.9924 35.4707 98.9712 33.7535 97.7522 32.5769C96.5544 31.4215 94.8373 31.4427 93.6713 32.6511C92.5159 33.8277 92.5477 35.5555 93.7455 36.732Z" fill="#F4C967"/>
<path id="Vector_23" d="M118.21 53.0134C117.033 51.8157 115.327 51.7839 114.129 52.9392C112.931 54.1158 112.889 55.833 114.055 57.0202C115.231 58.218 116.938 58.2498 118.146 57.0838C119.333 55.9178 119.365 54.2112 118.21 53.0134Z" fill="#F4C967"/>
<path id="Vector_24" d="M138.562 73.3652C137.385 72.1674 135.668 72.1462 134.481 73.3334C133.283 74.5099 133.272 76.2377 134.438 77.4249C135.615 78.6227 137.332 78.6227 138.519 77.4567C139.717 76.2589 139.738 74.5629 138.562 73.3652Z" fill="#F4C967"/>
<path id="Vector_25" d="M158.913 93.7168C157.726 92.5296 156.02 92.5402 154.832 93.7274C153.645 94.9146 153.656 96.6424 154.843 97.8083C156.03 98.9955 157.737 98.9849 158.935 97.7871C160.101 96.6 160.101 94.904 158.913 93.7168Z" fill="#F4C967"/>
<path id="Vector_26" d="M73.309 36.6685C74.4856 37.8662 76.1921 37.8768 77.3899 36.7003C78.5877 35.5237 78.6089 33.8065 77.4429 32.6193C76.2663 31.4215 74.5386 31.4109 73.3514 32.5769C72.1748 33.7535 72.1536 35.4919 73.309 36.6685Z" fill="#F4C967"/>
<path id="Vector_27" d="M93.6818 57.0414C94.8584 58.2392 96.565 58.2498 97.7628 57.0732C98.9606 55.8966 98.9818 54.1794 97.8158 52.9922C96.6392 51.7945 94.9114 51.7839 93.7242 52.9498C92.5477 54.1264 92.5265 55.8648 93.6818 57.0414Z" fill="#F4C967"/>
<path id="Vector_28" d="M118.252 73.4287C117.097 72.2097 115.369 72.1355 114.161 73.2591C112.942 74.4145 112.867 76.1423 113.991 77.3507C115.136 78.5802 116.874 78.6438 118.072 77.5097C119.323 76.3437 119.386 74.6477 118.252 73.4287Z" fill="#F4C967"/>
<path id="Vector_29" d="M138.551 93.7273C137.364 92.5401 135.647 92.5401 134.47 93.7167C133.283 94.9039 133.283 96.621 134.449 97.8082C135.636 98.9954 137.343 99.006 138.53 97.8188C139.728 96.621 139.738 94.9145 138.551 93.7273Z" fill="#F4C967"/>
<path id="Vector_30" d="M158.934 114.111C157.758 112.913 156.03 112.902 154.843 114.068C153.645 115.245 153.635 116.973 154.801 118.16C155.977 119.358 157.694 119.358 158.881 118.192C160.09 117.005 160.111 115.309 158.934 114.111Z" fill="#F4C967"/>
<path id="Vector_31" d="M52.9467 36.6791C54.1233 37.8768 55.8404 37.8768 57.0276 36.7109C58.2254 35.5343 58.2466 33.8171 57.07 32.6405C55.8934 31.4427 54.1657 31.4321 52.9785 32.5981C51.8019 33.7535 51.7807 35.4919 52.9467 36.6791Z" fill="#F4C967"/>
<path id="Vector_32" d="M73.256 56.9884C74.4007 58.218 76.1391 58.2816 77.3369 57.1474C78.5665 55.9814 78.6407 54.2748 77.5171 53.0665C76.3617 51.8475 74.6339 51.7733 73.4255 52.8969C72.196 54.0417 72.1324 55.78 73.256 56.9884Z" fill="#F4C967"/>
<path id="Vector_33" d="M97.8263 73.3757C96.6498 72.178 94.922 72.1462 93.7348 73.3121C92.537 74.4887 92.5052 76.2165 93.6712 77.4037C94.8478 78.6015 96.565 78.6227 97.7522 77.4567C98.9711 76.2801 99.0029 74.5735 97.8263 73.3757Z" fill="#F4C967"/>
</g>
</g>
</svg>