<svg width="112" height="113" viewBox="0 0 112 113" fill="none" xmlns="http://www.w3.org/2000/svg">
<g id="Group" opacity="0.1">
<path id="Vector" d="M1.51306 21.8865L60.9045 -37.5049C59.2652 -37.1806 57.644 -36.7843 56.0407 -36.352L2.66597 17.0228C2.21562 18.626 1.83731 20.2473 1.51306 21.8865Z" fill="#F4C967"/>
<path id="Vector_2" d="M0 36.9821C0 37.1442 0 37.3063 0 37.4684L76.4683 -39C76.3062 -39 76.1441 -39 75.982 -39C74.8832 -39 73.7843 -38.964 72.6855 -38.928L0.0720155 33.6855C0.0359879 34.7843 0 35.8652 0 36.9821Z" fill="#F4C967"/>
<path id="Vector_3" d="M1.18886 50.3662L89.4022 -37.8472C88.3394 -38.0273 87.2586 -38.2075 86.1958 -38.3516L0.702454 47.1417C0.82855 48.2406 0.990709 49.3034 1.18886 50.3662Z" fill="#F4C967"/>
<path id="Vector_4" d="M4.07101 61.5709L100.589 -34.9468C99.6521 -35.2711 98.7153 -35.5593 97.7786 -35.8475L3.18835 58.7427C3.45856 59.6974 3.74676 60.6342 4.07101 61.5709Z" fill="#F4C967"/>
<path id="Vector_5" d="M8.26826 71.4604L110.496 -30.7677C109.668 -31.182 108.839 -31.5963 107.992 -31.9746L7.04333 68.9565C7.43964 69.8032 7.83593 70.6318 8.26826 71.4604Z" fill="#F4C967"/>
<path id="Vector_6" d="M13.5282 80.2692L119.287 -25.4896C118.548 -25.994 117.81 -26.4984 117.071 -26.9847L12.0512 78.0354C12.5376 78.792 13.0239 79.5306 13.5282 80.2692Z" fill="#F4C967"/>
<path id="Vector_7" d="M19.7791 88.105L127.123 -19.239C126.475 -19.8334 125.808 -20.4098 125.142 -20.9683L18.0317 86.1415C18.6081 86.808 19.1846 87.4565 19.7791 88.105Z" fill="#F4C967"/>
<path id="Vector_8" d="M26.9485 95.0223L134.04 -12.0695C133.482 -12.736 132.905 -13.4025 132.311 -14.051L24.967 93.293C25.6155 93.8874 26.282 94.4638 26.9485 95.0223Z" fill="#F4C967"/>
<path id="Vector_9" d="M35.0547 101.003L140.039 -3.98149C139.553 -4.73806 139.066 -5.47659 138.544 -6.19714L32.821 99.5256C33.5596 100.03 34.2981 100.534 35.0547 101.003Z" fill="#F4C967"/>
<path id="Vector_10" d="M44.1516 105.993L145.011 5.13364C144.614 4.287 144.218 3.45839 143.804 2.62976L41.6478 104.786C42.4764 105.2 43.3049 105.596 44.1516 105.993Z" fill="#F4C967"/>
<path id="Vector_11" d="M54.3836 109.848L148.884 15.3656C148.595 14.4109 148.307 13.4741 148.001 12.5554L51.5733 108.983C52.492 109.271 53.4288 109.56 54.3836 109.848Z" fill="#F4C967"/>
<path id="Vector_12" d="M65.9843 112.315L151.334 26.9662C151.189 25.8854 151.027 24.8226 150.847 23.7418L62.7779 111.811C63.8407 112.009 64.9035 112.171 65.9843 112.315Z" fill="#F4C967"/>
<path id="Vector_13" d="M76 112.982C77.1709 112.982 78.3417 112.946 79.4946 112.892L151.91 40.4767C151.964 39.3238 152 38.153 152 36.9821C152 36.892 152 36.7839 152 36.6938L75.7298 112.964C75.8019 112.964 75.91 112.982 76 112.982Z" fill="#F4C967"/>
<path id="Vector_14" d="M96.2295 110.244L149.262 57.2113C149.712 55.6081 150.109 53.9688 150.433 52.3296L91.3297 111.433C92.9869 111.09 94.6263 110.694 96.2295 110.244Z" fill="#F4C967"/>
</g>
</svg>
