<svg width="122" height="30" viewBox="0 0 122 30" fill="none" xmlns="http://www.w3.org/2000/svg">
<path d="M46.1786 23.096C44.9786 23.096 43.9066 22.808 42.9626 22.232C42.0186 21.656 41.2746 20.864 40.7306 19.856C40.1866 18.848 39.9146 17.712 39.9146 16.448C39.9146 15.168 40.2026 14.032 40.7786 13.04C41.3706 12.032 42.1626 11.24 43.1546 10.664C44.1626 10.072 45.2906 9.77597 46.5386 9.77597C47.8026 9.77597 48.9306 10.072 49.9226 10.664C50.9146 11.24 51.6986 12.032 52.2746 13.04C52.8666 14.048 53.1706 15.184 53.1866 16.448L52.3226 16.664C52.3226 17.88 52.0506 18.976 51.5066 19.952C50.9626 20.928 50.2266 21.696 49.2986 22.256C48.3866 22.816 47.3466 23.096 46.1786 23.096ZM46.5386 21.128C47.4026 21.128 48.1706 20.928 48.8426 20.528C49.5146 20.112 50.0426 19.552 50.4266 18.848C50.8266 18.128 51.0266 17.328 51.0266 16.448C51.0266 15.552 50.8266 14.752 50.4266 14.048C50.0426 13.328 49.5146 12.768 48.8426 12.368C48.1706 11.952 47.4026 11.744 46.5386 11.744C45.7066 11.744 44.9466 11.952 44.2586 12.368C43.5706 12.768 43.0266 13.328 42.6266 14.048C42.2426 14.752 42.0506 15.552 42.0506 16.448C42.0506 17.328 42.2426 18.128 42.6266 18.848C43.0266 19.552 43.5706 20.112 44.2586 20.528C44.9466 20.928 45.7066 21.128 46.5386 21.128ZM52.0586 23.024C51.7386 23.024 51.4746 22.92 51.2666 22.712C51.0586 22.504 50.9546 22.24 50.9546 21.92V18.08L51.4106 15.776L53.1866 16.448V21.92C53.1866 22.24 53.0746 22.504 52.8506 22.712C52.6426 22.92 52.3786 23.024 52.0586 23.024ZM62.2773 23.096C61.0293 23.096 59.9013 22.808 58.8933 22.232C57.9013 21.64 57.1093 20.84 56.5173 19.832C55.9413 18.824 55.6533 17.688 55.6533 16.424C55.6533 15.16 55.9253 14.032 56.4693 13.04C57.0133 12.032 57.7573 11.24 58.7013 10.664C59.6453 10.072 60.7173 9.77597 61.9173 9.77597C62.9093 9.77597 63.8133 9.98397 64.6293 10.4C65.4613 10.816 66.1493 11.376 66.6933 12.08V5.35997C66.6933 5.02397 66.7973 4.75997 67.0053 4.56797C67.2133 4.35997 67.4773 4.25597 67.7973 4.25597C68.1333 4.25597 68.4053 4.35997 68.6133 4.56797C68.8213 4.75997 68.9253 5.02397 68.9253 5.35997V16.472C68.9093 17.72 68.6053 18.848 68.0133 19.856C67.4373 20.864 66.6453 21.656 65.6373 22.232C64.6453 22.808 63.5253 23.096 62.2773 23.096ZM62.2773 21.128C63.1413 21.128 63.9093 20.928 64.5813 20.528C65.2533 20.112 65.7813 19.552 66.1653 18.848C66.5653 18.128 66.7653 17.32 66.7653 16.424C66.7653 15.528 66.5653 14.728 66.1653 14.024C65.7813 13.32 65.2533 12.768 64.5813 12.368C63.9093 11.952 63.1413 11.744 62.2773 11.744C61.4453 11.744 60.6853 11.952 59.9973 12.368C59.3093 12.768 58.7653 13.32 58.3653 14.024C57.9813 14.728 57.7893 15.528 57.7893 16.424C57.7893 17.32 57.9813 18.128 58.3653 18.848C58.7653 19.552 59.3093 20.112 59.9973 20.528C60.6853 20.928 61.4453 21.128 62.2773 21.128ZM77.6872 23C76.8712 23 76.1352 22.8 75.4792 22.4C74.8232 21.984 74.3112 21.432 73.9432 20.744C73.5752 20.04 73.3912 19.24 73.3912 18.344V6.79997C73.3912 6.47997 73.4872 6.21597 73.6792 6.00797C73.8872 5.79997 74.1512 5.69597 74.4712 5.69597C74.7912 5.69597 75.0552 5.79997 75.2632 6.00797C75.4712 6.21597 75.5752 6.47997 75.5752 6.79997V18.344C75.5752 19.064 75.7752 19.656 76.1752 20.12C76.5752 20.584 77.0792 20.816 77.6872 20.816H78.4312C78.7032 20.816 78.9272 20.92 79.1032 21.128C79.2952 21.336 79.3912 21.6 79.3912 21.92C79.3912 22.24 79.2712 22.504 79.0312 22.712C78.8072 22.904 78.5112 23 78.1432 23H77.6872ZM72.0952 12.248C71.8072 12.248 71.5672 12.16 71.3752 11.984C71.1832 11.808 71.0872 11.584 71.0872 11.312C71.0872 11.024 71.1832 10.792 71.3752 10.616C71.5672 10.44 71.8072 10.352 72.0952 10.352H77.8792C78.1672 10.352 78.4072 10.44 78.5992 10.616C78.7912 10.792 78.8872 11.024 78.8872 11.312C78.8872 11.584 78.7912 11.808 78.5992 11.984C78.4072 12.16 78.1672 12.248 77.8792 12.248H72.0952ZM88.544 23.096C87.296 23.096 86.168 22.808 85.16 22.232C84.168 21.656 83.384 20.864 82.808 19.856C82.232 18.848 81.936 17.72 81.92 16.472V5.35997C81.92 5.02397 82.024 4.75997 82.232 4.56797C82.44 4.35997 82.704 4.25597 83.024 4.25597C83.36 4.25597 83.624 4.35997 83.816 4.56797C84.024 4.75997 84.128 5.02397 84.128 5.35997V12.08C84.688 11.376 85.376 10.816 86.192 10.4C87.008 9.98397 87.92 9.77597 88.928 9.77597C90.112 9.77597 91.176 10.072 92.12 10.664C93.064 11.24 93.808 12.032 94.352 13.04C94.912 14.032 95.192 15.16 95.192 16.424C95.192 17.688 94.896 18.824 94.304 19.832C93.728 20.84 92.936 21.64 91.928 22.232C90.936 22.808 89.808 23.096 88.544 23.096ZM88.544 21.128C89.392 21.128 90.152 20.928 90.824 20.528C91.512 20.112 92.048 19.552 92.432 18.848C92.832 18.128 93.032 17.32 93.032 16.424C93.032 15.528 92.832 14.728 92.432 14.024C92.048 13.32 91.512 12.768 90.824 12.368C90.152 11.952 89.392 11.744 88.544 11.744C87.696 11.744 86.928 11.952 86.24 12.368C85.568 12.768 85.04 13.32 84.656 14.024C84.272 14.728 84.08 15.528 84.08 16.424C84.08 17.32 84.272 18.128 84.656 18.848C85.04 19.552 85.568 20.112 86.24 20.528C86.928 20.928 87.696 21.128 88.544 21.128ZM104.314 23.096C103.034 23.096 101.89 22.816 100.882 22.256C99.8899 21.68 99.1059 20.896 98.5299 19.904C97.9699 18.896 97.6899 17.744 97.6899 16.448C97.6899 15.136 97.9699 13.984 98.5299 12.992C99.1059 11.984 99.8899 11.2 100.882 10.64C101.89 10.064 103.034 9.77597 104.314 9.77597C105.594 9.77597 106.73 10.064 107.722 10.64C108.73 11.2 109.514 11.984 110.074 12.992C110.65 13.984 110.946 15.136 110.962 16.448C110.962 17.744 110.674 18.896 110.098 19.904C109.522 20.896 108.738 21.68 107.746 22.256C106.754 22.816 105.61 23.096 104.314 23.096ZM104.314 21.128C105.194 21.128 105.97 20.928 106.642 20.528C107.314 20.128 107.842 19.576 108.226 18.872C108.61 18.168 108.802 17.36 108.802 16.448C108.802 15.536 108.61 14.728 108.226 14.024C107.842 13.304 107.314 12.744 106.642 12.344C105.97 11.944 105.194 11.744 104.314 11.744C103.45 11.744 102.674 11.944 101.986 12.344C101.314 12.744 100.786 13.304 100.402 14.024C100.018 14.728 99.8259 15.536 99.8259 16.448C99.8259 17.36 100.018 18.168 100.402 18.872C100.786 19.576 101.314 20.128 101.986 20.528C102.674 20.928 103.45 21.128 104.314 21.128ZM119.021 23C118.205 23 117.469 22.8 116.813 22.4C116.157 21.984 115.645 21.432 115.277 20.744C114.909 20.04 114.725 19.24 114.725 18.344V6.79997C114.725 6.47997 114.821 6.21597 115.013 6.00797C115.221 5.79997 115.485 5.69597 115.805 5.69597C116.125 5.69597 116.389 5.79997 116.597 6.00797C116.805 6.21597 116.909 6.47997 116.909 6.79997V18.344C116.909 19.064 117.109 19.656 117.509 20.12C117.909 20.584 118.413 20.816 119.021 20.816H119.765C120.037 20.816 120.261 20.92 120.437 21.128C120.629 21.336 120.725 21.6 120.725 21.92C120.725 22.24 120.605 22.504 120.365 22.712C120.141 22.904 119.845 23 119.477 23H119.021ZM113.429 12.248C113.141 12.248 112.901 12.16 112.709 11.984C112.517 11.808 112.421 11.584 112.421 11.312C112.421 11.024 112.517 10.792 112.709 10.616C112.901 10.44 113.141 10.352 113.429 10.352H119.213C119.501 10.352 119.741 10.44 119.933 10.616C120.125 10.792 120.221 11.024 120.221 11.312C120.221 11.584 120.125 11.808 119.933 11.984C119.741 12.16 119.501 12.248 119.213 12.248H113.429Z" fill="#6F91EE"/>
<path d="M15 2.9407C15 1.79036 15.9375 0.842101 17.0754 1.01092C19.2042 1.32676 21.2425 2.12588 23.0292 3.35814C25.3901 4.98645 27.2002 7.29412 28.2193 9.97498C29.2383 12.6558 29.4182 15.5832 28.735 18.3687C28.0519 21.1541 26.5379 23.666 24.3941 25.5712C22.2503 27.4763 19.5779 28.6846 16.7314 29.0357C13.885 29.3868 10.9991 28.8642 8.45652 27.5372C5.91397 26.2102 3.83498 24.1415 2.49536 21.6056C1.48158 19.6865 0.927501 17.5684 0.863994 15.4172C0.830048 14.2674 1.8819 13.4478 3.02428 13.583C4.16665 13.7181 4.96035 14.7611 5.0649 15.9066C5.18407 17.2123 5.56006 18.4885 6.17878 19.6598C7.12379 21.4487 8.59039 22.9081 10.384 23.8442C12.1776 24.7803 14.2134 25.149 16.2214 24.9013C18.2294 24.6536 20.1146 23.8012 21.6269 22.4573C23.1393 21.1133 24.2072 19.3413 24.6892 17.3764C25.1711 15.4114 25.0442 13.3463 24.3253 11.4552C23.6065 9.56399 22.3296 7.93608 20.6641 6.7874C19.5736 6.03534 18.3504 5.51199 17.0678 5.24024C15.9424 5.0018 15 4.09105 15 2.9407Z" fill="#F4C967"/>
<path d="M27.0559 15C28.2081 15 29.1579 14.061 28.9885 12.9213C28.695 10.946 27.9852 9.04714 26.897 7.35397C25.4312 5.0732 23.3406 3.26184 20.8744 2.13565C18.4082 1.00946 15.6702 0.615919 12.9867 1.0019C10.3031 1.38787 7.78701 2.5371 5.73815 4.31269C3.68928 6.08827 2.19399 8.41538 1.43037 11.0168C0.66676 13.6182 0.667013 16.3843 1.4311 18.9856C2.19519 21.5869 3.69091 23.9138 5.7401 25.689C7.26134 27.0068 9.04001 27.9795 10.9535 28.5508C12.0575 28.8805 13.122 28.0739 13.2858 26.9334C13.4497 25.7929 12.6449 24.7558 11.5634 24.3586C10.4365 23.9448 9.38809 23.3289 8.4721 22.5353C7.0275 21.2839 5.97307 19.6435 5.43441 17.8097C4.89576 15.9759 4.89558 14.0259 5.4339 12.192C5.97222 10.3581 7.02635 8.71755 8.47072 7.46583C9.9151 6.2141 11.6888 5.40394 13.5807 5.13184C15.4725 4.85974 17.4026 5.13717 19.1412 5.9311C20.8798 6.72502 22.3536 8.00196 23.3869 9.60982C24.0422 10.6293 24.5028 11.7546 24.7522 12.9289C24.9915 14.056 25.9037 15 27.0559 15Z" fill="#6F91EE"/>
<path d="M23.9578 21.9374C23.9578 19.7058 25.7669 17.8968 27.9984 17.8968V27.3249C27.9984 28.4407 27.0939 29.3452 25.9781 29.3452C24.8623 29.3452 23.9578 28.4407 23.9578 27.3249V21.9374Z" fill="#F4C967"/>
</svg>
