<svg width="16" height="13" viewBox="0 0 16 13" fill="none" xmlns="http://www.w3.org/2000/svg">
<path fill-rule="evenodd" clip-rule="evenodd" d="M0.687722 6.95284C0.498238 6.8959 0.365237 6.72602 0.355436 6.5286C0.345635 6.33165 0.46137 6.14917 0.643854 6.07403C3.75448 4.79337 11.9359 1.42465 14.5094 0.364752C14.6671 0.299879 14.8473 0.326013 14.9803 0.43289C15.1128 0.539767 15.1768 0.710584 15.1469 0.878599C14.7166 3.28823 13.4807 10.2072 13.0859 12.4199C13.0584 12.5734 12.9562 12.7032 12.8129 12.7653C12.6701 12.8278 12.5053 12.8147 12.3737 12.7303C11.0898 11.9046 8.05851 9.95612 6.895 9.20799C6.77879 9.13331 6.70176 9.01197 6.68449 8.87522C6.66675 8.73894 6.71017 8.60126 6.80305 8.49999C7.98569 7.21 11.5626 3.30783 11.5626 3.30783C11.5626 3.30783 5.41037 7.15306 4.27439 7.86293C4.16052 7.93433 4.02144 7.953 3.89263 7.91427C3.34658 7.75045 1.80643 7.2884 0.687722 6.95284Z" fill="#6F91EE"/>
</svg>
