<svg width="17" height="14" viewBox="0 0 17 14" fill="none" xmlns="http://www.w3.org/2000/svg">
<path fill-rule="evenodd" clip-rule="evenodd" d="M0.382362 7.43304C0.1647 7.36914 0.0119217 7.17849 0.000663299 6.95694C-0.0105951 6.7359 0.122351 6.53111 0.331971 6.44678C3.90516 5.00955 13.3032 1.22895 16.2594 0.0394611C16.4406 -0.0333434 16.6475 -0.00401413 16.8003 0.11593C16.9526 0.235874 17.026 0.427576 16.9917 0.616135C16.4974 3.32038 15.0778 11.0853 14.6242 13.5685C14.5926 13.7408 14.4752 13.8865 14.3106 13.9561C14.1465 14.0263 13.9573 14.0116 13.8061 13.9168C12.3312 12.9903 8.84922 10.8035 7.51269 9.96392C7.3792 9.88011 7.29071 9.74393 7.27088 9.59047C7.2505 9.43753 7.30038 9.28301 7.40706 9.16935C8.76557 7.72165 12.8743 3.34238 12.8743 3.34238C12.8743 3.34238 5.80729 7.65775 4.50239 8.4544C4.37158 8.53454 4.21182 8.55549 4.06385 8.51202C3.4366 8.32818 1.66743 7.80964 0.382362 7.43304Z" fill="white"/>
</svg>
