<svg width="14" height="11" viewBox="0 0 14 11" fill="none" xmlns="http://www.w3.org/2000/svg">
<path d="M4.39787 11C9.68112 11 12.5712 6.76692 12.5712 3.10242C12.5712 2.98397 12.5712 2.86382 12.566 2.74536C13.1287 2.35149 13.6143 1.86385 14.0001 1.30529C13.4745 1.52938 12.9175 1.67707 12.3472 1.74357C12.948 1.39636 13.3979 0.850053 13.6134 0.206191C13.049 0.529509 12.4313 0.756478 11.7872 0.877155C11.3543 0.431276 10.7813 0.135894 10.1572 0.0367639C9.53304 -0.0623663 8.8925 0.0402871 8.33479 0.328824C7.77708 0.61736 7.33333 1.07568 7.07227 1.63278C6.8112 2.18989 6.7474 2.81469 6.89075 3.4104C5.74865 3.35503 4.63134 3.06813 3.61128 2.56831C2.59123 2.06849 1.69122 1.36692 0.969622 0.509098C0.603295 1.1209 0.491499 1.8446 0.656937 2.53322C0.822376 3.22183 1.25265 3.82375 1.86037 4.21675C1.40497 4.20178 0.959578 4.08353 0.560122 3.87153V3.90961C0.560907 4.55052 0.790516 5.17151 1.21014 5.66762C1.62976 6.16373 2.21365 6.50452 2.86312 6.63239C2.6166 6.69806 2.36195 6.73079 2.10625 6.72969C1.92598 6.73022 1.74608 6.71407 1.569 6.68146C1.75256 7.23317 2.10999 7.71555 2.59121 8.06102C3.07244 8.4065 3.65336 8.59777 4.25262 8.60805C3.23461 9.38122 1.9771 9.80056 0.682622 9.79853C0.454528 9.79946 0.226592 9.78674 0.00012207 9.76045C1.31395 10.5704 2.83976 11.0005 4.39787 11Z" fill="#1D9BF0"/>
</svg>
