<svg width="14" height="10" viewBox="0 0 14 10" fill="none" xmlns="http://www.w3.org/2000/svg">
<path d="M7.04519 0H7.12307C7.84236 0.00266928 11.487 0.0293622 12.4697 0.298069C12.7667 0.380077 13.0374 0.539926 13.2547 0.761641C13.472 0.983356 13.6283 1.25917 13.7079 1.56153C13.7962 1.89964 13.8584 2.34718 13.9004 2.80897L13.9091 2.9015L13.9284 3.13284L13.9354 3.22538C13.9922 4.03862 13.9992 4.80025 14.0001 4.96663V5.03337C13.9992 5.20598 13.9914 6.01922 13.9284 6.86627L13.9214 6.95969L13.9135 7.05223C13.8697 7.56117 13.805 8.06655 13.7079 8.43847C13.6285 8.74095 13.4723 9.0169 13.255 9.23865C13.0377 9.4604 12.7668 9.62017 12.4697 9.70193C11.4546 9.97954 7.59647 9.99911 7.06181 10H6.93756C6.66716 10 5.54884 9.99466 4.37627 9.95373L4.22751 9.94839L4.15138 9.94483L4.00175 9.93861L3.85211 9.93238C2.8808 9.88878 1.95587 9.81849 1.52972 9.70104C1.23263 9.61936 0.961864 9.45972 0.744552 9.23814C0.527241 9.01655 0.371011 8.74078 0.291515 8.43847C0.194384 8.06744 0.12963 7.56117 0.0858774 7.05223L0.078877 6.9588L0.0718766 6.86627C0.0286905 6.26337 0.00475974 5.6592 0.00012207 5.05472L0.00012207 4.94528C0.00187218 4.75398 0.00887262 4.09289 0.0561256 3.36329L0.062251 3.27164L0.0648761 3.22538L0.0718766 3.13284L0.0911278 2.9015L0.0998783 2.80897C0.141881 2.34718 0.20401 1.89875 0.29239 1.56153C0.371752 1.25905 0.527922 0.983104 0.745243 0.761351C0.962563 0.539598 1.2334 0.379831 1.53059 0.298069C1.95674 0.182401 2.88168 0.11122 3.85299 0.0667318L4.00175 0.0605036L4.15226 0.0551652L4.22751 0.0524959L4.37715 0.0462676C5.20994 0.0190184 6.04308 0.00389079 6.8763 0.0008898H7.04519V0ZM5.60047 2.85613V7.14298L9.23808 5.00044L5.60047 2.85613Z" fill="#EF4444"/>
</svg>
